<?xml version="1.0" encoding="UTF-8"?>
<svg id="a" xmlns="http://www.w3.org/2000/svg" version="1.1" viewBox="0 0 490.124 92.471">
  <!-- Generator: Adobe Illustrator 29.2.0, SVG Export Plug-In . SVG Version: 2.1.0 Build 108)  -->
  <path d="M312.992,30.053h0c.93,0,1.918-.287,3.019-.878v.332c0,.242.195.437.436.437h.092c.24,0,.435-.195.435-.437v-6.148c0-1.592-.359-3.419-3.163-3.419-1.209,0-1.82.073-2.595.165-.253.033-.481.089-.481.398v.109c0,.111.035.199.102.259.082.077.217.106.396.088l.27-.03c.721-.078,1.242-.134,2.308-.134,1.659,0,2.219.646,2.219,2.564v.583h-1.328c-3.202,0-4.566.859-4.566,2.873v.237c0,.902.279,3.001,2.856,3.001ZM311.082,27.052v-.237c0-1.509.914-2.019,3.62-2.019h1.328v3.503c-1.211.646-2.066.899-3.038.899-1.267,0-1.91-.722-1.91-2.146ZM326.836,20.03h-3.711c-3.157,0-3.818,1.691-3.818,3.11v.146c0,.904.298,1.625.886,2.148-.518.28-.705.784-.705,1.181,0,.629.352,1.083.994,1.281-.553.406-1.267,1.35-1.267,2.593v.164c0,1.319.681,2.892,3.929,2.892,2.607,0,3.929-.974,3.929-2.892v-.128c0-1.66-1.175-2.092-2.965-2.562l-3.274-.855c-.419-.109-.474-.32-.474-.493,0-.303.186-.54.548-.704.633.256,1.231.412,2.217.412,2.547,0,3.839-1.022,3.839-3.037v-.146c0-.913-.295-1.647-.879-2.182h.751c.251,0,.418-.147.418-.365v-.2c0-.206-.179-.363-.418-.363ZM321.41,28.149l2.478.646c1.842.479,2.239.786,2.239,1.73v.128c0,1.72-1.192,2.074-2.983,2.074-2.077,0-3.003-.64-3.003-2.074v-.164c0-1.045.38-1.746,1.269-2.34ZM323.125,20.866c2.609,0,2.912,1.298,2.912,2.274v.146c0,1.951-1.557,2.201-2.912,2.201-2.5,0-2.874-1.38-2.874-2.201v-.146c0-2.015,1.537-2.274,2.874-2.274ZM333.204,30.052c.782,0,1.807-.115,2.743-.31.295-.059.405-.172.405-.417v-.128c0-.134-.058-.209-.105-.248-.084-.068-.215-.092-.365-.059-.958.195-1.935.307-2.678.307-2.837,0-3.219-1.84-3.219-3.637v-.309h6.075c.231,0,.418-.189.418-.418v-.492c0-2.838-1.311-4.402-3.692-4.402-2.311,0-3.747,1.693-3.747,4.419v1.202c0,2.98,1.402,4.492,4.165,4.492ZM329.985,24.377v-.019c0-1.626.485-3.564,2.801-3.564,1.874,0,2.746,1.127,2.746,3.547v.036h-5.547ZM333.204,30.052h0,0ZM338.717,29.525v-9.058c0-.253.169-.438.4-.438h.145c.234,0,.401.185.401.438v.176c.978-.454,1.986-.704,2.856-.704,2.081,0,3.274,1.294,3.274,3.547v6.039c0,.231-.188.418-.419.418h-.126c-.217,0-.401-.192-.401-.418v-6.039c0-1.787-.802-2.692-2.383-2.692-.83,0-1.821.256-2.801.72v8.011c0,.223-.195.418-.418.418h-.11c-.223,0-.418-.195-.418-.418ZM348.033,25.579v-1.221c0-2.849,1.306-4.419,3.675-4.419.526,0,1.331.059,2.208.164.296.039.41.151.41.399v.128c0,.105-.037.192-.107.252-.088.071-.22.096-.359.074-.857-.109-1.562-.162-2.152-.162-1.837,0-2.729,1.166-2.729,3.564v1.221c0,2.434.892,3.618,2.729,3.618.594,0,1.3-.053,2.153-.164.147-.023.27.004.358.077.07.059.107.147.107.251v.128c0,.248-.114.36-.408.399h-.002c-.877.105-1.682.164-2.208.164-2.336,0-3.675-1.63-3.675-4.473ZM360.258,30.052c.782,0,1.807-.115,2.743-.31.295-.059.405-.172.405-.417v-.128c0-.134-.058-.209-.105-.248-.084-.068-.215-.092-.365-.059-.958.195-1.935.307-2.678.307-2.837,0-3.219-1.84-3.219-3.637v-.309h6.075c.231,0,.418-.189.418-.418v-.492c0-2.838-1.311-4.402-3.692-4.402-2.311,0-3.747,1.693-3.747,4.419v1.202c0,2.98,1.402,4.492,4.165,4.492ZM357.039,24.377v-.019c0-1.626.485-3.564,2.801-3.564,1.874,0,2.746,1.127,2.746,3.547v.036h-5.547ZM373.541,20.794c-.83,0-1.821.256-2.801.72v8.011c0,.223-.195.418-.418.418h-.109c-.224,0-.419-.195-.419-.418v-9.058c0-.253.169-.438.4-.438h.146c.233,0,.4.185.4.438v.176c.978-.454,1.986-.704,2.856-.704,2.081,0,3.274,1.294,3.274,3.547v6.039c0,.231-.188.418-.419.418h-.126c-.219,0-.401-.192-.401-.418v-6.039c0-1.787-.802-2.692-2.383-2.692ZM381.874,30.053h0c.93,0,1.918-.287,3.019-.878v.332c0,.242.195.437.436.437h.092c.24,0,.435-.195.435-.437v-6.148c0-1.592-.359-3.419-3.163-3.419-1.209,0-1.82.073-2.595.165-.253.033-.481.089-.481.398v.109c0,.111.035.199.102.259.082.077.218.106.396.088l.27-.03c.721-.078,1.241-.134,2.308-.134,1.659,0,2.219.646,2.219,2.564v.583h-1.328c-3.202,0-4.566.859-4.566,2.873v.237c0,.902.279,3.001,2.856,3.001ZM379.964,27.052v-.237c0-1.509.913-2.019,3.62-2.019h1.328v3.503c-1.212.646-2.066.899-3.038.899-1.269,0-1.91-.722-1.91-2.146ZM387.46,20.557v-.181c0-.213.16-.346.418-.346h1.728v-1.801c0-.242.16-.418.382-.418h.199c.208,0,.364.181.364.418v1.801h2.093c.257,0,.418.133.418.346v.181c0,.219-.169.364-.418.364h-2.093v7.094c0,1.006.381,1.183,1.183,1.183h.872c.301,0,.456.11.456.327v.11c0,.213-.116.326-.373.362-.262.035-.618.056-.955.056h0c-1.511,0-2.128-.59-2.128-2.038v-7.094h-1.728c-.251,0-.418-.145-.418-.364ZM395.211,17.956v-1.345c0-.223.195-.418.418-.418h.109c.223,0,.418.195.418.418v1.345c0,.231-.187.419-.418.419h-.109c-.231,0-.418-.188-.418-.419ZM395.211,29.635v-9.187c0-.221.195-.418.418-.418h.109c.223,0,.418.197.418.418v9.187c0,.223-.195.418-.418.418h-.109c-.223,0-.418-.195-.418-.418ZM402.396,30.052c2.464,0,3.82-1.569,3.82-4.419v-1.275c0-2.849-1.356-4.419-3.82-4.419s-3.82,1.57-3.82,4.419v1.275c0,2.85,1.356,4.419,3.82,4.419ZM399.522,25.633v-1.275c0-2.398.941-3.564,2.874-3.564s2.874,1.166,2.874,3.564v1.275c0,2.398-.941,3.564-2.874,3.564s-2.874-1.166-2.874-3.564ZM408.455,29.525v-9.058c0-.253.169-.438.4-.438h.145c.234,0,.401.185.401.438v.176c.978-.454,1.986-.704,2.856-.704,2.081,0,3.273,1.294,3.273,3.547v6.039c0,.231-.187.418-.418.418h-.126c-.217,0-.401-.192-.401-.418v-6.039c0-1.787-.802-2.692-2.383-2.692-.83,0-1.821.256-2.801.72v8.011c0,.223-.195.418-.418.418h-.11c-.223,0-.418-.195-.418-.418ZM420.536,30.053h0c.93,0,1.918-.287,3.019-.878v.332c0,.242.195.437.436.437h.092c.24,0,.435-.195.435-.437v-6.148c0-1.592-.359-3.419-3.163-3.419-1.209,0-1.819.073-2.595.165-.253.033-.481.089-.481.398v.109c0,.111.035.199.102.259.082.077.218.106.396.088l.27-.03c.721-.078,1.241-.134,2.308-.134,1.659,0,2.219.646,2.219,2.564v.583h-1.328c-3.202,0-4.566.859-4.566,2.873v.237c0,.902.28,3.001,2.856,3.001ZM418.626,27.052v-.237c0-1.509.913-2.019,3.62-2.019h1.328v3.503c-1.212.646-2.066.899-3.038.899-1.267,0-1.91-.722-1.91-2.146ZM427.213,29.634v-12.933c0-.234.169-.418.381-.418h.182c.214,0,.383.184.383.418v12.933c0,.234-.169.418-.383.418h-.182c-.212,0-.381-.184-.381-.418ZM434.744,30.052c.782,0,1.807-.115,2.744-.31.295-.059.404-.172.404-.417v-.128c0-.134-.058-.209-.105-.248-.084-.068-.215-.092-.365-.059-.958.195-1.935.307-2.678.307-2.837,0-3.219-1.84-3.219-3.637v-.309h6.075c.231,0,.418-.189.418-.418v-.492c0-2.838-1.311-4.402-3.692-4.402-2.311,0-3.747,1.693-3.747,4.419v1.202c0,2.98,1.402,4.492,4.165,4.492ZM431.525,24.377v-.019c0-1.626.485-3.564,2.801-3.564,1.874,0,2.746,1.127,2.746,3.547v.036h-5.547ZM447.644,30.052c1.276,0,2.673-.265,3.071-.348h.002c.249-.061.329-.162.329-.416v-12.587c0-.234-.169-.418-.383-.418h-.182c-.214,0-.381.184-.381.418v3.492c-.699-.146-1.734-.254-2.456-.254-2.414,0-3.638,1.487-3.638,4.419v1.202c0,2.898,1.292,4.492,3.638,4.492ZM444.952,25.56v-1.202c0-2.465.83-3.564,2.692-3.564.669,0,1.755.083,2.456.223v7.956c-.463.074-1.507.224-2.456.224-1.862,0-2.692-1.122-2.692-3.637ZM447.644,30.052h0,0ZM457.45,30.052c.782,0,1.807-.115,2.744-.31.295-.059.404-.172.404-.417v-.128c0-.134-.058-.209-.105-.248-.084-.068-.215-.092-.365-.059-.958.195-1.935.307-2.678.307-2.837,0-3.219-1.84-3.219-3.637v-.309h6.075c.231,0,.418-.189.418-.418v-.492c0-2.838-1.311-4.402-3.692-4.402-2.311,0-3.747,1.693-3.747,4.419v1.202c0,2.98,1.402,4.492,4.165,4.492ZM454.231,24.377v-.019c0-1.626.485-3.564,2.801-3.564,1.874,0,2.747,1.127,2.747,3.547v.036h-5.548ZM311.245,37.243c.215,0,.382.184.382.418v12.933c0,.234-.167.418-.382.418h-.183c-.212,0-.381-.184-.381-.418v-12.933c0-.234.169-.418.381-.418h.183ZM320.267,50.903h.092c.24,0,.435-.195.435-.437v-6.147c0-1.593-.359-3.42-3.163-3.42-1.208,0-1.82.073-2.595.165-.253.033-.481.089-.481.398v.109c0,.111.035.198.102.259.082.075.218.103.396.088l.27-.03c.721-.078,1.242-.134,2.308-.134,1.659,0,2.219.646,2.219,2.565v.581h-1.328c-3.201,0-4.566.86-4.566,2.874v.236c0,.903.279,3.002,2.856,3.002.931,0,1.919-.287,3.019-.878v.332c0,.242.195.437.436.437ZM314.902,47.774c0-1.51.914-2.019,3.62-2.019h1.328v3.503c-1.211.646-2.066.901-3.038.901-1.269,0-1.91-.725-1.91-2.149v-.236ZM334.368,46.593v-1.2c0-2.898-1.292-4.493-3.638-4.493-1.273,0-2.671.264-3.072.346-.25.063-.33.163-.33.417v12.368c0,.234.169.419.381.419h.183c.215,0,.382-.185.382-.419v-3.274c.699.147,1.734.255,2.456.255,2.414,0,3.638-1.486,3.638-4.419ZM330.731,50.158c-.669,0-1.757-.084-2.456-.223v-7.955c.464-.075,1.511-.226,2.456-.226,1.862,0,2.692,1.121,2.692,3.639v1.2c0,2.465-.83,3.565-2.692,3.565ZM340.082,40.899c-2.311,0-3.747,1.693-3.747,4.42v1.2c0,2.981,1.402,4.493,4.165,4.493.782,0,1.807-.115,2.744-.31.295-.06.404-.172.404-.417v-.127c0-.135-.058-.21-.105-.249-.083-.069-.213-.092-.365-.06-.961.196-1.937.309-2.678.309-2.837,0-3.219-1.84-3.219-3.639v-.31h6.075c.231,0,.418-.187.418-.418v-.49c0-2.839-1.311-4.402-3.692-4.402ZM342.828,45.301v.037h-5.547v-.019c0-1.627.485-3.565,2.801-3.565,1.874,0,2.746,1.126,2.746,3.547ZM346.013,50.484v-9.058c0-.253.169-.436.4-.436h.147c.231,0,.399.183.399.436v.249c.888-.558,1.587-.777,2.456-.777.153,0,.564,0,.564.347v.145c0,.364-.395.364-.564.364-.811,0-1.548.24-2.456.805v7.925c0,.223-.195.418-.418.418h-.109c-.224,0-.419-.195-.419-.418ZM353.345,50.484v-8.603h-1.727c-.251,0-.418-.146-.418-.365v-.162c0-.219.167-.364.418-.364h1.727v-1.619c0-1.494.698-2.219,2.129-2.219.545,0,.708.017.956.056.275.036.408.154.408.362v.126c0,.278-.259.309-.454.309h-.91c-.862,0-1.183.372-1.183,1.366v1.619h2.093c.249,0,.418.145.418.364v.162c0,.219-.169.365-.418.365h-2.093v8.603c0,.228-.184.418-.399.418h-.128c-.231,0-.419-.187-.419-.418ZM361.897,40.899c-2.464,0-3.82,1.57-3.82,4.421v1.272c0,2.851,1.356,4.42,3.82,4.42s3.82-1.569,3.82-4.42v-1.272c0-2.851-1.356-4.421-3.82-4.421ZM364.771,45.32v1.272c0,2.399-.941,3.567-2.874,3.567s-2.874-1.168-2.874-3.567v-1.272c0-2.4.941-3.566,2.874-3.566s2.874,1.166,2.874,3.566ZM367.956,50.484v-9.058c0-.253.169-.436.4-.436h.145c.233,0,.401.183.401.436v.249c.888-.558,1.587-.777,2.456-.777.153,0,.564,0,.564.347v.145c0,.364-.395.364-.564.364-.811,0-1.548.24-2.456.805v7.925c0,.223-.195.418-.418.418h-.109c-.223,0-.419-.195-.419-.418ZM383.91,43.973c0-1.534-.634-2.219-2.057-2.219-.724,0-1.582.211-2.363.582.169.459.253.983.253,1.564v6.585c0,.257-.131.418-.345.418h-.273c-.201,0-.326-.161-.326-.418v-6.585c0-1.444-.537-2.146-1.638-2.146-.646,0-1.497.248-2.528.738v7.993c0,.246-.142.418-.345.418h-.256c-.203,0-.345-.172-.345-.418v-9.059c0-.252.169-.435.4-.435h.145c.232,0,.401.183.401.435v.213c2.038-.968,3.579-.991,4.439-.011.996-.47,2.026-.729,2.909-.729,1.827,0,2.874,1.12,2.874,3.074v6.512c0,.242-.16.418-.382.418h-.182c-.221,0-.381-.176-.381-.418v-6.512ZM392.88,50.466c0,.242.195.437.436.437h.092c.24,0,.435-.195.435-.437v-6.147c0-1.593-.359-3.42-3.163-3.42-1.209,0-1.82.073-2.595.165-.253.033-.481.089-.481.398v.109c0,.111.035.198.102.259.084.075.218.103.396.088l.27-.03c.721-.078,1.241-.134,2.308-.134,1.659,0,2.219.646,2.219,2.565v.581h-1.328c-3.202,0-4.566.86-4.566,2.874v.236c0,.903.279,3.002,2.856,3.002.931,0,1.919-.287,3.019-.878v.332ZM392.899,45.755v3.503c-1.211.646-2.066.901-3.038.901-1.269,0-1.91-.725-1.91-2.149v-.236c0-1.51.913-2.019,3.62-2.019h1.328ZM400.102,41.754c-.83,0-1.821.256-2.801.719v8.012c0,.223-.195.418-.418.418h-.11c-.223,0-.418-.195-.418-.418v-9.059c0-.252.169-.435.4-.435h.145c.234,0,.401.183.401.435v.177c.978-.455,1.986-.704,2.856-.704,2.081,0,3.273,1.294,3.273,3.547v6.039c0,.231-.187.418-.418.418h-.126c-.217,0-.401-.19-.401-.418v-6.039c0-1.787-.802-2.692-2.383-2.692ZM409.347,51.012c-2.336,0-3.675-1.63-3.675-4.474v-1.218c0-2.851,1.305-4.421,3.675-4.421.526,0,1.331.059,2.208.164.297.039.411.151.411.399v.128c0,.105-.038.192-.108.251-.088.072-.22.097-.359.075-.857-.109-1.562-.162-2.152-.162-1.837,0-2.729,1.166-2.729,3.566v1.218c0,2.435.892,3.621,2.729,3.621.582,0,1.287-.055,2.155-.164.14-.024.268.002.356.075.07.059.108.146.108.251v.126c0,.248-.114.361-.409.401h-.002c-.874.105-1.679.164-2.208.164ZM421.044,50.285v-.127c0-.135-.058-.21-.105-.249-.082-.069-.213-.092-.365-.06-.961.196-1.936.309-2.678.309-2.837,0-3.219-1.84-3.219-3.639v-.31h6.075c.231,0,.418-.187.418-.418v-.49c0-2.839-1.311-4.402-3.692-4.402-2.311,0-3.747,1.693-3.747,4.42v1.2c0,2.981,1.402,4.493,4.165,4.493.782,0,1.807-.115,2.744-.31.295-.06.404-.172.404-.417ZM414.677,45.338v-.019c0-1.627.485-3.565,2.801-3.565,1.874,0,2.746,1.126,2.746,3.547v.037h-5.547ZM430.177,51.012c-.83,0-2.002-.129-2.652-.254-.246-.054-.458-.101-.458-.363v-.202c0-.106.038-.192.106-.252.089-.074.223-.099.38-.074,1.16.194,2.056.292,2.662.292,1.566,0,2.236-.523,2.236-1.748,0-.71-.37-1.086-1.891-1.919l-1.165-.637c-1.268-.691-2.237-1.326-2.237-2.646,0-1.469,1.041-2.31,2.855-2.31,1.232,0,1.903.08,2.494.152l.117.012c.22.031.445.064.445.382v.146c0,.155-.03.251-.097.31-.083.073-.209.072-.367.053l-.209-.025c-.538-.066-1.443-.175-2.309-.175-1.191,0-1.984.247-1.984,1.455,0,.731.582,1.19,1.728,1.829l1.219.671c1.622.901,2.347,1.506,2.347,2.702,0,1.703-1.113,2.601-3.22,2.601ZM430.177,51.012h0,0ZM438.857,40.899c-1.209,0-1.82.073-2.595.165-.253.033-.481.089-.481.398v.109c0,.111.035.198.102.259.084.075.218.103.396.088l.27-.03c.721-.078,1.242-.134,2.308-.134,1.659,0,2.219.646,2.219,2.565v.581h-1.328c-3.202,0-4.566.86-4.566,2.874v.236c0,.903.279,3.002,2.856,3.002.931,0,1.919-.287,3.019-.878v.332c0,.242.195.437.436.437h.092c.24,0,.435-.195.435-.437v-6.147c0-1.593-.359-3.42-3.163-3.42ZM441.076,45.755v3.503c-1.211.646-2.066.901-3.038.901-1.269,0-1.91-.725-1.91-2.149v-.236c0-1.51.912-2.019,3.62-2.019h1.328ZM451.609,44.446v6.039c0,.231-.188.418-.419.418h-.126c-.217,0-.401-.19-.401-.418v-6.039c0-1.787-.802-2.692-2.383-2.692-.829,0-1.821.256-2.801.719v8.012c0,.223-.195.418-.418.418h-.109c-.224,0-.419-.195-.419-.418v-9.059c0-.252.169-.435.4-.435h.145c.234,0,.401.183.401.435v.177c.978-.455,1.986-.704,2.856-.704,2.081,0,3.274,1.294,3.274,3.547ZM455.25,37.57v1.345c0,.231-.187.419-.418.419h-.109c-.231,0-.418-.188-.418-.419v-1.345c0-.223.195-.418.418-.418h.109c.223,0,.418.195.418.418ZM455.25,41.407v9.187c0,.223-.195.418-.418.418h-.109c-.223,0-.418-.195-.418-.418v-9.187c0-.221.195-.418.418-.418h.109c.223,0,.418.197.418.418ZM462.998,41.336v.181c0,.219-.169.365-.418.365h-2.093v7.094c0,1.005.381,1.183,1.183,1.183h.872c.302,0,.456.109.456.326v.109c0,.216-.116.327-.373.363-.261.035-.616.056-.955.056h0c-1.511,0-2.128-.59-2.128-2.037v-7.094h-1.728c-.251,0-.418-.146-.418-.365v-.181c0-.213.161-.346.418-.346h1.728v-1.801c0-.242.16-.418.38-.418h.202c.207,0,.363.181.363.418v1.801h2.093c.257,0,.418.133.418.346ZM468.276,40.899c-1.209,0-1.82.073-2.595.165-.253.033-.481.089-.481.398v.109c0,.111.035.198.102.259.082.075.217.103.396.088l.27-.03c.721-.078,1.242-.134,2.308-.134,1.659,0,2.219.646,2.219,2.565v.581h-1.328c-3.202,0-4.566.86-4.566,2.874v.236c0,.903.279,3.002,2.856,3.002.931,0,1.919-.287,3.019-.878v.332c0,.242.195.437.436.437h.092c.24,0,.435-.195.435-.437v-6.147c0-1.593-.359-3.42-3.163-3.42ZM467.457,50.159c-1.269,0-1.91-.725-1.91-2.149v-.236c0-1.51.912-2.019,3.62-2.019h1.328v3.503c-1.211.646-2.066.901-3.038.901ZM475.08,41.407v9.187c0,.223-.195.418-.418.418h-.109c-.223,0-.418-.195-.418-.418v-9.187c0-.221.195-.418.418-.418h.109c.223,0,.418.197.418.418ZM475.08,37.57v1.345c0,.231-.187.419-.418.419h-.109c-.231,0-.418-.188-.418-.419v-1.345c0-.223.195-.418.418-.418h.109c.223,0,.418.195.418.418ZM481.739,41.245v.145c0,.364-.395.364-.564.364-.811,0-1.548.24-2.456.805v7.925c0,.223-.195.418-.418.418h-.109c-.224,0-.419-.195-.419-.418v-9.058c0-.253.169-.436.4-.436h.147c.23,0,.399.183.399.436v.249c.888-.558,1.587-.777,2.456-.777.153,0,.564,0,.564.347ZM486.432,40.899c-2.311,0-3.747,1.693-3.747,4.42v1.2c0,2.981,1.402,4.493,4.165,4.493.782,0,1.807-.115,2.744-.31.295-.06.404-.172.404-.417v-.127c0-.135-.058-.21-.105-.249-.083-.069-.212-.092-.365-.06-.961.196-1.935.309-2.678.309-2.837,0-3.219-1.84-3.219-3.639v-.31h6.075c.231,0,.418-.187.418-.418v-.49c0-2.839-1.311-4.402-3.692-4.402ZM483.631,45.338v-.019c0-1.627.485-3.565,2.801-3.565,1.874,0,2.747,1.126,2.747,3.547v.037h-5.548ZM313.974,61.86c-2.311,0-3.747,1.693-3.747,4.42v1.2c0,2.981,1.402,4.493,4.165,4.493.782,0,1.807-.115,2.744-.312.295-.058.404-.17.404-.415v-.127c0-.135-.058-.21-.105-.249-.083-.069-.214-.092-.365-.06-.961.195-1.937.309-2.678.309-2.837,0-3.219-1.84-3.219-3.639v-.31h6.075c.231,0,.418-.187.418-.418v-.49c0-2.839-1.311-4.402-3.692-4.402ZM316.721,66.262v.037h-5.548v-.019c0-1.627.485-3.567,2.801-3.567,1.874,0,2.747,1.128,2.747,3.549ZM324.599,71.445v.11c0,.215-.116.326-.373.362-.261.035-.616.056-.955.056h0c-1.511,0-2.128-.59-2.128-2.037v-7.095h-1.728c-.25,0-.418-.145-.418-.364v-.181c0-.214.161-.346.418-.346h1.728v-1.801c0-.242.16-.418.382-.418h.2c.207,0,.363.181.363.418v1.801h2.093c.257,0,.418.132.418.346v.181c0,.219-.169.364-.418.364h-2.093v7.095c0,1.005.381,1.183,1.183,1.183h.872c.302,0,.456.109.456.326ZM341.754,64.933v6.512c0,.243-.16.418-.382.418h-.183c-.22,0-.38-.175-.38-.418v-6.512c0-1.534-.634-2.219-2.057-2.219-.725,0-1.584.211-2.362.582.168.457.252.983.252,1.564v6.585c0,.259-.131.418-.344.418h-.274c-.201,0-.326-.159-.326-.418v-6.585c0-1.444-.537-2.146-1.638-2.146-.648,0-1.498.248-2.528.738v7.993c0,.246-.142.418-.345.418h-.256c-.203,0-.345-.172-.345-.418v-9.059c0-.252.169-.437.4-.437h.146c.231,0,.4.185.4.437v.211c2.031-.966,3.579-.989,4.439-.009.997-.47,2.027-.729,2.909-.729,1.827,0,2.874,1.12,2.874,3.074ZM347.741,61.859c-2.311,0-3.747,1.693-3.747,4.421v1.199c0,2.981,1.401,4.493,4.165,4.493.782,0,1.807-.115,2.743-.312.295-.058.405-.17.405-.415v-.126c0-.136-.058-.211-.105-.25-.083-.069-.214-.092-.365-.06-.961.196-1.937.31-2.678.31-2.837,0-3.219-1.84-3.219-3.64v-.31h6.075c.231,0,.418-.187.418-.418v-.49c0-2.839-1.311-4.402-3.692-4.402ZM350.487,66.261v.037h-5.547v-.018c0-1.628.485-3.568,2.801-3.568,1.874,0,2.746,1.128,2.746,3.549ZM349.922,57.767c0,.064-.032.134-.09.194l-2.008,2.406c-.121.153-.202.254-.392.254h-.4c-.163,0-.237-.1-.237-.199,0-.043.01-.15.095-.235l1.812-2.32c.167-.204.258-.301.476-.301h.473c.237,0,.271.126.271.201ZM360.059,58.203h-.183c-.214,0-.381.184-.381.418v3.493c-.699-.147-1.734-.255-2.456-.255-2.414,0-3.638,1.487-3.638,4.421v1.2c0,2.896,1.292,4.493,3.638,4.493,1.273,0,2.672-.266,3.069-.348h.005c.248-.063.328-.164.328-.417v-12.587c0-.234-.169-.418-.382-.418ZM357.039,62.713c.669,0,1.756.084,2.456.225v7.953c-.462.077-1.507.228-2.456.228-1.862,0-2.692-1.123-2.692-3.639v-1.2c0-2.467.83-3.567,2.692-3.567ZM364.08,58.53v1.345c0,.231-.187.419-.418.419h-.109c-.231,0-.418-.188-.418-.419v-1.345c0-.223.195-.418.418-.418h.109c.223,0,.418.195.418.418ZM364.08,62.367v9.187c0,.223-.195.418-.418.418h-.109c-.223,0-.418-.195-.418-.418v-9.187c0-.221.195-.418.418-.418h.109c.223,0,.418.197.418.418ZM372.794,62.424v.126c0,.105-.038.192-.108.251-.088.072-.208.097-.361.075-.863-.109-1.568-.163-2.15-.163-1.837,0-2.729,1.167-2.729,3.567v1.219c0,2.434.892,3.62,2.729,3.62.582,0,1.287-.055,2.155-.164.14-.023.268.002.356.075.07.059.108.147.108.251v.126c0,.248-.114.361-.409.401h-.002c-.874.105-1.679.164-2.208.164-2.336,0-3.675-1.63-3.675-4.473v-1.219c0-2.851,1.305-4.421,3.675-4.421.529,0,1.334.059,2.208.164.297.04.411.153.411.401ZM377.834,61.859c-2.464,0-3.82,1.57-3.82,4.421v1.272c0,2.851,1.356,4.421,3.82,4.421s3.82-1.57,3.82-4.421v-1.272c0-2.851-1.356-4.421-3.82-4.421ZM380.708,66.28v1.272c0,2.4-.941,3.567-2.874,3.567s-2.875-1.167-2.875-3.567v-1.272c0-2.4.942-3.567,2.875-3.567s2.874,1.167,2.874,3.567ZM388.077,66.679v.145c0,.214-.172.364-.418.364h-3.675c-.247,0-.418-.15-.418-.364v-.145c0-.224.182-.399.418-.399h3.675c.234,0,.418.175.418.399ZM396.226,69.371c0,1.703-1.112,2.602-3.219,2.602-.83,0-2.002-.13-2.653-.256-.245-.053-.457-.1-.457-.362v-.202c0-.106.037-.193.106-.252.089-.074.222-.099.38-.074,1.16.194,2.056.292,2.662.292,1.566,0,2.236-.523,2.236-1.748,0-.71-.37-1.086-1.892-1.919l-1.164-.637c-1.267-.691-2.237-1.326-2.237-2.646,0-1.469,1.041-2.31,2.855-2.31,1.225,0,1.895.078,2.485.15l.126.014c.22.031.445.064.445.382v.145c0,.156-.03.253-.099.313-.081.071-.202.073-.365.049l-.224-.025c-.537-.065-1.436-.174-2.294-.174-1.191,0-1.984.248-1.984,1.456,0,.732.582,1.19,1.728,1.829l1.218.671c1.623.902,2.347,1.505,2.347,2.702ZM393.007,71.973h0,0ZM401.923,61.859c-2.464,0-3.82,1.57-3.82,4.421v1.272c0,2.851,1.356,4.421,3.82,4.421s3.82-1.57,3.82-4.421v-1.272c0-2.851-1.356-4.421-3.82-4.421ZM404.797,66.28v1.272c0,2.4-.941,3.567-2.874,3.567s-2.874-1.167-2.874-3.567v-1.272c0-2.4.941-3.567,2.874-3.567s2.874,1.167,2.874,3.567ZM414.002,62.424v.126c0,.105-.038.192-.108.251-.088.072-.209.097-.361.075-.863-.109-1.566-.163-2.15-.163-1.837,0-2.729,1.167-2.729,3.567v1.219c0,2.434.892,3.62,2.729,3.62.584,0,1.287-.055,2.155-.164.14-.023.268.002.356.075.07.059.108.147.108.251v.126c0,.248-.114.361-.409.401-.876.105-1.681.164-2.21.164-2.336,0-3.675-1.63-3.675-4.473v-1.219c0-2.851,1.306-4.421,3.675-4.421.529,0,1.334.059,2.21.164.295.04.409.153.409.401ZM417.168,62.367v9.187c0,.223-.195.418-.418.418h-.109c-.223,0-.418-.195-.418-.418v-9.187c0-.221.195-.418.418-.418h.109c.223,0,.418.197.418.418ZM417.168,58.53v1.345c0,.231-.187.419-.418.419h-.109c-.231,0-.418-.188-.418-.419v-1.345c0-.223.195-.418.418-.418h.109c.223,0,.418.195.418.418ZM423.173,61.859c-1.214,0-1.854.076-2.595.164-.253.034-.481.09-.481.401v.107c0,.111.035.199.102.259.084.077.212.102.396.086l.262-.028c.723-.078,1.245-.135,2.316-.135,1.659,0,2.219.647,2.219,2.566v.581h-1.328c-3.202,0-4.566.86-4.566,2.874v.236c0,.903.279,3.002,2.856,3.002.931,0,1.919-.287,3.019-.878v.332c0,.242.195.437.436.437h.092c.24,0,.435-.195.435-.437v-6.147c0-1.593-.359-3.42-3.163-3.42ZM424.064,66.715h1.328v3.503c-1.211.646-2.066.901-3.038.901-1.269,0-1.91-.724-1.91-2.149v-.236c0-1.51.912-2.019,3.62-2.019ZM429.977,58.621v12.933c0,.234-.167.418-.382.418h-.183c-.212,0-.381-.184-.381-.418v-12.933c0-.234.169-.418.381-.418h.183c.215,0,.382.184.382.418ZM436.144,61.86c-2.311,0-3.747,1.693-3.747,4.42v1.2c0,2.981,1.402,4.493,4.165,4.493.782,0,1.807-.115,2.743-.312.295-.058.405-.17.405-.415v-.127c0-.135-.058-.21-.105-.249-.083-.069-.212-.092-.365-.06-.961.195-1.935.309-2.678.309-2.837,0-3.219-1.84-3.219-3.639v-.31h6.075c.231,0,.418-.187.418-.418v-.49c0-2.839-1.311-4.402-3.692-4.402ZM438.89,66.262v.037h-5.547v-.019c0-1.627.485-3.567,2.801-3.567,1.874,0,2.746,1.128,2.746,3.549Z" style="fill: #fff;"/>
  <g>
    <rect x="291.257" y="19.858" width="4.208" height="17.326" style="fill: #3169b1;"/>
    <rect x="291.257" y="37.184" width="4.208" height="17.337" style="fill: #fff;"/>
    <rect x="291.257" y="54.521" width="4.208" height="17.326" style="fill: #db0f46;"/>
  </g>
  <path d="M14.342.47h6.27l-11.396,70.808H2.955L14.342.47ZM101.884,19.674h16.263l-1.359,8.309,2.369-1.696c5.385-3.684,11.43-7.367,17.764-7.367,7.372,0,12.39,3.683,12.779,11.044.08,1.507-.144,4.438-.423,6.323l-5.529,35.017h-16.258l4.68-29.543c.209-1.414.526-4.343.466-5.474-.118-2.263-1.306-3.299-3.483-3.299-3.686,0-8.876,3.77-11.528,5.474l-2.837,1.791-5.073,31.051h-16.165l8.334-51.63ZM240.667,40.064l.022-.014.006-.031h.042l3.04-1.934c3.115-1.894,7.863-5.098,11.549-5.098,2.553,0,4.123,1.036,4.262,3.675.034.66-.074,2.177-.224,2.931l-1.26,6.605c-1.389,7.737-5.145,11.799-13.277,11.799h-1.766l-2.158,13.305h3.116c18.435,0,28.007-10.289,30.404-25.764l1.425-8.876c.282-1.79.412-4.72.326-6.323-.407-7.737-6.086-11.419-13.837-11.419-6.334,0-11.553,3.211-15.567,5.945l-4.114,2.742,1.286-7.934h-16.263l-11.179,69.373h16.246l7.921-48.982h0ZM86.82,23.079c.481-3.093-1.879-3.378-2.339-3.405h-21.786c-18.531,0-28.007,10.29-30.399,25.865l-1.43,8.774c-.282,1.792-.506,4.721-.421,6.324.409,7.744,6.181,11.421,13.932,11.421,5.332,0,9.982-2.343,13.732-4.735l2.008-12.702c-2.777,1.66-6.034,3.377-8.729,3.377-2.553,0-4.118-1.038-4.259-3.685-.034-.66.075-2.167.225-2.922l1.161-6.606c1.484-7.744,5.24-11.797,13.372-11.797h7.089l-1.923,11.771-4.271,26.543h21.668s2.2-13.293,2.2-13.293h-5.468s5.638-34.93,5.638-34.93ZM212.282,23.079c.481-3.093-1.879-3.378-2.339-3.405h-21.786c-18.531,0-28.007,10.29-30.4,25.865l-1.429,8.774c-.282,1.792-.506,4.721-.421,6.324.409,7.744,6.181,11.421,13.932,11.421,5.332,0,9.982-2.343,13.732-4.735l2.008-12.702c-2.778,1.66-6.034,3.377-8.729,3.377-2.553,0-4.118-1.038-4.259-3.685-.034-.66.075-2.167.225-2.922l1.161-6.606c1.484-7.744,5.24-11.797,13.372-11.797h7.089l-1.923,11.771-4.271,26.543h21.668s2.2-13.293,2.2-13.293h-5.468l5.638-34.93h0ZM36.786,3.443l-.156-2.973h-6.108l-7.353,25.706h4.039l8.108-17.802c1.415-2.364,1.469-4.664,1.47-4.931M206.225,82.577c0,.221-.034.476-.085.748h-3.196c.255-1.173.799-1.955,1.955-1.955.952,0,1.326.425,1.326,1.207M208.792,82.713c0-1.989-1.207-3.553-3.502-3.553-2.788,0-4.573,1.513-5.083,4.471l-.204,1.19c-.051.34-.085.663-.085.952,0,2.363,1.734,3.417,3.57,3.417,1.479,0,2.431-.136,3.57-.408.306-.068.374-.187.425-.459l.238-1.292c.034-.238-.051-.289-.323-.272-.697.051-2.227.153-3.298.153-1.088,0-1.513-.306-1.513-1.19,0-.204.034-.442.068-.697h5.457c.221,0,.374-.153.425-.408l.17-.986c.051-.306.085-.629.085-.918M194.869,81.557l-.901,5.117c-.493.068-.952.119-1.343.119-.816,0-1.36-.255-1.36-1.292,0-.238.034-.51.085-.833l.204-1.156c.221-1.207.697-2.074,1.904-2.074.646,0,1.105.068,1.411.119M197.844,79.942c0-.17-.119-.272-.459-.357-.646-.17-1.989-.425-3.536-.425-2.992,0-4.471,1.19-5.032,4.352l-.204,1.156c-.068.357-.085.68-.085.986,0,2.278,1.615,3.383,3.672,3.383.442,0,.901-.051,1.377-.153l-.034.187c-.187.986-.459,1.258-1.632,1.258-.816,0-2.465-.136-3.213-.204h-.034c-.187,0-.323.119-.357.306l-.204,1.139c0,.051-.017.085-.017.136,0,.153.085.238.272.306.578.204,1.7.459,3.162.459,2.805,0,4.301-.952,4.726-3.4l1.581-9.01c0-.051.017-.085.017-.119M183.547,81.523l-.833,4.777c-.561.323-1.224.595-1.802.595-.765,0-.969-.476-.969-1.037,0-.187.017-.374.051-.561l.306-1.785c.238-1.377.731-2.091,1.938-2.091.476,0,1.003.051,1.309.102M182.595,79.16c-2.669,0-4.505,1.258-5.015,4.216-.051.323-.272,1.598-.272,1.598-.051.323-.085.629-.085.952,0,1.7.816,3.264,2.856,3.264.901,0,1.717-.272,2.635-.986l-.068.493c-.034.221.102.34.289.34h1.734c.272,0,.357-.153.391-.34l1.496-8.602c.051-.34-.051-.408-.442-.51-1.105-.289-2.363-.425-3.519-.425M175.66,79.585c0-.17-.119-.289-.289-.289h-1.394l.323-1.802v-.051c0-.153-.102-.238-.255-.238h-.051l-2.142.357c-.204.034-.374.153-.408.34l-.238,1.394h-1.36c-.187,0-.391.17-.425.357l-.187,1.122v.051c0,.17.119.272.289.306l1.326.221-.867,4.93c-.051.323-.085.612-.085.867,0,1.479.866,2.04,2.414,2.04.493,0,.85-.051,1.377-.136.221-.034.34-.17.374-.34l.238-1.326v-.051c0-.17-.136-.238-.306-.238h-.833c-.357,0-.476-.068-.476-.323,0-.119.017-.272.051-.476l.884-4.947h1.393c.188,0,.358-.153.392-.34l.255-1.377v-.051ZM167.245,79.449c0-.17-.119-.289-.289-.289-.901,0-1.598.119-2.431.816l.068-.34v-.068c0-.153-.119-.272-.289-.272h-2.023c-.187,0-.357.153-.391.34l-1.598,9.044v.068c0,.153.119.289.289.289h2.057c.187,0,.374-.17.408-.357l1.173-6.647c.68-.34,1.462-.595,2.295-.595h.136c.153,0,.272-.17.306-.323l.289-1.615s0-.051,0-.051ZM155.447,81.523l-.833,4.777c-.561.323-1.224.595-1.802.595-.765,0-.969-.476-.969-1.037,0-.187.017-.374.051-.561l.306-1.785c.238-1.377.731-2.091,1.938-2.091.476,0,1.003.051,1.309.102M154.495,79.16c-2.669,0-4.505,1.258-5.015,4.216-.051.323-.272,1.598-.272,1.598-.051.323-.085.629-.085.952,0,1.7.816,3.264,2.856,3.264.901,0,1.717-.272,2.635-.986l-.068.493c-.034.221.102.34.289.34h1.734c.272,0,.357-.153.391-.34l1.496-8.602c.051-.34-.051-.408-.442-.51-1.105-.289-2.363-.425-3.519-.425M144.04,82.628c0,.255-.034.544-.085.884l-.221,1.326c-.289,1.683-.918,2.091-1.989,2.091-.374,0-.799-.034-1.275-.102l.935-5.304c.34-.051.85-.085,1.411-.085.918,0,1.224.408,1.224,1.19M146.794,82.594c0-2.057-1.309-3.434-3.587-3.434-1.309,0-2.669.204-3.689.442-.476.102-.561.221-.612.493l-2.108,11.917v.051c0,.17.136.289.306.289h2.057c.187,0,.357-.153.391-.34l.527-2.941c.527.068,1.037.119,1.513.119,2.584,0,4.369-1.19,4.896-4.352l.221-1.326c.051-.323.085-.629.085-.918M129.301,81.982c0-2.006-1.275-2.822-2.737-2.822-.901,0-1.887.306-2.652.884l.068-.408v-.051c0-.17-.119-.289-.289-.289h-1.853c-.187,0-.357.153-.391.34l-1.598,9.044v.051c0,.17.119.306.289.306h2.057c.187,0,.374-.17.408-.357l1.173-6.698c.374-.221,1.19-.544,1.836-.544.51,0,.918.204.918.833,0,.204-.034.459-.085.748l-.986,5.661v.068c0,.153.102.289.272.289h2.057c.187,0,.391-.17.425-.357l.986-5.661c.068-.374.102-.714.102-1.037M115.021,82.577c0,.221-.034.476-.085.748h-3.196c.255-1.173.799-1.955,1.955-1.955.952,0,1.326.425,1.326,1.207M117.588,82.713c0-1.989-1.207-3.553-3.502-3.553-2.788,0-4.573,1.513-5.083,4.471l-.204,1.19c-.051.34-.085.663-.085.952,0,2.363,1.734,3.417,3.57,3.417,1.479,0,2.431-.136,3.57-.408.306-.068.374-.187.425-.459l.238-1.292c.034-.238-.051-.289-.323-.272-.697.051-2.227.153-3.298.153-1.088,0-1.513-.306-1.513-1.19,0-.204.034-.442.068-.697h5.457c.221,0,.374-.153.425-.408l.17-.986c.051-.306.085-.629.085-.918M97.851,82.577c0,.221-.034.476-.085.748h-3.196c.255-1.173.799-1.955,1.955-1.955.952,0,1.326.425,1.326,1.207M100.418,82.713c0-1.989-1.207-3.553-3.502-3.553-2.788,0-4.573,1.513-5.083,4.471l-.204,1.19c-.051.34-.085.663-.085.952,0,2.363,1.734,3.417,3.57,3.417,1.479,0,2.431-.136,3.57-.408.306-.068.374-.187.425-.459l.238-1.292c.034-.238-.051-.289-.323-.272-.697.051-2.227.153-3.298.153-1.088,0-1.513-.306-1.513-1.19,0-.204.034-.442.068-.697h5.457c.221,0,.374-.153.425-.408l.17-.986c.051-.306.085-.629.085-.918M89.266,79.857c0-.153-.085-.255-.255-.306-.833-.221-1.768-.391-2.958-.391-2.04,0-3.978.68-3.978,3.06,0,.748.34,1.53,1.105,2.023l1.989,1.275c.374.238.51.459.51.68,0,.714-.544.765-1.122.765-.748,0-1.955-.119-2.856-.238h-.051c-.204,0-.357.119-.391.323l-.255,1.377v.085c0,.153.085.255.255.306.833.238,2.091.374,3.026.374,2.193,0,4.199-.867,4.199-3.332,0-.663-.289-1.428-1.343-2.108l-1.887-1.207c-.272-.17-.408-.323-.408-.527,0-.578.493-.595.935-.595h.068c.867,0,2.312.153,2.788.221h.051c.187,0,.306-.136.34-.323l.238-1.377v-.085ZM78.964,79.296h-2.074c-.187,0-.357.153-.391.34l-1.598,9.061c-.034.204.068.34.272.34h2.074c.289,0,.374-.153.408-.34l1.598-9.061c.034-.238-.102-.34-.289-.34M77.009,78.191h2.21c.272,0,.374-.153.408-.34l.272-1.581c.051-.255-.068-.34-.272-.34h-2.21c-.272,0-.374.153-.408.34l-.272,1.581c-.034.204.068.34.272.34M73.422,79.585c0-.17-.119-.289-.289-.289h-1.394l.323-1.802v-.051c0-.153-.102-.238-.255-.238h-.051l-2.142.357c-.204.034-.374.153-.408.34l-.238,1.394h-1.36c-.187,0-.391.17-.425.357l-.187,1.122v.051c0,.17.119.272.289.306l1.326.221-.867,4.93c-.051.323-.085.612-.085.867,0,1.479.867,2.04,2.414,2.04.493,0,.85-.051,1.377-.136.221-.034.34-.17.374-.34l.238-1.326v-.051c0-.17-.136-.238-.306-.238h-.833c-.357,0-.476-.068-.476-.323,0-.119.017-.272.051-.476l.884-4.947h1.394c.187,0,.357-.153.391-.34l.255-1.377s0-.051,0-.051ZM65.007,79.449c0-.17-.119-.289-.289-.289-.901,0-1.598.119-2.431.816l.068-.34v-.068c0-.153-.119-.272-.289-.272h-2.023c-.187,0-.357.153-.391.34l-1.598,9.044v.068c0,.153.119.289.289.289h2.057c.187,0,.374-.17.408-.357l1.173-6.647c.68-.34,1.462-.595,2.295-.595h.136c.153,0,.272-.17.306-.323l.289-1.615s0-.051,0-.051ZM53.227,82.577c0,.221-.034.476-.085.748h-3.196c.255-1.173.799-1.955,1.955-1.955.952,0,1.326.425,1.326,1.207M55.794,82.713c0-1.989-1.207-3.553-3.502-3.553-2.788,0-4.573,1.513-5.083,4.471l-.204,1.19c-.051.34-.085.663-.085.952,0,2.363,1.734,3.417,3.57,3.417,1.479,0,2.431-.136,3.57-.408.306-.068.374-.187.425-.459l.238-1.292c.034-.238-.051-.289-.323-.272-.697.051-2.227.153-3.298.153-1.088,0-1.513-.306-1.513-1.19,0-.204.034-.442.068-.697h5.457c.221,0,.374-.153.425-.408l.17-.986c.051-.306.085-.629.085-.918M41.65,82.628c0,.255-.034.544-.085.884l-.221,1.326c-.289,1.683-.918,2.091-1.989,2.091-.374,0-.799-.034-1.275-.102l.935-5.304c.34-.051.85-.085,1.411-.085.918,0,1.224.408,1.224,1.19M44.404,82.594c0-2.057-1.309-3.434-3.587-3.434-1.309,0-2.669.204-3.689.442-.476.102-.561.221-.612.493l-2.108,11.917v.051c0,.17.136.289.306.289h2.057c.187,0,.357-.153.391-.34l.527-2.941c.527.068,1.037.119,1.513.119,2.584,0,4.369-1.19,4.896-4.352l.221-1.326c.051-.323.085-.629.085-.918M33.235,79.466c0-.085-.068-.17-.17-.17h-2.278c-.187,0-.306.102-.51.357l-1.802,2.346-1.105-2.346c-.102-.221-.17-.357-.357-.357h-2.431c-.136,0-.221.119-.221.238,0,.051.017.085.034.119l2.142,4.318-3.808,4.726c-.051.068-.068.119-.068.187,0,.085.051.153.153.153h2.278c.187,0,.306-.085.51-.34l2.04-2.652,1.224,2.635c.119.255.17.357.357.357h2.431c.136,0,.221-.119.221-.255,0-.034,0-.068-.017-.102l-2.278-4.573,3.587-4.454c.051-.051.068-.119.068-.187M18.632,82.577c0,.221-.034.476-.085.748h-3.196c.255-1.173.799-1.955,1.955-1.955.952,0,1.326.425,1.326,1.207M21.199,82.713c0-1.989-1.207-3.553-3.502-3.553-2.788,0-4.573,1.513-5.083,4.471l-.204,1.19c-.051.34-.085.663-.085.952,0,2.363,1.734,3.417,3.57,3.417,1.479,0,2.431-.136,3.57-.408.306-.068.374-.187.425-.459l.238-1.292c.034-.238-.051-.289-.323-.272-.697.051-2.227.153-3.298.153-1.088,0-1.513-.306-1.513-1.19,0-.204.034-.442.068-.697h5.457c.221,0,.374-.153.425-.408l.17-.986c.051-.306.085-.629.085-.918M11.322,76.134c0-.085-.051-.136-.17-.136h-2.023c-.17,0-.289.085-.391.323l-1.581,3.723c-.034.085-.051.153-.051.204,0,.068.034.119.136.119h1.717c.17,0,.255-.102.374-.323l1.938-3.723c.034-.068.051-.136.051-.187M4.93,76.27c0-.153-.102-.272-.272-.272h-2.074c-.187,0-.374.153-.408.34l-2.176,12.342v.051c0,.17.119.306.289.306h2.074c.187,0,.357-.17.391-.357l2.176-12.342s0-.068,0-.068Z" style="fill: #fff;"/>
</svg>