<?xml version="1.0" standalone="no"?>
<!DOCTYPE svg PUBLIC "-//W3C//DTD SVG 1.1//EN" "http://www.w3.org/Graphics/SVG/1.1/DTD/svg11.dtd" >
<svg xmlns="http://www.w3.org/2000/svg" xmlns:xlink="http://www.w3.org/1999/xlink" version="1.1">
<metadata>
Created by FontForge 20200427 at Thu Oct 23 21:30:10 2014
 By www
Copyright (c) 2013 by Vicente Lamonaca. All rights reserved.
</metadata>
<defs>
<font id="AryaW00-Triple" horiz-adv-x="296" >
  <font-face 
    font-family="AryaW00-Triple"
    font-weight="400"
    font-stretch="normal"
    units-per-em="1000"
    panose-1="2 0 5 3 4 0 0 2 0 4"
    ascent="800"
    descent="-200"
    x-height="705"
    cap-height="705"
    bbox="-76 -270 1134 971"
    underline-thickness="50"
    underline-position="-125"
    unicode-range="U+0020-2212"
  />
<missing-glyph 
 />
    <glyph glyph-name=".notdef" 
 />
    <glyph glyph-name=".null" horiz-adv-x="0" 
 />
    <glyph glyph-name="nonmarkingreturn" horiz-adv-x="333" 
 />
    <glyph glyph-name="space" unicode=" " 
 />
    <glyph glyph-name="exclam" unicode="!" horiz-adv-x="444" 
d="M128 82q0 41 28 69.5t69 28.5t69.5 -28.5t28.5 -69.5t-28.5 -69t-69.5 -28t-69 28t-28 69zM158 82q0 -29 19 -48t48 -19t48.5 19t19.5 48t-19.5 48.5t-48.5 19.5t-48 -19.5t-19 -48.5zM188 81q0 16 10.5 27t26.5 11t27 -11t11 -27t-11 -26.5t-27 -10.5t-26.5 10.5
t-10.5 26.5zM213 81q0 -12 12 -12t12 12t-12 12t-12 -12zM150 705h30v-465h-30v465zM210 705h30v-465h-30v465zM270 705h30v-465h-30v465z" />
    <glyph glyph-name="quotedbl" unicode="&#x22;" horiz-adv-x="520" 
d="M75 705h30v-285h-30v285zM135 705h30v-285h-30v285zM195 705h30v-285h-30v285zM305 705h30v-285h-30v285zM365 705h30v-285h-30v285zM425 705h30v-285h-30v285z" />
    <glyph glyph-name="numbersign" unicode="#" horiz-adv-x="592" 
d="M330 195h-105l-25 -195h-31l90 705h31l-25 -195h105l25 195h31l-91 -705h-30zM518 195h-97l-25 -195h-31l90 705h31l-25 -195h87v-30h-90l-4 -30h94v-30h-98l-17 -135h85v-30h-89l-4 -30h93v-30zM75 510h99l25 195h31l-91 -705h-30l25 195h-89v30h93l4 30h-97v30h101
l17 135h-88v30h92l4 30h-96v30zM237 285h105l17 135h-105zM229 225h105l4 30h-105zM258 450h105l4 30h-105z" />
    <glyph glyph-name="dollar" unicode="$" horiz-adv-x="574" 
d="M158 171q11 -10 29.5 -18.5t41.5 -13.5v150l-36 11q-34 8 -60 28t-44 47t-27.5 59t-9.5 65q0 42 14 77.5t38 63t56 46t69 26.5v68h30v-63q7 1 13.5 1.5t13.5 0.5h3v61h30v-63q50 -6 91 -27.5t68 -51.5l-23 -20q-31 32 -73 51.5t-96 19.5q-41 0 -77.5 -14t-65 -39t-45 -60
t-16.5 -78q0 -29 8 -56.5t24 -50.5t38 -40.5t51 -25.5l126 -33q30 -8 46 -34.5t16 -55.5q0 -22 -10 -40t-27.5 -30.5t-41 -19.5t-50.5 -7q-40 0 -75 13.5t-55 33.5zM229 -12q-60 6 -110 30t-80 60l24 20q35 -35 86 -58.5t111 -23.5q44 0 84.5 13.5t71 38.5t48.5 60t18 77
q0 28 -8.5 55.5t-24 51t-38.5 41t-51 26.5l-125 33q-3 0 -4 1h-2q-28 10 -42.5 35t-14.5 53q0 22 9 40.5t24.5 31t36.5 19.5t44 7q30 0 57.5 -11.5t44.5 -29.5l-26 -17q-7 7 -18 13t-25 10v-145l52 -15q34 -8 60 -28t44 -47t27.5 -59.5t9.5 -65.5q0 -42 -15 -77.5t-41.5 -63
t-61.5 -46t-75 -26.5v-66h-30v62q-7 -1 -13.5 -1h-12.5h-4v-61h-30v63zM109 135q24 -26 64.5 -42.5t85.5 -16.5q33 0 62 9t51.5 25t35.5 39t13 52q0 19 -5.5 38t-16 35.5t-26 29t-34.5 17.5l-125 33q-24 6 -43 21t-32 35t-20 44t-7 48q0 35 14 64t38 49.5t55 32t66 11.5
q46 0 84 -17.5t61 -42.5l-22 -19q-20 20 -51 34.5t-69 14.5q-29 0 -55 -9t-46 -25.5t-32 -40t-12 -52.5q0 -38 21.5 -73t60.5 -46l125 -33q50 -14 75.5 -57t25.5 -93q0 -35 -15.5 -63.5t-42 -48.5t-61 -31t-72.5 -11q-54 0 -100 20.5t-72 47.5zM259 136q8 0 15 0.5t15 1.5
v134l-30 9v-145zM285 569q-14 0 -26 -3v-130l30 -9v142h-4zM361 205q0 20 -11.5 36.5t-30.5 21.5v-116q20 9 31 23.5t11 34.5zM202 498q0 -16 7 -30t20 -22v106q-27 -19 -27 -54z" />
    <glyph glyph-name="percent" unicode="%" horiz-adv-x="907" 
d="M212 16l401 719l26 -15l-402 -719zM264 -15l401 720l26 -13l-401 -722zM7 525q0 40 15.5 76t41.5 62t61.5 41.5t76.5 15.5q40 0 76 -15.5t62 -41.5t41.5 -62t15.5 -76q0 -41 -15.5 -76.5t-41.5 -61.5t-62 -41.5t-76 -15.5q-41 0 -76.5 15.5t-61.5 41.5t-41.5 61.5
t-15.5 76.5zM37 525q0 -34 13 -64t35.5 -52.5t52.5 -35.5t64 -13t64 13t52.5 35.5t35.5 52.5t13 64t-13 64t-35.5 52.5t-52.5 35.5t-64 13t-64 -13t-52.5 -35.5t-35.5 -52.5t-13 -64zM67 525q0 28 10.5 52.5t29 43t43 29t52.5 10.5t52.5 -10.5t43 -29t29 -43t10.5 -52.5
t-10.5 -52.5t-29 -43t-43 -29t-52.5 -10.5t-52.5 10.5t-43 29t-29 43t-10.5 52.5zM97 525q0 -22 8 -41t22.5 -33.5t33.5 -22.5t41 -8t41 8t33 22.5t22.5 33.5t8.5 41t-8.5 41t-22.5 33t-33 22.5t-41 8.5t-41 -8.5t-33.5 -22.5t-22.5 -33t-8 -41zM510 180q0 40 15.5 76
t41.5 62t61.5 41.5t76.5 15.5q40 0 76 -15.5t62 -41.5t41.5 -62t15.5 -76q0 -41 -15.5 -76.5t-41.5 -61.5t-62 -41.5t-76 -15.5q-41 0 -76.5 15.5t-61.5 41.5t-41.5 61.5t-15.5 76.5zM540 180q0 -34 13 -64t35.5 -52.5t52.5 -35.5t64 -13t64 13t52.5 35.5t35.5 52.5t13 64
t-13 64t-35.5 52.5t-52.5 35.5t-64 13t-64 -13t-52.5 -35.5t-35.5 -52.5t-13 -64zM570 180q0 28 10.5 52.5t29 43t43 29t52.5 10.5t52.5 -10.5t43 -29t29 -43t10.5 -52.5t-10.5 -52.5t-29 -43t-43 -29t-52.5 -10.5t-52.5 10.5t-43 29t-29 43t-10.5 52.5zM600 180
q0 -22 8 -41t22.5 -33.5t33.5 -22.5t41 -8t41 8t33 22.5t22.5 33.5t8.5 41t-8.5 41t-22.5 33t-33 22.5t-41 8.5t-41 -8.5t-33.5 -22.5t-22.5 -33t-8 -41z" />
    <glyph glyph-name="ampersand" unicode="&#x26;" horiz-adv-x="525" 
d="M105 345q0 28 10.5 52.5t29 43t43 29t52.5 10.5q22 0 41 8t33 22.5t22.5 33.5t8.5 41t-8.5 41t-22.5 33t-33 22.5t-41 8.5t-41 -8.5t-33.5 -22.5t-22.5 -33t-8 -41h-30q0 28 10.5 52.5t29 43t43 29t52.5 10.5t52.5 -10.5t43 -29t29 -43t10.5 -52.5t-10.5 -52.5t-29 -43
t-43 -29t-52.5 -10.5q-22 0 -41 -8.5t-33.5 -22.5t-22.5 -33t-8 -41v-225q0 -22 8 -41t22.5 -33.5t33.5 -22.5t41 -8t41 8t33 22.5t22.5 33.5t8.5 41v225q0 28 10.5 52.5t29 43t43 29t52.5 10.5v-30q-22 0 -41 -8.5t-33.5 -22.5t-22.5 -33t-8 -41v-230q2 -42 32 -71t73 -29
v-30q-40 0 -71.5 20t-48.5 52q-17 -32 -49 -52t-71 -20q-28 0 -52.5 10.5t-43 29t-29 43t-10.5 52.5v225zM270 120h-105v225h150v-225h-30v195h-90v-60h60v-30h-60v-75h75v-30zM510 315h-75v-195h-30v225h105v-30zM75 120h-30v225h30v-225z" />
    <glyph glyph-name="quotesingle" unicode="'" 
d="M75 705h30v-285h-30v285zM135 705h30v-285h-30v285zM195 705h30v-285h-30v285z" />
    <glyph glyph-name="parenleft" unicode="(" horiz-adv-x="314" 
d="M154 -166q-58 108 -86 220.5t-28 230.5q0 241 116 457l28 -13q-54 -106 -84 -217t-30 -227q0 -115 29.5 -224.5t82.5 -214.5zM209 -139q-51 102 -80 207.5t-29 216.5q0 226 110 428l28 -14q-51 -100 -79.5 -202.5t-28.5 -211.5q0 -107 26 -209.5t80 -200.5zM263 -110
q-53 95 -78 193.5t-25 201.5t25 200.5t77 191.5l28 -11q-51 -91 -75.5 -186t-24.5 -195q0 -99 24.5 -194t75.5 -186z" />
    <glyph glyph-name="parenright" unicode=")" horiz-adv-x="314" 
d="M148 -154q53 105 82.5 214.5t29.5 224.5q0 116 -30 227t-84 217l28 13q116 -216 116 -457q0 -118 -28 -230.5t-86 -220.5zM94 -125q54 98 80 200.5t26 209.5q0 109 -28.5 211.5t-79.5 202.5l28 14q110 -202 110 -428q0 -111 -29 -216.5t-80 -207.5zM40 -95
q51 91 75.5 186t24.5 194q0 100 -24.5 195t-75.5 186l28 11q52 -94 77 -191.5t25 -200.5t-25 -201.5t-78 -193.5z" />
    <glyph glyph-name="asterisk" unicode="*" horiz-adv-x="482" 
d="M255 705h30v-152l147 40l7 -30l-184 -49v191zM41 564l8 29l146 -40v152h30v-191zM348 315l-24 -17l-84 120l-84 -121l-25 18l109 156zM446 535l8 -29l-142 -38l85 -120l-25 -17l-109 155zM108 332l-25 17l84 119l-142 38l9 29l182 -49z" />
    <glyph glyph-name="plus" unicode="+" horiz-adv-x="666" 
d="M60 255h555v-30h-202v-195h-30v195h-30v-195h-30v195h-30v-195h-30v195h-203v30zM60 375h203v194h30v-194h30v194h30v-194h30v194h30v-194h202v-30h-555v30zM60 315h555v-30h-555v30z" />
    <glyph glyph-name="comma" unicode="," 
d="M17 -120l74 285h31l-74 -285h-31zM79 -120l74 285h31l-74 -285h-31zM141 -120l74 285h31l-74 -285h-31z" />
    <glyph glyph-name="hyphen" unicode="-" 
d="M30 330h240v-30h-240v30zM30 270h240v-30h-240v30zM30 210h240v-30h-240v30z" />
    <glyph glyph-name="period" unicode="." 
d="M50 82q0 41 28 69.5t69 28.5t69.5 -28.5t28.5 -69.5t-28.5 -69t-69.5 -28t-69 28t-28 69zM80 82q0 -29 19 -48t48 -19t48.5 19t19.5 48t-19.5 48.5t-48.5 19.5t-48 -19.5t-19 -48.5zM110 81q0 16 10.5 27t26.5 11t27 -11t11 -27t-11 -26.5t-27 -10.5t-26.5 10.5
t-10.5 26.5zM135 81q0 -12 12 -12t12 12t-12 12t-12 -12z" />
    <glyph glyph-name="slash" unicode="/" horiz-adv-x="407" 
d="M-3 -18l271 792l28 -10l-271 -792zM54 -38l271 792l28 -8l-271 -794zM111 -56l271 792l28 -10l-271 -792z" />
    <glyph glyph-name="zero" unicode="0" horiz-adv-x="592" 
d="M33 352q0 76 21 143t57 117t84.5 79t104.5 29q55 0 104 -29t85.5 -79t57.5 -117t21 -143t-21 -143t-57.5 -116.5t-85.5 -78.5t-104 -29q-56 0 -104.5 29t-84.5 78.5t-57 116.5t-21 143zM63 352q0 -70 18.5 -131.5t50.5 -107t75 -72t93 -26.5q49 0 92.5 26.5t76 72t51 107
t18.5 131.5t-18.5 131.5t-51 107.5t-76 72.5t-92.5 26.5q-50 0 -93 -26.5t-75 -72.5t-50.5 -107.5t-18.5 -131.5zM93 352q0 64 16 120t44 98t66 66t81 24t81 -24t66 -66t44.5 -98t16.5 -120t-16.5 -120t-44.5 -97.5t-66 -65.5t-81 -24t-81 24t-66 65.5t-44 97.5t-16 120z
M123 352q0 -57 14 -107.5t38 -88t56 -59.5t69 -22t69.5 22t56.5 59.5t38 88t14 107.5t-14 108t-38 88.5t-56.5 59.5t-69.5 22t-69 -22t-56 -59.5t-38 -88.5t-14 -108zM153 352q0 51 11.5 96.5t31.5 79t46.5 53t57.5 19.5t58 -19.5t47 -53t31.5 -79t11.5 -96.5t-11.5 -96
t-31.5 -78.5t-47 -53t-58 -19.5t-57.5 19.5t-46.5 53t-31.5 78.5t-11.5 96zM182 352q0 -45 9 -84.5t25 -69t37.5 -46.5t45.5 -17t45.5 17t37.5 46.5t25.5 69t9.5 84.5t-9.5 84.5t-25.5 69.5t-37.5 47t-45.5 17t-45.5 -17t-37.5 -47t-25 -69.5t-9 -84.5z" />
    <glyph glyph-name="one" unicode="1" horiz-adv-x="592" 
d="M62 511l223 194h30v-705h-30v507l-125 -109l-19 22l144 125v41l-164 -143l-20 23l184 160v38l-203 -176zM405 705h30v-705h-30v705zM345 705h30v-705h-30v705z" />
    <glyph glyph-name="two" unicode="2" horiz-adv-x="592" 
d="M165 0q0 59 32 113t79.5 104t101 97t96.5 92q17 18 22.5 44t5.5 52q0 39 -16 73t-44 59.5t-66 40.5t-81 15q-44 0 -81.5 -15t-66 -40.5t-44.5 -59.5t-16 -73h-30q0 45 19 84.5t51.5 69.5t76 47t91.5 17q49 0 92.5 -17t75.5 -47t50.5 -69.5t18.5 -84.5q0 -30 -6 -59.5
t-26 -49.5q-25 -26 -56.5 -54.5t-64.5 -59.5t-65 -63.5t-57 -65.5h283v-30h-304q-5 -8 -9 -15t-8 -15h321v-30h-334q-3 -8 -4.5 -15t-3.5 -15h342v-30h-375zM105 0q0 44 15 84.5t40 78t57.5 73.5t67.5 69.5t70.5 66t65.5 64.5q12 13 16.5 30.5t4.5 35.5q0 27 -11.5 50
t-31 40.5t-46.5 27.5t-58 10t-58 -10t-47 -27.5t-31.5 -40.5t-11.5 -50h-30q0 33 14.5 61.5t38.5 50t56.5 34t68.5 12.5q37 0 69.5 -12.5t56.5 -34t37.5 -50t13.5 -61.5q0 -22 -5 -43.5t-20 -37.5q-39 -41 -92.5 -88t-102.5 -100t-83 -111.5t-34 -121.5h-30zM45 0
q0 73 32.5 136t81.5 119.5t105.5 108t104.5 101.5q11 11 12 20t1 17q0 29 -24.5 48.5t-62.5 19.5t-63 -19.5t-25 -48.5h-30q0 20 9.5 38t26 31.5t37.5 21t45 7.5q25 0 46 -7.5t37 -21t25 -31.5t9 -38q0 -14 -3.5 -27.5t-13.5 -23.5q-27 -28 -61 -59t-69.5 -66t-69.5 -72.5
t-60.5 -78.5t-43 -85t-16.5 -90h-30z" />
    <glyph glyph-name="three" unicode="3" horiz-adv-x="592" 
d="M492 502q0 39 -14.5 73t-40 59.5t-59.5 40.5t-73 15q-63 0 -112 -29t-75 -76l-26 14q30 54 87 87.5t126 33.5q45 0 84.5 -17t69 -47t46.5 -69.5t17 -84.5q0 -41 -14 -77t-37 -65q29 -29 45 -65.5t16 -78.5q0 -47 -18.5 -89t-50.5 -73.5t-75.5 -50t-92.5 -18.5
q-64 0 -118 29.5t-86 77.5l25 16q29 -43 75.5 -68t103.5 -25q43 0 81 16t66 43.5t44 64t16 77.5q0 38 -16 72t-43.5 59.5t-64.5 40.5t-80 16h-4h-69v30h69h6q31 2 51.5 21.5t20.5 46.5q0 29 -19 48.5t-48 19.5q-23 0 -42 -8t-31 -22l-28 12q16 22 42.5 35t58.5 13
q41 0 69 -28.5t28 -69.5q0 -23 -11.5 -43t-30.5 -34q18 -6 36 -13q17 17 26.5 40.5t9.5 49.5q0 27 -10 50t-27 40.5t-40 27.5t-50 10q-43 0 -77 -18t-53 -48l-26 13q23 38 64.5 60.5t91.5 22.5q33 0 61.5 -12.5t49.5 -34t33.5 -50t12.5 -61.5q0 -30 -10.5 -56.5t-27.5 -47.5
l25 -18q20 24 31.5 55.5t11.5 66.5zM472 216q0 -35 -13.5 -66t-37.5 -54.5t-56.5 -37t-69.5 -13.5q-48 0 -88.5 21t-64.5 56l24 17q19 -29 53 -46.5t76 -17.5q31 0 58 11t46.5 30.5t31 45t11.5 54.5q0 27 -11.5 50t-31.5 40.5t-47 27.5t-58 10h-69v30h69q36 0 68.5 -12.5
t56.5 -34t38.5 -50.5t14.5 -61zM412 216q0 -23 -9 -43t-25 -35t-37 -24t-46 -9q-32 0 -59 13.5t-43 36.5l26 14q11 -15 31 -24.5t45 -9.5q38 0 62.5 24t24.5 57q0 29 -25 48.5t-63 19.5h-69v30h69q24 0 45 -8t37.5 -21.5t26 -31t9.5 -37.5z" />
    <glyph glyph-name="four" unicode="4" horiz-adv-x="592" 
d="M30 300l285 405h45v-705h-30v150h-300v30h300v30h-300v30h300v30h-300v30zM450 705h30v-405h90v-30h-90v-30h90v-30h-90v-30h90v-30h-90v-150h-30v705zM390 705h30v-705h-30v705zM102 300l228 324v54l-266 -378h38zM330 300v168l-119 -168h119zM176 300l154 219v53
l-190 -272h36z" />
    <glyph glyph-name="five" unicode="5" horiz-adv-x="592" 
d="M532 216q0 -47 -18.5 -89t-50.5 -73.5t-75.5 -50t-92.5 -18.5q-48 0 -91.5 17t-76 47t-51.5 69.5t-19 84.5h30q0 -39 16 -73.5t44.5 -60t66 -40t81.5 -14.5q43 0 81 16t66 43.5t44 64t16 77.5q0 39 -16 73t-44.5 59.5t-66.5 40.5t-81 15l-65 1l-1 -30l66 -1
q36 0 68.5 -12.5t56.5 -34t38.5 -50.5t14.5 -61q0 -35 -13.5 -66t-37.5 -54.5t-56.5 -37t-69.5 -13.5q-36 0 -68.5 12.5t-56.5 34t-38.5 50t-14.5 61.5h30q0 -27 11.5 -50t31.5 -40.5t47 -27.5t58 -10t58 11t46.5 30.5t31 45t11.5 54.5q0 27 -11.5 50t-31.5 40.5t-47 27.5
t-58 10l-67 1l-1 -30l68 -1q24 0 45 -8t37.5 -21.5t26 -31t9.5 -37.5q0 -23 -9 -43t-25 -35t-37 -24t-46 -9q-24 0 -45 7.5t-37.5 21t-26 31.5t-9.5 38h30q0 -29 25 -48.5t63 -19.5t62.5 24t24.5 57q0 29 -25 48.5t-63 19.5l-69 1h-30l15 420h300v-30h-272l-1 -30h273v-30
h-274l-1 -30h275v-30h-276l-4 -120l64 -1q48 0 91.5 -17.5t76 -47t51.5 -69t19 -84.5zM150 705h30l-15 -420h-30zM90 705h30l-15 -420h-30z" />
    <glyph glyph-name="six" unicode="6" horiz-adv-x="592" 
d="M421 705h37l-146 -241q49 -4 92.5 -24.5t76 -52.5t51 -73.5t18.5 -88.5q0 -50 -21 -93.5t-56.5 -76t-82.5 -51.5t-100 -19q-54 0 -101.5 19t-82.5 51.5t-55.5 76t-20.5 93.5q0 35 11.5 66.5t28.5 60.5l206 353h37l-217 -367q-15 -26 -25.5 -53.5t-10.5 -59.5
q0 -44 18 -82t49 -66.5t73 -45t90 -16.5t90 16.5t73 45t49 66.5t18 82q0 43 -18 80.5t-48.5 66t-71.5 45.5t-87 18l-18 -30h13q41 0 77.5 -14t63.5 -38.5t43 -57.5t16 -70t-16 -70t-43.5 -57.5t-64 -38.5t-76.5 -14q-42 0 -78.5 14t-63.5 38.5t-42.5 57.5t-15.5 70
q0 26 8.5 49.5t21.5 45.5l229 385h37l-242 -399q-14 -22 -19 -41.5t-5 -39.5q0 -31 13 -58.5t36 -47.5t54 -32t67 -12t67 12t54 32t36 47.5t13 58.5t-13.5 58.5t-37 47.5t-54.5 32t-65 12q-17 0 -33 -3l-22 -36q25 9 55 9q28 0 53.5 -9.5t45 -26t30.5 -38t11 -46.5
t-11.5 -46.5t-30.5 -38t-44.5 -26t-53.5 -9.5q-29 0 -54.5 9.5t-44.5 26t-30 38t-11 46.5q0 18 6.5 34t15.5 31zM290 315q-26 0 -49.5 -8.5t-41.5 -30.5q-19 -22 -19 -51q0 -38 31.5 -64t78.5 -26t78.5 26t31.5 64q0 19 -9 35.5t-24 28.5t-35 19t-42 7z" />
    <glyph glyph-name="seven" unicode="7" horiz-adv-x="465" 
d="M127 0l227 555h-33l-228 -555h-33l226 555h-256v30h435v-15l-234 -570h-35l227 555h-33l-228 -555h-35zM30 705h435v-30h-435v30zM30 645h435v-30h-435v30z" />
    <glyph glyph-name="eight" unicode="8" horiz-adv-x="592" 
d="M540 200q-1 -48 -22.5 -88t-57 -68.5t-80.5 -44t-93 -14.5q-45 1 -89 16t-78.5 43.5t-56 69.5t-20.5 94q1 42 17 81t51 73q-47 61 -45 143q1 47 20.5 86.5t52.5 68.5t76.5 45t90.5 15t88.5 -17.5t72 -45.5t48 -70t16.5 -90q-1 -39 -13 -75.5t-37 -64.5q29 -32 44.5 -72.5
t14.5 -84.5zM389 410l11 -3q20 17 29.5 41t10.5 50q0 28 -10 51.5t-28 40.5t-43 27.5t-54 11.5q-26 0 -52.5 -8t-47.5 -24t-35 -40t-14 -54q0 -20 5.5 -39.5t17 -37t28 -30t37.5 -16.5l127 -27q24 -4 44.5 -19t35 -36t22.5 -46.5t7 -50.5q0 -34 -18 -63t-46 -49.5t-61.5 -32
t-66.5 -11.5q-33 1 -66.5 11t-59.5 30t-42 50t-16 71q1 33 13.5 63.5t36.5 50.5l-22 19q-28 -24 -43 -59t-16 -73q-1 -44 17.5 -79t48.5 -60t68.5 -39t79.5 -15q39 -1 78.5 11.5t71 36.5t51.5 58.5t21 78.5q1 31 -7.5 60t-25 53.5t-41 43t-56.5 28.5l-126 24q-32 8 -50.5 35
t-17.5 59q0 23 10.5 41t27.5 30.5t38 18.5t43 6q21 -1 40 -8t34 -20t24 -31t9 -41q-1 -27 -13 -50.5t-31 -33.5zM421 202q0 -23 -13.5 -41.5t-33.5 -31t-43 -18.5t-42 -6q-26 0 -48.5 6t-40 18t-27 31t-9.5 46q1 25 12.5 49.5t42.5 40.5l-2 1q-16 3 -31 9q-23 -17 -37 -43.5
t-15 -55.5q0 -31 12 -55.5t33 -41t49 -25.5t60 -10q25 0 53.5 8t52.5 24t40 39.5t16 54.5q0 20 -5.5 40t-17 37t-27.5 29t-37 17l-128 27q-26 5 -46.5 20t-34.5 36t-21.5 46t-6.5 51q1 33 15.5 61.5t39 49.5t56.5 33t68 11t67 -13t53 -33.5t34 -50.5t12 -64
q-1 -29 -10.5 -56t-27.5 -48q15 -8 25 -17q20 24 31 55.5t12 64.5q1 44 -14 79t-41.5 60t-62.5 38.5t-77 14.5q-39 1 -76.5 -11.5t-67 -36.5t-47.5 -59t-19 -78q-1 -30 7.5 -59.5t25 -54.5t41 -43t56.5 -25l127 -27q30 -7 49.5 -34.5t18.5 -58.5zM256 288q-35 -17 -48 -39.5
t-14 -42.5q0 -33 27.5 -51.5t67.5 -19.5q14 0 31.5 4t32.5 12t25.5 21t10.5 30q1 22 -9.5 39.5t-34.5 25.5zM216 502q-1 -20 9.5 -38.5t33.5 -24.5l67 -16q22 11 38 30t17 47q0 32 -21.5 50t-55.5 19q-17 0 -33 -4.5t-28 -13.5t-19.5 -21.5t-7.5 -27.5z" />
    <glyph glyph-name="nine" unicode="9" horiz-adv-x="592" 
d="M168 0h-37l146 241q-50 4 -93 24.5t-75.5 52.5t-51 73.5t-18.5 88.5q0 49 21 93t56.5 76.5t82.5 51.5t100 19q54 0 101.5 -19t82.5 -51.5t55.5 -76.5t20.5 -93q0 -35 -11.5 -66.5t-28.5 -60.5l-206 -353h-37l217 367q15 26 25.5 53.5t10.5 59.5q0 43 -18 81.5t-49 67
t-73 45t-90 16.5t-90 -16.5t-73 -45t-49 -67t-18 -81.5t18 -80.5t48.5 -66t71.5 -45.5t87 -18l18 30h-13q-41 0 -77.5 14t-63.5 38.5t-43 57.5t-16 70t16 70t43.5 57.5t63.5 38.5t77 14q42 0 78.5 -14t63.5 -38.5t42.5 -57.5t15.5 -70q0 -26 -8.5 -49.5t-21.5 -45.5
l-229 -385h-37l242 399q14 22 19 41.5t5 39.5q0 31 -13 58.5t-36 47.5t-54 32t-67 12t-67 -12t-54 -32t-36 -47.5t-13 -58.5t13.5 -58.5t37 -47.5t54 -32t65.5 -12q16 0 33 3l22 36q-26 -9 -55 -9t-54 9.5t-44.5 26t-30.5 38t-11 46.5t11.5 46.5t30.5 38t44.5 26t53.5 9.5
q29 0 54.5 -9.5t44.5 -26t30 -38t11 -46.5q0 -18 -6.5 -34t-15.5 -31zM299 390q26 0 49.5 8.5t41.5 30.5q19 22 19 51q0 38 -31.5 64t-78.5 26t-78.5 -26t-31.5 -64q0 -19 9 -35.5t24 -28.5t35 -19t42 -7z" />
    <glyph glyph-name="colon" unicode=":" 
d="M50 82q0 41 28 69.5t69 28.5t69.5 -28.5t28.5 -69.5t-28.5 -69t-69.5 -28t-69 28t-28 69zM80 82q0 -29 19 -48t48 -19t48.5 19t19.5 48t-19.5 48.5t-48.5 19.5t-48 -19.5t-19 -48.5zM110 81q0 16 10.5 27t26.5 11t27 -11t11 -27t-11 -26.5t-27 -10.5t-26.5 10.5
t-10.5 26.5zM135 81q0 -12 12 -12t12 12t-12 12t-12 -12zM50 397q0 41 28 69.5t69 28.5t69.5 -28.5t28.5 -69.5t-28.5 -69t-69.5 -28t-69 28t-28 69zM80 397q0 -29 19 -48t48 -19t48.5 19t19.5 48t-19.5 48.5t-48.5 19.5t-48 -19.5t-19 -48.5zM110 396q0 16 10.5 27t26.5 11
t27 -11t11 -27t-11 -26.5t-27 -10.5t-26.5 10.5t-10.5 26.5zM135 396q0 -12 12 -12t12 12t-12 12t-12 -12z" />
    <glyph glyph-name="semicolon" unicode=";" 
d="M50 397q0 41 28 69.5t69 28.5t69.5 -28.5t28.5 -69.5t-28.5 -69t-69.5 -28t-69 28t-28 69zM80 397q0 -29 19 -48t48 -19t48.5 19t19.5 48t-19.5 48.5t-48.5 19.5t-48 -19.5t-19 -48.5zM110 396q0 16 10.5 27t26.5 11t27 -11t11 -27t-11 -26.5t-27 -10.5t-26.5 10.5
t-10.5 26.5zM135 396q0 -12 12 -12t12 12t-12 12t-12 -12zM17 -120l74 285h31l-74 -285h-31zM79 -120l74 285h31l-74 -285h-31zM141 -120l74 285h31l-74 -285h-31z" />
    <glyph glyph-name="less" unicode="&#x3c;" horiz-adv-x="666" 
d="M80 260l1 -1l504 184v-32l-286 -104l286 -103v-32l-328 120l-44 -16l372 -135v-33l-417 152l-44 -16l461 -168v-31l-505 183v32zM80 324l505 183v-33l-505 -183v33zM80 387l505 183v-31l-505 -184v32z" />
    <glyph glyph-name="equal" unicode="=" horiz-adv-x="666" 
d="M60 260h555v-30h-555v30zM60 200h555v-30h-555v30zM60 140h555v-30h-555v30zM60 490h555v-30h-555v30zM60 430h555v-30h-555v30zM60 370h555v-30h-555v30z" />
    <glyph glyph-name="greater" unicode="&#x3e;" horiz-adv-x="666" 
d="M585 355h-2l-503 -183v32l286 103l-286 104v32l328 -120l44 16l-372 135v33l416 -152l45 16l-461 168v31l505 -183v-32zM585 291l-505 -183v33l505 183v-33zM585 228l-505 -183v31l505 184v-32z" />
    <glyph glyph-name="question" unicode="?" horiz-adv-x="556" 
d="M195 82q0 41 28 69.5t69 28.5t69.5 -28.5t28.5 -69.5t-28.5 -69t-69.5 -28t-69 28t-28 69zM338 256l136 150q17 18 22.5 44t5.5 52q0 39 -16 73t-44 59.5t-66 40.5t-81 15q-44 0 -81.5 -15t-66 -40.5t-44.5 -59.5t-16 -73h-30q0 45 19 84.5t51.5 69.5t76 47t91.5 17
q49 0 92.5 -17t75.5 -47t50.5 -69.5t18.5 -84.5q0 -30 -6 -59.5t-26 -49.5l-132 -147v-28h-30v38zM278 280l143 156q12 13 16.5 30.5t4.5 35.5q0 27 -11.5 50t-31 40.5t-46.5 27.5t-58 10t-58 -10t-47 -27.5t-31.5 -40.5t-11.5 -50h-30q0 33 14.5 61.5t38.5 50t56.5 34
t68.5 12.5q37 0 69.5 -12.5t56.5 -34t37.5 -50t13.5 -61.5q0 -22 -5 -43.5t-20 -37.5l-139 -154v-49h-30v62zM218 303l151 162q11 11 12 20t1 17q0 29 -24.5 48.5t-62.5 19.5t-63 -19.5t-25 -48.5h-30q0 20 9.5 38t26 31.5t37.5 21t45 7.5q25 0 46 -7.5t37 -21t25 -31.5
t9 -38q0 -14 -3.5 -27.5t-13.5 -23.5l-147 -161v-72h-30v85zM225 82q0 -29 19 -48t48 -19t48.5 19t19.5 48t-19.5 48.5t-48.5 19.5t-48 -19.5t-19 -48.5zM255 81q0 16 10.5 27t26.5 11t27 -11t11 -27t-11 -26.5t-27 -10.5t-26.5 10.5t-10.5 26.5z" />
    <glyph glyph-name="at" unicode="@" horiz-adv-x="644" 
d="M500 235q0 -28 -10.5 -52.5t-29 -43t-43 -29t-52.5 -10.5h-195q-28 0 -52.5 10.5t-43 29t-29 43t-10.5 52.5v225q0 28 10.5 52.5t29 43t43 29t52.5 10.5h195q28 0 52.5 -10.5t43 -29t29 -43t10.5 -52.5v-225zM470 460q0 22 -8.5 41t-22.5 33t-33 22.5t-41 8.5h-195
q-22 0 -41 -8.5t-33.5 -22.5t-22.5 -33t-8 -41v-225q0 -22 8 -41t22.5 -33.5t33.5 -22.5t41 -8h195q22 0 41 8t33 22.5t22.5 33.5t8.5 41v225zM169 235l88 225h46l88 -225h-32l-79 203l-17 -43l63 -160h-33l-47 117l-46 -117h-31zM635 430h-75v-195h-30v225h105v-30z
M440 235h-30v195h-60v30h90v-225zM104 235l88 225h32l-88 -225h-32z" />
    <glyph glyph-name="A" unicode="A" horiz-adv-x="675" 
d="M380 705h46l247 -705h-33l-238 681l-16 -45l223 -636h-33l-206 589l-15 -43l189 -546h-32l-52 150h-244l-52 -150h-31zM315 705h32l-246 -705h-33zM251 705h32l-247 -705h-31zM269 300h139l-69 201zM227 180h223l-10 30h-203zM248 240h181l-10 30h-161z" />
    <glyph glyph-name="B" unicode="B" horiz-adv-x="648" 
d="M195 555h-30v-555h-30v555h-30v-555h-30v585h308q20 0 38 -7t31.5 -19t21 -28t7.5 -34t-7.5 -34t-21 -27.5t-31.5 -18.5t-38 -7h-158v-30h158q27 0 50 9t40.5 25t27.5 37.5t10 45.5t-10 45.5t-27.5 37.5t-40.5 25.5t-50 9.5h-308v30h308q33 0 61.5 -11.5t50 -32t34 -47.5
t12.5 -57t-12.5 -57t-34 -47t-50 -31.5t-61.5 -11.5h-158v-30h158q39 0 73 14t59.5 38t40.5 56t15 69t-15 69.5t-40.5 56.5t-59.5 38t-73 14h-308v30h308q45 0 84.5 -16.5t69.5 -45t47 -66t17 -80.5q0 -32 -10 -61t-27 -54q30 -32 48.5 -74t18.5 -91q0 -45 -17 -84.5
t-47 -69t-69.5 -46.5t-84.5 -17h-218v555zM425 294q-10 -2 -20.5 -3t-21.5 -1h-158v-140h188q29 0 48.5 19t19.5 48t-16 50.5t-40 26.5zM225 555v-115h158q29 0 48.5 16.5t19.5 40.5t-19.5 41t-48.5 17h-158zM545 359q-5 -5 -10.5 -10t-11.5 -10q22 -23 35 -54.5t13 -67.5
q0 -33 -12.5 -61.5t-34 -49.5t-50 -33.5t-61.5 -12.5h-188v-30h188q39 0 73 14.5t59.5 40t40.5 59.5t15 73q0 42 -15 78.5t-41 63.5zM497 321q-7 -5 -14 -8t-15 -6q20 -15 31.5 -38t11.5 -52q0 -41 -28.5 -69t-69.5 -28h-188v-30h188q27 0 50 10t40.5 27t27.5 40t10 50
q0 32 -12 58.5t-32 45.5z" />
    <glyph glyph-name="C" unicode="C" horiz-adv-x="685" 
d="M680 101q-51 -54 -119.5 -85t-148.5 -31q-76 0 -143 29t-116.5 78.5t-78.5 116.5t-29 143t29 143t78.5 117t116.5 79t143 29q72 0 134 -25t112 -70l-22 -19q-45 40 -102 62t-122 22q-70 0 -131.5 -26.5t-107 -72.5t-72 -107.5t-26.5 -131.5t26.5 -131.5t72 -107t107 -72
t131.5 -26.5q73 0 136 28t110 77zM631 136q-42 -42 -98 -66.5t-121 -24.5q-64 0 -120 24t-97.5 65.5t-65.5 97.5t-24 120t24 120t65.5 98t97.5 66t120 24q57 0 108 -19.5t92 -54.5l-25 -19q-36 29 -80.5 46t-94.5 17q-57 0 -107.5 -22t-88 -59.5t-59.5 -88.5t-22 -108
t22 -107.5t59.5 -88t88 -59.5t107.5 -22t106.5 21t87.5 57zM581 171q-33 -31 -76 -48.5t-93 -17.5q-51 0 -96 19.5t-78.5 53t-53 78.5t-19.5 96t19.5 96.5t53 79t78.5 53t96 19.5q43 0 81.5 -13.5t70.5 -37.5l-25 -20q-27 20 -59.5 30.5t-68.5 10.5q-45 0 -84.5 -17t-69 -47
t-46.5 -69.5t-17 -84.5t17 -84.5t46.5 -69t69 -46.5t84.5 -17q42 0 78.5 14t65.5 40z" />
    <glyph glyph-name="D" unicode="D" horiz-adv-x="759" 
d="M195 555h-30v-555h-30v555h-30v-555h-30v585h282q51 0 96.5 -18t79 -49.5t53 -74t19.5 -91.5t-19.5 -91.5t-53 -73.5t-79 -49t-96.5 -18h-132v-30h132q57 0 108 20.5t88.5 55.5t59.5 83t22 103t-22 103t-59.5 83.5t-88.5 56t-108 20.5h-282v30h282q64 0 120 -22.5
t98 -62.5t66 -93.5t24 -114.5q0 -62 -24 -115t-66 -92.5t-98 -62t-120 -22.5h-132v-30h132q70 0 131.5 25t107.5 68.5t72.5 102t26.5 126.5t-26.5 127t-72.5 102.5t-107.5 68.5t-131.5 25h-282v30h282q76 0 143 -27.5t117 -75t79 -112t29 -138.5t-29 -138t-79 -111.5
t-117 -75t-143 -27.5h-162v555zM225 555v-405h131q45 0 84.5 15.5t69.5 42.5t47 64t17 80t-17 80t-47 64.5t-69.5 43t-84.5 15.5h-131z" />
    <glyph glyph-name="E" unicode="E" horiz-adv-x="630" 
d="M195 555h-30v-555h-30v555h-30v-555h-30v585h480v-30h-330v-120h315v-30h-315v-30h315v-30h-315v-30h315v-30h-315v-135h345v-30h-345v-30h345v-30h-345v-30h345v-30h-375v555zM75 705h480v-30h-480v30zM75 645h480v-30h-480v30z" />
    <glyph glyph-name="F" unicode="F" horiz-adv-x="593" 
d="M195 555h-30v-555h-30v555h-30v-555h-30v585h480v-30h-330v-120h300v-30h-300v-30h300v-30h-300v-30h300v-30h-300v-285h-30v555zM75 705h480v-30h-480v30zM75 645h480v-30h-480v30z" />
    <glyph glyph-name="G" unicode="G" horiz-adv-x="778" 
d="M630 270h-30v-234l-29 -15q-36 -17 -76 -26.5t-83 -9.5q-76 0 -143 29t-116.5 78.5t-78.5 116.5t-29 143t29 143t78.5 117t116.5 79t143 29q78 0 145 -30t118 -81l-20 -22q-46 48 -108.5 75.5t-134.5 27.5q-70 0 -131.5 -26.5t-107 -72.5t-72 -107.5t-26.5 -131.5
t26.5 -131.5t72 -107t107 -72t131.5 -26.5q43 0 82.5 10t75.5 29v34q-35 -20 -74.5 -31.5t-83.5 -11.5q-64 0 -120 24t-97.5 65.5t-65.5 97.5t-24 120t24 120t65.5 98t97.5 66t120 24q66 0 123.5 -25.5t99.5 -70.5l-20 -23q-38 42 -90.5 65.5t-112.5 23.5q-57 0 -107.5 -22
t-88 -59.5t-59.5 -88.5t-22 -108t22 -107.5t59.5 -88t88 -59.5t107.5 -22q44 0 84 13t74 36v37q-32 -26 -72.5 -41t-85.5 -15q-51 0 -96 19.5t-78.5 53t-53 78.5t-19.5 96t19.5 96.5t53 79t78.5 53t96 19.5q54 0 101 -21.5t81 -58.5l-19 -25q-30 35 -72.5 55t-91.5 20
q-45 0 -84.5 -17t-69 -47t-46.5 -69.5t-17 -84.5t17 -84.5t46.5 -69t69 -46.5t84.5 -17q47 0 88 18t71 50v67h-135v30h285v-264h-30v234h-30v-234h-30v234zM435 390v30h285v-30h-285zM435 330v30h285v-30h-285z" />
    <glyph glyph-name="H" unicode="H" horiz-adv-x="759" 
d="M540 300h-315v-300h-30v705h30v-255h315v255h30v-705h-30v300zM135 705h30v-705h-30v705zM600 705h30v-705h-30v705zM660 705h30v-705h-30v705zM75 705h30v-705h-30v705zM225 390h315v30h-315v-30zM225 330h315v30h-315v-30z" />
    <glyph glyph-name="I" unicode="I" 
d="M135 705h30v-705h-30v705zM195 705h30v-705h-30v705zM75 705h30v-705h-30v705z" />
    <glyph glyph-name="J" unicode="J" horiz-adv-x="500" 
d="M405 705h30v-510q0 -45 -17 -84.5t-47 -69t-69.5 -46.5t-84.5 -17q-39 0 -74.5 13.5t-64 36.5t-48 55t-26.5 69l29 8q6 -32 23 -60t41 -48t54.5 -31.5t65.5 -11.5q39 0 73 14.5t59.5 39.5t40.5 59t15 73v510zM345 705h30v-510q0 -33 -12.5 -61.5t-34 -49.5t-50 -33.5
t-61.5 -12.5q-29 0 -55 9.5t-46 27t-34 41t-19 50.5l29 8q8 -46 42.5 -76t82.5 -30q27 0 50 10t40.5 27t27.5 40t10 50v510zM285 705h30v-510q0 -41 -28.5 -69t-69.5 -28q-37 0 -64 23.5t-32 58.5l29 8q2 -26 21 -43t46 -17q29 0 48.5 19t19.5 48v510z" />
    <glyph glyph-name="K" unicode="K" horiz-adv-x="662" 
d="M328 373l352 -373h-41l-414 438v-43l371 -395h-43l-328 348v-43l287 -305h-41l-246 262v-262h-30v705h30v-223l214 223h39l-234 -244l21 -22l256 266h42l-277 -288l21 -22l298 310h40zM135 705h30v-705h-30v705zM75 705h30v-705h-30v705z" />
    <glyph glyph-name="L" unicode="L" horiz-adv-x="537" 
d="M195 705h30v-555h300v-30h-300v-30h300v-30h-300v-30h300v-30h-330v705zM135 705h30v-705h-30v705zM75 705h30v-705h-30v705z" />
    <glyph glyph-name="M" unicode="M" horiz-adv-x="944" 
d="M225 438v-438h-30v521l-30 82v-603h-30v705h26l247 -682l16 44l-232 638h33l216 -593l15 43l-199 550h32l183 -506l185 506h31l-257 -705h-46zM720 440l-160 -440h-32l192 527v88l-224 -615h-32l256 705h30v-705h-30v440zM75 705h30v-705h-30v705zM780 705h30v-705h-30
v705zM840 705h30v-705h-30v705z" />
    <glyph glyph-name="N" unicode="N" horiz-adv-x="815" 
d="M225 542v-542h-30v705h37l353 -643v58l-316 585h33l283 -523v523h30v-705h-30l-360 651v-51l329 -600h-35zM135 705h30v-705h-30v705zM75 705h30v-705h-30v705zM645 705h30v-705h-30v705zM705 705h30v-705h-30v705z" />
    <glyph glyph-name="O" unicode="O" horiz-adv-x="821" 
d="M45 352q0 76 29 143t78.5 117t116.5 79t143 29t143 -29t117 -79t79 -117t29 -143t-29 -143t-79 -116.5t-117 -78.5t-143 -29t-143 29t-116.5 78.5t-78.5 116.5t-29 143zM75 352q0 -70 26.5 -131.5t72 -107t107 -72t131.5 -26.5t131.5 26.5t107.5 72t72.5 107t26.5 131.5
t-26.5 131.5t-72.5 107.5t-107.5 72.5t-131.5 26.5t-131.5 -26.5t-107 -72.5t-72 -107.5t-26.5 -131.5zM105 352q0 64 24 120t65.5 98t97.5 66t120 24t120 -24t98 -66t66 -98t24 -120t-24 -120t-66 -97.5t-98 -65.5t-120 -24t-120 24t-97.5 65.5t-65.5 97.5t-24 120z
M135 352q0 -57 22 -107.5t59.5 -88t88 -59.5t107.5 -22t108 22t88.5 59.5t59.5 88t22 107.5t-22 108t-59.5 88.5t-88.5 59.5t-108 22t-107.5 -22t-88 -59.5t-59.5 -88.5t-22 -108zM165 352q0 51 19.5 96.5t53 79t78.5 53t96 19.5t96.5 -19.5t79 -53t53 -79t19.5 -96.5
t-19.5 -96t-53 -78.5t-79 -53t-96.5 -19.5t-96 19.5t-78.5 53t-53 78.5t-19.5 96zM194 352q0 -45 17 -84.5t46.5 -69t69 -46.5t84.5 -17t84.5 17t69.5 46.5t47 69t17 84.5t-17 84.5t-47 69.5t-69.5 47t-84.5 17t-84.5 -17t-69 -47t-46.5 -69.5t-17 -84.5z" />
    <glyph glyph-name="P" unicode="P" horiz-adv-x="630" 
d="M195 555h-30v-555h-30v555h-30v-555h-30v585h308q41 0 69.5 -28.5t28.5 -69.5t-28.5 -69t-69.5 -28h-158v-30h158q27 0 50 10t40.5 27t27.5 40t10 50t-10 50t-27.5 40.5t-40.5 27.5t-50 10h-308v30h308q33 0 61.5 -12.5t50 -34t34 -50t12.5 -61.5t-12.5 -61.5t-34 -49.5
t-50 -33.5t-61.5 -12.5h-158v-30h158q39 0 73 14.5t59.5 40t40.5 59.5t15 73t-15 73t-40.5 59.5t-59.5 40.5t-73 15h-308v30h308q45 0 84.5 -17t69.5 -47t47 -69.5t17 -84.5t-17 -84.5t-47 -69t-69.5 -46.5t-84.5 -17h-158v-270h-30v555zM225 555v-135h158q29 0 48.5 19
t19.5 48t-19.5 48.5t-48.5 19.5h-158z" />
    <glyph glyph-name="Q" unicode="Q" horiz-adv-x="825" 
d="M34 352q0 76 29 143t78.5 117t116.5 79t143 29t143 -29t117 -79t79 -117t29 -143q0 -86 -36 -159t-97 -124l201 -201l-22 -21l-204 204q-7 -5 -13 -9t-13 -8l209 -208l-21 -21l-215 215q-8 -4 -15 -7t-15 -6l224 -223l-21 -22l-236 236q-23 -6 -46.5 -9.5t-47.5 -3.5
q-76 0 -143 29t-116.5 78.5t-78.5 116.5t-29 143zM64 352q0 -70 26.5 -131.5t72 -107t107 -72t131.5 -26.5t131.5 26.5t107.5 72t72.5 107t26.5 131.5t-26.5 131.5t-72.5 107.5t-107.5 72.5t-131.5 26.5t-131.5 -26.5t-107 -72.5t-72 -107.5t-26.5 -131.5zM94 352
q0 64 24 120t65.5 98t97.5 66t120 24t120 -24t98 -66t66 -98t24 -120t-24 -120t-66 -97.5t-98 -65.5t-120 -24t-120 24t-97.5 65.5t-65.5 97.5t-24 120zM124 352q0 -57 22 -107.5t59.5 -88t88 -59.5t107.5 -22t108 22t88.5 59.5t59.5 88t22 107.5t-22 108t-59.5 88.5
t-88.5 59.5t-108 22t-107.5 -22t-88 -59.5t-59.5 -88.5t-22 -108zM154 352q0 51 19.5 96.5t53 79t78.5 53t96 19.5t96.5 -19.5t79 -53t53 -79t19.5 -96.5t-19.5 -96t-53 -78.5t-79 -53t-96.5 -19.5t-96 19.5t-78.5 53t-53 78.5t-19.5 96zM183 352q0 -45 17 -84.5t46.5 -69
t69 -46.5t84.5 -17t84.5 17t69.5 46.5t47 69t17 84.5t-17 84.5t-47 69.5t-69.5 47t-84.5 17t-84.5 -17t-69 -47t-46.5 -69.5t-17 -84.5z" />
    <glyph glyph-name="R" unicode="R" horiz-adv-x="648" 
d="M195 555h-30v-555h-30v555h-30v-555h-30v585h308q41 0 69.5 -28.5t28.5 -69.5t-28.5 -69t-69.5 -28h-158v-30h158q27 0 50 10t40.5 27t27.5 40t10 50t-10 50t-27.5 40.5t-40.5 27.5t-50 10h-308v30h308q33 0 61.5 -12.5t50 -34t34 -50t12.5 -61.5t-12.5 -61.5t-34 -49.5
t-50 -33.5t-61.5 -12.5h-158v-30h158q39 0 73 14.5t59.5 40t40.5 59.5t15 73t-15 73t-40.5 59.5t-59.5 40.5t-73 15h-308v30h308q45 0 84.5 -17t69.5 -47t47 -69.5t17 -84.5q0 -35 -10.5 -67t-30 -59t-46 -47t-57.5 -31l154 -283h-35l-149 274q-8 -2 -15.5 -3t-15.5 -1
l147 -270h-36l-147 270h-33l146 -270h-34l-147 270h-67v-270h-30v555zM225 555v-135h158q29 0 48.5 19t19.5 48t-19.5 48.5t-48.5 19.5h-158z" />
    <glyph glyph-name="S" unicode="S" horiz-adv-x="574" 
d="M63 98q35 -35 86 -58.5t111 -23.5q44 0 84.5 13.5t71 38.5t48.5 60t18 77q0 28 -8.5 55.5t-24 51t-38.5 41t-51 26.5l-125 33q-30 8 -46.5 34t-16.5 55q0 22 9 40.5t24.5 31t36.5 19.5t44 7q30 0 57.5 -11.5t44.5 -29.5l-26 -17q-10 11 -31 19.5t-46 8.5q-37 0 -60 -19.5
t-23 -51.5q0 -20 11.5 -37t31.5 -21l126 -36q34 -8 60 -28t44 -47t27.5 -59.5t9.5 -65.5q0 -49 -20.5 -89.5t-54.5 -69t-79.5 -44t-94.5 -15.5q-71 0 -130 25.5t-94 66.5zM158 171q14 -13 41.5 -24t59.5 -11q45 0 73.5 18.5t28.5 50.5q0 20 -11.5 37t-31.5 22l-125 36
q-34 8 -60 28t-44 47t-27.5 59t-9.5 65q0 50 19.5 90.5t51.5 69.5t74.5 44.5t88.5 15.5q60 0 110 -23t82 -58l-23 -20q-31 32 -73 51.5t-96 19.5q-41 0 -77.5 -14t-65 -39t-45 -60t-16.5 -78q0 -29 8 -56.5t24 -50.5t38 -40.5t51 -25.5l126 -33q30 -8 46 -34.5t16 -55.5
q0 -22 -10 -40t-27.5 -30.5t-41 -19.5t-50.5 -7q-40 0 -75 13.5t-55 33.5zM109 135q24 -26 64.5 -42.5t85.5 -16.5q33 0 62 9t51.5 25t35.5 39t13 52q0 19 -5.5 38t-16 35.5t-26 29t-34.5 17.5l-125 33q-24 6 -43 21t-32 35t-20 44t-7 48q0 35 14 64t38 49.5t55 32t66 11.5
q46 0 84 -17.5t61 -42.5l-22 -19q-20 20 -51 34.5t-69 14.5q-29 0 -55 -9t-46 -25.5t-32 -40t-12 -52.5q0 -38 21.5 -73t60.5 -46l125 -33q50 -14 75.5 -57t25.5 -93q0 -35 -15.5 -63.5t-42 -48.5t-61 -31t-72.5 -11q-54 0 -100 20.5t-72 47.5z" />
    <glyph glyph-name="T" unicode="T" horiz-adv-x="574" 
d="M330 555h-30v-555h-30v555h-30v-555h-30v555h-195v30h540v-30h-195v-555h-30v555zM15 705h540v-30h-540v30zM15 645h540v-30h-540v30z" />
    <glyph glyph-name="U" unicode="U" horiz-adv-x="741" 
d="M645 705h30v-420q0 -62 -23.5 -117t-64 -95.5t-95.5 -64t-117 -23.5t-117 23.5t-95.5 64t-64 95.5t-23.5 117v420h30v-420q0 -56 21 -105t58 -86t86 -58t105 -21t105 21t86 58t58 86t21 105v420zM135 705h30v-420q0 -44 16.5 -82t45 -66.5t66.5 -45t82 -16.5
q43 0 81.5 16.5t67 45t45 66.5t16.5 82v420h30v-420q0 -50 -19 -93.5t-51.5 -76t-76.5 -51.5t-93 -19q-50 0 -93.5 19t-76 51.5t-51.5 76t-19 93.5v420zM525 705h30v-420q0 -37 -14 -70t-38.5 -57.5t-57.5 -38.5t-70 -14t-70 14t-57.5 38.5t-38.5 57.5t-14 70v420h30v-420
q0 -31 12 -58.5t32 -47.5t47.5 -32t58.5 -12t58.5 12t47.5 32t32 47.5t12 58.5v420z" />
    <glyph glyph-name="V" unicode="V" horiz-adv-x="704" 
d="M5 705h33l254 -683l17 44l-240 639h33l223 -595l16 43l-207 552h32l191 -509l191 509h31l-264 -705h-46zM380 0h-32l263 705h33zM444 0h-32l264 705h31z" />
    <glyph glyph-name="W" unicode="W" horiz-adv-x="1000" 
d="M505 421l-121 -421h-32l204 705h28l125 -473l137 473h31l-204 -705h-46zM5 705h33l194 -676l15 50l-178 626h33l160 -574l14 48l-142 526h32l125 -473l137 473h31l-204 -705h-46zM320 0h-32l203 705h33zM738 0h-32l203 705h33zM802 0h-32l204 705h31zM553 588l127 -457
l14 48l-125 464zM521 478l129 -449l15 50l-129 451z" />
    <glyph glyph-name="X" unicode="X" horiz-adv-x="722" 
d="M529 0l-178 243l-160 -243h-37l178 270l-18 25l-197 -295h-39l217 321l-18 25l-236 -346h-37l254 372l-243 333h38l513 -705h-37zM164 705h38l158 -217l158 217h38l-177 -243l18 -24l195 267h39l-215 -294l19 -25l232 319h38l-252 -345l263 -360h-37zM603 0l-514 705h39
l514 -705h-39z" />
    <glyph glyph-name="Y" unicode="Y" horiz-adv-x="648" 
d="M375 351l17 -29l234 383h34l-255 -419v-286h-30v296l-248 409h33l162 -268l163 268h33l-179 -295l18 -30l197 325h36zM315 277l-260 428h36l254 -419v-286h-30v277zM255 261l-270 444h34l266 -437v-268h-30v261z" />
    <glyph glyph-name="Z" unicode="Z" horiz-adv-x="630" 
d="M45 585h540v-15l-358 -420h373v-30h-570v30l344 405h-329v30zM30 90h570v-30h-570v30zM30 30h570v-30h-570v30zM45 645h540v-30h-540v30zM45 705h540v-30h-540v30zM188 150l344 405h-39l-345 -405h40zM108 150l345 405h-39l-345 -405h39z" />
    <glyph glyph-name="bracketleft" unicode="[" 
d="M280 705h-94v-30h94v-30h-94v-30h94v-30h-94v-585h94v-30h-94v-30h94v-30h-94v-30h94v-30h-124v885h124v-30zM36 -150v885h30v-885h-30zM96 -150v885h30v-885h-30z" />
    <glyph glyph-name="backslash" unicode="\" horiz-adv-x="407" 
d="M382 -28l-271 792l28 10l271 -792zM325 -48l-271 794l28 8l271 -792zM268 -66l-271 792l28 10l271 -792z" />
    <glyph glyph-name="bracketright" unicode="]" 
d="M36 735h124v-885h-124v30h94v30h-94v30h94v30h-94v30h94v585h-94v30h94v30h-94v30h94v30h-94v30zM280 735v-885h-30v885h30zM220 735v-885h-30v885h30z" />
    <glyph glyph-name="asciicircum" unicode="^" horiz-adv-x="666" 
d="M285 705l-1 -1l161 -359h-32l-81 181l-80 -181h-32l96 216l-15 36l-112 -252h-33l128 289l-15 35l-145 -324h-31l160 360h32zM349 705l160 -360h-33l-160 360h33zM412 705l160 -360h-31l-161 360h32z" />
    <glyph glyph-name="underscore" unicode="_" horiz-adv-x="500" 
d="M0 -75h500v-30h-500v30zM0 -135h500v-30h-500v30z" />
    <glyph glyph-name="grave" unicode="`" horiz-adv-x="260" 
d="M184 570l-103 135h37l103 -135h-37zM108 570l-103 135h39l102 -135h-38zM33 570l-103 135h38l103 -135h-38z" />
    <glyph glyph-name="a" unicode="a" horiz-adv-x="649" 
d="M174 420q0 37 12 70t32 57.5t47.5 38.5t58.5 14t58 -14t47.5 -38.5t32.5 -57.5t12 -70v-420h-30v150h-240v-150h-30v420zM204 300h240v120q0 31 -9.5 58.5t-26 47.5t-38 32t-46.5 12t-46.5 -12t-38 -32t-26 -47.5t-9.5 -58.5v-120zM84 0h-30v420q0 62 21 117t58 95.5
t86 64t105 23.5q55 0 104.5 -23.5t86 -64t58 -95.5t21.5 -117v-420h-30v420q0 56 -19 105t-51.5 86t-76.5 58t-93 21q-50 0 -93.5 -21t-76 -58t-51.5 -86t-19 -105v-420zM504 420q0 43 -14 81.5t-38.5 67t-57.5 45t-70 16.5t-70 -16.5t-57.5 -45t-38.5 -67t-14 -81.5v-420
h-30v420q0 49 16.5 93t45 76.5t66.5 51.5t82 19q43 0 81.5 -19t67 -51.5t45 -76.5t16.5 -93v-420h-30v420zM204 240h240v30h-240v-30zM204 180h240v30h-240v-30z" />
    <glyph glyph-name="b" unicode="b" horiz-adv-x="648" 
d="M195 555h-30v-555h-30v555h-30v-555h-30v585h308q20 0 38 -7t31.5 -19t21 -28t7.5 -34t-7.5 -34t-21 -27.5t-31.5 -18.5t-38 -7h-158v-30h158q27 0 50 9t40.5 25t27.5 37.5t10 45.5t-10 45.5t-27.5 37.5t-40.5 25.5t-50 9.5h-308v30h308q33 0 61.5 -11.5t50 -32t34 -47.5
t12.5 -57t-12.5 -57t-34 -47t-50 -31.5t-61.5 -11.5h-158v-30h158q39 0 73 14t59.5 38t40.5 56t15 69t-15 69.5t-40.5 56.5t-59.5 38t-73 14h-308v30h308q45 0 84.5 -16.5t69.5 -45t47 -66t17 -80.5q0 -32 -10 -61t-27 -54q30 -32 48.5 -74t18.5 -91q0 -45 -17 -84.5
t-47 -69t-69.5 -46.5t-84.5 -17h-218v555zM425 294q-10 -2 -20.5 -3t-21.5 -1h-158v-140h188q29 0 48.5 19t19.5 48t-16 50.5t-40 26.5zM225 555v-115h158q29 0 48.5 16.5t19.5 40.5t-19.5 41t-48.5 17h-158zM545 359q-5 -5 -10.5 -10t-11.5 -10q22 -23 35 -54.5t13 -67.5
q0 -33 -12.5 -61.5t-34 -49.5t-50 -33.5t-61.5 -12.5h-188v-30h188q39 0 73 14.5t59.5 40t40.5 59.5t15 73q0 42 -15 78.5t-41 63.5zM497 321q-7 -5 -14 -8t-15 -6q20 -15 31.5 -38t11.5 -52q0 -41 -28.5 -69t-69.5 -28h-188v-30h188q27 0 50 10t40.5 27t27.5 40t10 50
q0 32 -12 58.5t-32 45.5z" />
    <glyph glyph-name="c" unicode="c" horiz-adv-x="685" 
d="M680 101q-51 -54 -119.5 -85t-148.5 -31q-76 0 -143 29t-116.5 78.5t-78.5 116.5t-29 143t29 143t78.5 117t116.5 79t143 29q72 0 134 -25t112 -70l-22 -19q-45 40 -102 62t-122 22q-70 0 -131.5 -26.5t-107 -72.5t-72 -107.5t-26.5 -131.5t26.5 -131.5t72 -107t107 -72
t131.5 -26.5q73 0 136 28t110 77zM631 136q-42 -42 -98 -66.5t-121 -24.5q-64 0 -120 24t-97.5 65.5t-65.5 97.5t-24 120t24 120t65.5 98t97.5 66t120 24q57 0 108 -19.5t92 -54.5l-25 -19q-36 29 -80.5 46t-94.5 17q-57 0 -107.5 -22t-88 -59.5t-59.5 -88.5t-22 -108
t22 -107.5t59.5 -88t88 -59.5t107.5 -22t106.5 21t87.5 57zM581 171q-33 -31 -76 -48.5t-93 -17.5q-51 0 -96 19.5t-78.5 53t-53 78.5t-19.5 96t19.5 96.5t53 79t78.5 53t96 19.5q43 0 81.5 -13.5t70.5 -37.5l-25 -20q-27 20 -59.5 30.5t-68.5 10.5q-45 0 -84.5 -17t-69 -47
t-46.5 -69.5t-17 -84.5t17 -84.5t46.5 -69t69 -46.5t84.5 -17q42 0 78.5 14t65.5 40z" />
    <glyph glyph-name="d" unicode="d" horiz-adv-x="759" 
d="M195 555h-30v-555h-30v555h-30v-555h-30v585h282q51 0 96.5 -18t79 -49.5t53 -74t19.5 -91.5t-19.5 -91.5t-53 -73.5t-79 -49t-96.5 -18h-132v-30h132q57 0 108 20.5t88.5 55.5t59.5 83t22 103t-22 103t-59.5 83.5t-88.5 56t-108 20.5h-282v30h282q64 0 120 -22.5
t98 -62.5t66 -93.5t24 -114.5q0 -62 -24 -115t-66 -92.5t-98 -62t-120 -22.5h-132v-30h132q70 0 131.5 25t107.5 68.5t72.5 102t26.5 126.5t-26.5 127t-72.5 102.5t-107.5 68.5t-131.5 25h-282v30h282q76 0 143 -27.5t117 -75t79 -112t29 -138.5t-29 -138t-79 -111.5
t-117 -75t-143 -27.5h-162v555zM225 555v-405h131q45 0 84.5 15.5t69.5 42.5t47 64t17 80t-17 80t-47 64.5t-69.5 43t-84.5 15.5h-131z" />
    <glyph glyph-name="e" unicode="e" horiz-adv-x="630" 
d="M195 555h-30v-555h-30v555h-30v-555h-30v585h480v-30h-330v-120h315v-30h-315v-30h315v-30h-315v-30h315v-30h-315v-135h345v-30h-345v-30h345v-30h-345v-30h345v-30h-375v555zM75 705h480v-30h-480v30zM75 645h480v-30h-480v30z" />
    <glyph glyph-name="f" unicode="f" horiz-adv-x="593" 
d="M195 555h-30v-555h-30v555h-30v-555h-30v585h480v-30h-330v-120h300v-30h-300v-30h300v-30h-300v-30h300v-30h-300v-285h-30v555zM75 705h480v-30h-480v30zM75 645h480v-30h-480v30z" />
    <glyph glyph-name="g" unicode="g" horiz-adv-x="778" 
d="M630 270h-30v-234l-29 -15q-36 -17 -76 -26.5t-83 -9.5q-76 0 -143 29t-116.5 78.5t-78.5 116.5t-29 143t29 143t78.5 117t116.5 79t143 29q78 0 145 -30t118 -81l-20 -22q-46 48 -108.5 75.5t-134.5 27.5q-70 0 -131.5 -26.5t-107 -72.5t-72 -107.5t-26.5 -131.5
t26.5 -131.5t72 -107t107 -72t131.5 -26.5q43 0 82.5 10t75.5 29v34q-35 -20 -74.5 -31.5t-83.5 -11.5q-64 0 -120 24t-97.5 65.5t-65.5 97.5t-24 120t24 120t65.5 98t97.5 66t120 24q66 0 123.5 -25.5t99.5 -70.5l-20 -23q-38 42 -90.5 65.5t-112.5 23.5q-57 0 -107.5 -22
t-88 -59.5t-59.5 -88.5t-22 -108t22 -107.5t59.5 -88t88 -59.5t107.5 -22q44 0 84 13t74 36v37q-32 -26 -72.5 -41t-85.5 -15q-51 0 -96 19.5t-78.5 53t-53 78.5t-19.5 96t19.5 96.5t53 79t78.5 53t96 19.5q54 0 101 -21.5t81 -58.5l-19 -25q-30 35 -72.5 55t-91.5 20
q-45 0 -84.5 -17t-69 -47t-46.5 -69.5t-17 -84.5t17 -84.5t46.5 -69t69 -46.5t84.5 -17q47 0 88 18t71 50v67h-135v30h285v-264h-30v234h-30v-234h-30v234zM435 390v30h285v-30h-285zM435 330v30h285v-30h-285z" />
    <glyph glyph-name="h" unicode="h" horiz-adv-x="759" 
d="M540 300h-315v-300h-30v705h30v-255h315v255h30v-705h-30v300zM135 705h30v-705h-30v705zM600 705h30v-705h-30v705zM660 705h30v-705h-30v705zM75 705h30v-705h-30v705zM225 390h315v30h-315v-30zM225 330h315v30h-315v-30z" />
    <glyph glyph-name="i" unicode="i" 
d="M135 705h30v-705h-30v705zM195 705h30v-705h-30v705zM75 705h30v-705h-30v705z" />
    <glyph glyph-name="j" unicode="j" horiz-adv-x="500" 
d="M405 705h30v-510q0 -45 -17 -84.5t-47 -69t-69.5 -46.5t-84.5 -17q-39 0 -74.5 13.5t-64 36.5t-48 55t-26.5 69l29 8q6 -32 23 -60t41 -48t54.5 -31.5t65.5 -11.5q39 0 73 14.5t59.5 39.5t40.5 59t15 73v510zM345 705h30v-510q0 -33 -12.5 -61.5t-34 -49.5t-50 -33.5
t-61.5 -12.5q-29 0 -55 9.5t-46 27t-34 41t-19 50.5l29 8q8 -46 42.5 -76t82.5 -30q27 0 50 10t40.5 27t27.5 40t10 50v510zM285 705h30v-510q0 -41 -28.5 -69t-69.5 -28q-37 0 -64 23.5t-32 58.5l29 8q2 -26 21 -43t46 -17q29 0 48.5 19t19.5 48v510z" />
    <glyph glyph-name="k" unicode="k" horiz-adv-x="662" 
d="M328 373l352 -373h-41l-414 438v-43l371 -395h-43l-328 348v-43l287 -305h-41l-246 262v-262h-30v705h30v-223l214 223h39l-234 -244l21 -22l256 266h42l-277 -288l21 -22l298 310h40zM135 705h30v-705h-30v705zM75 705h30v-705h-30v705z" />
    <glyph glyph-name="l" unicode="l" horiz-adv-x="537" 
d="M195 705h30v-555h300v-30h-300v-30h300v-30h-300v-30h300v-30h-330v705zM135 705h30v-705h-30v705zM75 705h30v-705h-30v705z" />
    <glyph glyph-name="m" unicode="m" horiz-adv-x="944" 
d="M225 438v-438h-30v521l-30 82v-603h-30v705h26l247 -682l16 44l-232 638h33l216 -593l15 43l-199 550h32l183 -506l185 506h31l-257 -705h-46zM720 440l-160 -440h-32l192 527v88l-224 -615h-32l256 705h30v-705h-30v440zM75 705h30v-705h-30v705zM780 705h30v-705h-30
v705zM840 705h30v-705h-30v705z" />
    <glyph glyph-name="n" unicode="n" horiz-adv-x="815" 
d="M225 542v-542h-30v705h37l353 -643v58l-316 585h33l283 -523v523h30v-705h-30l-360 651v-51l329 -600h-35zM135 705h30v-705h-30v705zM75 705h30v-705h-30v705zM645 705h30v-705h-30v705zM705 705h30v-705h-30v705z" />
    <glyph glyph-name="o" unicode="o" horiz-adv-x="821" 
d="M45 352q0 76 29 143t78.5 117t116.5 79t143 29t143 -29t117 -79t79 -117t29 -143t-29 -143t-79 -116.5t-117 -78.5t-143 -29t-143 29t-116.5 78.5t-78.5 116.5t-29 143zM75 352q0 -70 26.5 -131.5t72 -107t107 -72t131.5 -26.5t131.5 26.5t107.5 72t72.5 107t26.5 131.5
t-26.5 131.5t-72.5 107.5t-107.5 72.5t-131.5 26.5t-131.5 -26.5t-107 -72.5t-72 -107.5t-26.5 -131.5zM105 352q0 64 24 120t65.5 98t97.5 66t120 24t120 -24t98 -66t66 -98t24 -120t-24 -120t-66 -97.5t-98 -65.5t-120 -24t-120 24t-97.5 65.5t-65.5 97.5t-24 120z
M135 352q0 -57 22 -107.5t59.5 -88t88 -59.5t107.5 -22t108 22t88.5 59.5t59.5 88t22 107.5t-22 108t-59.5 88.5t-88.5 59.5t-108 22t-107.5 -22t-88 -59.5t-59.5 -88.5t-22 -108zM165 352q0 51 19.5 96.5t53 79t78.5 53t96 19.5t96.5 -19.5t79 -53t53 -79t19.5 -96.5
t-19.5 -96t-53 -78.5t-79 -53t-96.5 -19.5t-96 19.5t-78.5 53t-53 78.5t-19.5 96zM194 352q0 -45 17 -84.5t46.5 -69t69 -46.5t84.5 -17t84.5 17t69.5 46.5t47 69t17 84.5t-17 84.5t-47 69.5t-69.5 47t-84.5 17t-84.5 -17t-69 -47t-46.5 -69.5t-17 -84.5z" />
    <glyph glyph-name="p" unicode="p" horiz-adv-x="630" 
d="M195 555h-30v-555h-30v555h-30v-555h-30v585h308q41 0 69.5 -28.5t28.5 -69.5t-28.5 -69t-69.5 -28h-158v-30h158q27 0 50 10t40.5 27t27.5 40t10 50t-10 50t-27.5 40.5t-40.5 27.5t-50 10h-308v30h308q33 0 61.5 -12.5t50 -34t34 -50t12.5 -61.5t-12.5 -61.5t-34 -49.5
t-50 -33.5t-61.5 -12.5h-158v-30h158q39 0 73 14.5t59.5 40t40.5 59.5t15 73t-15 73t-40.5 59.5t-59.5 40.5t-73 15h-308v30h308q45 0 84.5 -17t69.5 -47t47 -69.5t17 -84.5t-17 -84.5t-47 -69t-69.5 -46.5t-84.5 -17h-158v-270h-30v555zM225 555v-135h158q29 0 48.5 19
t19.5 48t-19.5 48.5t-48.5 19.5h-158z" />
    <glyph glyph-name="q" unicode="q" horiz-adv-x="825" 
d="M34 352q0 76 29 143t78.5 117t116.5 79t143 29t143 -29t117 -79t79 -117t29 -143q0 -86 -36 -159t-98 -124l93 -95q20 -20 47.5 -20.5t48.5 19.5l20 -21q-14 -14 -32 -21t-37 -7t-36.5 7t-31.5 22l-96 97l-26 -16l100 -102q18 -19 41.5 -29t48 -10t48 9t42.5 28l21 -21
q-24 -23 -53 -34t-59 -11t-59 12t-51 35l-106 109q-8 -4 -15 -7t-15 -6l114 -116q27 -29 61 -43t70 -14.5t70.5 13t63.5 40.5l21 -22q-32 -31 -72.5 -46.5t-82.5 -15t-82 17t-71 48.5l-125 128q-45 -12 -94 -12q-76 0 -143 29t-116.5 78.5t-78.5 116.5t-29 143zM64 352
q0 -70 26.5 -131.5t72 -107t107 -72t131.5 -26.5t131.5 26.5t107.5 72t72.5 107t26.5 131.5t-26.5 131.5t-72.5 107.5t-107.5 72.5t-131.5 26.5t-131.5 -26.5t-107 -72.5t-72 -107.5t-26.5 -131.5zM94 352q0 64 24 120t65.5 98t97.5 66t120 24t120 -24t98 -66t66 -98
t24 -120t-24 -120t-66 -97.5t-98 -65.5t-120 -24t-120 24t-97.5 65.5t-65.5 97.5t-24 120zM124 352q0 -57 22 -107.5t59.5 -88t88 -59.5t107.5 -22t108 22t88.5 59.5t59.5 88t22 107.5t-22 108t-59.5 88.5t-88.5 59.5t-108 22t-107.5 -22t-88 -59.5t-59.5 -88.5t-22 -108z
M154 352q0 51 19.5 96.5t53 79t78.5 53t96 19.5t96.5 -19.5t79 -53t53 -79t19.5 -96.5t-19.5 -96t-53 -78.5t-79 -53t-96.5 -19.5t-96 19.5t-78.5 53t-53 78.5t-19.5 96zM183 352q0 -45 17 -84.5t46.5 -69t69 -46.5t84.5 -17t84.5 17t69.5 46.5t47 69t17 84.5t-17 84.5
t-47 69.5t-69.5 47t-84.5 17t-84.5 -17t-69 -47t-46.5 -69.5t-17 -84.5z" />
    <glyph glyph-name="r" unicode="r" horiz-adv-x="648" 
d="M195 555h-30v-555h-30v555h-30v-555h-30v585h308q41 0 69.5 -28.5t28.5 -69.5t-28.5 -69t-69.5 -28h-158v-30h158q27 0 50 10t40.5 27t27.5 40t10 50t-10 50t-27.5 40.5t-40.5 27.5t-50 10h-308v30h308q33 0 61.5 -12.5t50 -34t34 -50t12.5 -61.5t-12.5 -61.5t-34 -49.5
t-50 -33.5t-61.5 -12.5h-158v-30h158q39 0 73 14.5t59.5 40t40.5 59.5t15 73t-15 73t-40.5 59.5t-59.5 40.5t-73 15h-308v30h308q45 0 84.5 -17t69.5 -47t47 -69.5t17 -84.5q0 -36 -11 -68t-30.5 -59t-46.5 -47t-59 -31l62 -113q14 -25 40 -32.5t52 6.5l14 -26
q-18 -10 -37 -12t-37 3t-33.5 17t-24.5 30l-66 119q-8 -2 -16 -3t-16 -1l71 -130q13 -23 33 -38.5t43 -22.5t48.5 -4.5t48.5 15.5l15 -26q-29 -16 -60 -19t-60 5.5t-53.5 27.5t-40.5 48l-79 144h-34l87 -158q18 -35 47 -57.5t63.5 -32.5t71.5 -6t72 22l15 -27
q-40 -21 -83 -25t-83 7.5t-74 38t-56 65.5l-94 173h-65v-270h-30v555zM225 555v-135h158q29 0 48.5 19t19.5 48t-19.5 48.5t-48.5 19.5h-158z" />
    <glyph glyph-name="s" unicode="s" horiz-adv-x="574" 
d="M63 98q35 -35 86 -58.5t111 -23.5q44 0 84.5 13.5t71 38.5t48.5 60t18 77q0 28 -8.5 55.5t-24 51t-38.5 41t-51 26.5l-125 33q-30 8 -46.5 34t-16.5 55q0 22 9 40.5t24.5 31t36.5 19.5t44 7q30 0 57.5 -11.5t44.5 -29.5l-26 -17q-10 11 -31 19.5t-46 8.5q-37 0 -60 -19.5
t-23 -51.5q0 -20 11.5 -37t31.5 -21l126 -36q34 -8 60 -28t44 -47t27.5 -59.5t9.5 -65.5q0 -49 -20.5 -89.5t-54.5 -69t-79.5 -44t-94.5 -15.5q-71 0 -130 25.5t-94 66.5zM158 171q14 -13 41.5 -24t59.5 -11q45 0 73.5 18.5t28.5 50.5q0 20 -11.5 37t-31.5 22l-125 36
q-34 8 -60 28t-44 47t-27.5 59t-9.5 65q0 50 19.5 90.5t51.5 69.5t74.5 44.5t88.5 15.5q60 0 110 -23t82 -58l-23 -20q-31 32 -73 51.5t-96 19.5q-41 0 -77.5 -14t-65 -39t-45 -60t-16.5 -78q0 -29 8 -56.5t24 -50.5t38 -40.5t51 -25.5l126 -33q30 -8 46 -34.5t16 -55.5
q0 -22 -10 -40t-27.5 -30.5t-41 -19.5t-50.5 -7q-40 0 -75 13.5t-55 33.5zM109 135q24 -26 64.5 -42.5t85.5 -16.5q33 0 62 9t51.5 25t35.5 39t13 52q0 19 -5.5 38t-16 35.5t-26 29t-34.5 17.5l-125 33q-24 6 -43 21t-32 35t-20 44t-7 48q0 35 14 64t38 49.5t55 32t66 11.5
q46 0 84 -17.5t61 -42.5l-22 -19q-20 20 -51 34.5t-69 14.5q-29 0 -55 -9t-46 -25.5t-32 -40t-12 -52.5q0 -38 21.5 -73t60.5 -46l125 -33q50 -14 75.5 -57t25.5 -93q0 -35 -15.5 -63.5t-42 -48.5t-61 -31t-72.5 -11q-54 0 -100 20.5t-72 47.5z" />
    <glyph glyph-name="t" unicode="t" horiz-adv-x="574" 
d="M330 555h-30v-555h-30v555h-30v-555h-30v555h-195v30h540v-30h-195v-555h-30v555zM15 705h540v-30h-540v30zM15 645h540v-30h-540v30z" />
    <glyph glyph-name="u" unicode="u" horiz-adv-x="741" 
d="M645 705h30v-420q0 -62 -23.5 -117t-64 -95.5t-95.5 -64t-117 -23.5t-117 23.5t-95.5 64t-64 95.5t-23.5 117v420h30v-420q0 -56 21 -105t58 -86t86 -58t105 -21t105 21t86 58t58 86t21 105v420zM135 705h30v-420q0 -44 16.5 -82t45 -66.5t66.5 -45t82 -16.5
q43 0 81.5 16.5t67 45t45 66.5t16.5 82v420h30v-420q0 -50 -19 -93.5t-51.5 -76t-76.5 -51.5t-93 -19q-50 0 -93.5 19t-76 51.5t-51.5 76t-19 93.5v420zM525 705h30v-420q0 -37 -14 -70t-38.5 -57.5t-57.5 -38.5t-70 -14t-70 14t-57.5 38.5t-38.5 57.5t-14 70v420h30v-420
q0 -31 12 -58.5t32 -47.5t47.5 -32t58.5 -12t58.5 12t47.5 32t32 47.5t12 58.5v420z" />
    <glyph glyph-name="v" unicode="v" horiz-adv-x="704" 
d="M5 705h33l254 -683l17 44l-240 639h33l223 -595l16 43l-207 552h32l191 -509l191 509h31l-264 -705h-46zM380 0h-32l263 705h33zM444 0h-32l264 705h31z" />
    <glyph glyph-name="w" unicode="w" horiz-adv-x="1000" 
d="M505 421l-121 -421h-32l204 705h28l125 -473l137 473h31l-204 -705h-46zM5 705h33l194 -676l15 50l-178 626h33l160 -574l14 48l-142 526h32l125 -473l137 473h31l-204 -705h-46zM320 0h-32l203 705h33zM738 0h-32l203 705h33zM802 0h-32l204 705h31zM553 588l127 -457
l14 48l-125 464zM521 478l129 -449l15 50l-129 451z" />
    <glyph glyph-name="x" unicode="x" horiz-adv-x="722" 
d="M529 0l-178 243l-160 -243h-37l178 270l-18 25l-197 -295h-39l217 321l-18 25l-236 -346h-37l254 372l-243 333h38l513 -705h-37zM164 705h38l158 -217l158 217h38l-177 -243l18 -24l195 267h39l-215 -294l19 -25l232 319h38l-252 -345l263 -360h-37zM603 0l-514 705h39
l514 -705h-39z" />
    <glyph glyph-name="y" unicode="y" horiz-adv-x="648" 
d="M375 259q-8 -2 -15 -2.5t-15 -1.5v-255h-30v255q-8 1 -15 1.5t-15 2.5v-259h-30v266q-44 13 -81.5 40.5t-65 65.5t-43 84.5t-15.5 98.5v150h30v-150q0 -56 19.5 -105t53.5 -86t79.5 -58t97.5 -21q51 0 96.5 21t79.5 58t54 86t20 105v150h30v-150q0 -52 -15.5 -98.5
t-43 -84.5t-65 -65.5t-81.5 -40.5v-266h-30v259zM110 705h30v-150q0 -44 15 -82t40.5 -66.5t60.5 -45t74 -16.5t73.5 16.5t60.5 45t41 66.5t15 82v150h30v-150q0 -50 -17.5 -93.5t-47.5 -76t-70 -51.5t-85 -19t-85 19t-70 51.5t-47.5 76t-17.5 93.5v150zM460 705h30v-150
q0 -37 -12.5 -70t-34.5 -57.5t-51 -38.5t-62 -14t-62 14t-51 38.5t-34.5 57.5t-12.5 70v150h30v-150q0 -31 10 -58.5t28 -47.5t41.5 -32t50.5 -12t50.5 12t41 32t28 47.5t10.5 58.5v150z" />
    <glyph glyph-name="z" unicode="z" horiz-adv-x="630" 
d="M45 585h540v-15l-358 -420h373v-30h-570v30l344 405h-329v30zM30 90h570v-30h-570v30zM30 30h570v-30h-570v30zM45 645h540v-30h-540v30zM45 705h540v-30h-540v30zM188 150l344 405h-39l-345 -405h40zM108 150l345 405h-39l-345 -405h39z" />
    <glyph glyph-name="braceleft" unicode="{" horiz-adv-x="370" 
d="M270 645q-25 0 -42.5 -17.5t-17.5 -42.5v-165q0 -45 -23 -81t-61 -54q38 -19 61 -54.5t23 -80.5v-150q0 -25 17.5 -42.5t42.5 -17.5h90v-30h-90q-38 0 -64 26t-26 64v150q0 25 -9.5 46.5t-26 38t-38 26t-46.5 9.5v30q25 0 46.5 9.5t38 26t26 38t9.5 46.5v165q0 38 26 64
t64 26h90v-30h-90zM270 705q-25 0 -46.5 -9.5t-38 -26t-26 -38t-9.5 -46.5v-165q0 -38 -26 -64t-64 -26v30q25 0 42.5 17.5t17.5 42.5v165q0 31 12 58.5t32 47.5t47.5 32t58.5 12h90v-30h-90zM150 0q0 -25 9.5 -46.5t26 -38t38 -26t46.5 -9.5h90v-30h-90q-31 0 -58.5 12
t-47.5 32t-32 47.5t-12 58.5v150q0 25 -17.5 42.5t-42.5 17.5v30q38 0 64 -26t26 -64v-150z" />
    <glyph glyph-name="bar" unicode="|" horiz-adv-x="222" 
d="M36 -244v994h30v-994h-30zM96 -244v994h30v-994h-30zM156 -244v994h30v-994h-30z" />
    <glyph glyph-name="braceright" unicode="}" horiz-adv-x="370" 
d="M15 645v30h90q38 0 64 -26t26 -64v-165q0 -25 9.5 -46.5t26 -38t38 -26t46.5 -9.5v-30q-25 0 -46.5 -9.5t-38 -26t-26 -38t-9.5 -46.5v-150q0 -38 -26 -64t-64 -26h-90v30h90q25 0 42.5 17.5t17.5 42.5v150q0 45 23 80.5t61 54.5q-38 18 -61 54t-23 81v165
q0 25 -17.5 42.5t-42.5 17.5h-90zM15 705v30h90q31 0 58.5 -12t47.5 -32t32 -47.5t12 -58.5v-165q0 -25 17.5 -42.5t42.5 -17.5v-30q-38 0 -64 26t-26 64v165q0 25 -9.5 46.5t-26 38t-38 26t-46.5 9.5h-90zM255 0q0 -31 -12 -58.5t-32 -47.5t-47.5 -32t-58.5 -12h-90v30h90
q25 0 46.5 9.5t38 26t26 38t9.5 46.5v150q0 38 26 64t64 26v-30q-25 0 -42.5 -17.5t-17.5 -42.5v-150z" />
    <glyph glyph-name="asciitilde" unicode="~" horiz-adv-x="618" 
d="M168 229l5 15q11 35 33 50.5t50 6.5l100 -32q39 -13 72.5 8.5t48.5 69.5l10 32h31l-13 -41q-9 -29 -24.5 -50.5t-36 -35t-45.5 -17t-52 5.5l-100 32q-16 5 -27 -5.5t-19 -32.5l-2 -6h-31zM424 379h31l-7 -23q-11 -35 -33 -51t-50 -7l-100 32q-20 6 -38.5 3.5t-34.5 -12.5
t-28.5 -27.5t-19.5 -40.5l-7 -24h-32l11 33q10 29 26 50.5t37 34.5t45 16t50 -5l100 -32q15 -5 26 5.5t19 33.5z" />
    <glyph glyph-name="uni00A0" unicode="&#xa0;" 
 />
    <glyph glyph-name="exclamdown" unicode="&#xa1;" horiz-adv-x="444" 
d="M323 398q0 -41 -28 -69.5t-69 -28.5t-69.5 28.5t-28.5 69.5t28.5 69t69.5 28t69 -28t28 -69zM293 398q0 29 -19 48t-48 19t-48.5 -19t-19.5 -48t19.5 -48.5t48.5 -19.5t48 19.5t19 48.5zM263 399q0 -16 -10.5 -27t-26.5 -11t-27 11t-11 27t11 26.5t27 10.5t26.5 -10.5
t10.5 -26.5zM238 399q0 12 -12 12t-12 -12t12 -12t12 12zM301 -225h-30v465h30v-465zM241 -225h-30v465h30v-465zM181 -225h-30v465h30v-465z" />
    <glyph glyph-name="cent" unicode="&#xa2;" horiz-adv-x="592" 
d="M447 156q-20 -23 -48.5 -37t-61.5 -14q-30 0 -55.5 11t-45 30.5t-30.5 45t-11 55.5t11 56t30.5 45.5t45 30.5t55.5 11q35 0 64.5 -15.5t49.5 -41.5l-21 -22q-14 22 -40 36v-199q22 13 37 32zM300 -12q-48 6 -89 28.5t-71.5 57t-47.5 79t-17 94.5q0 49 17 93.5t47.5 79
t71.5 57.5t89 30v63h30v-60h7q5 0 11 -0.5t12 -0.5v61h30v-66q43 -9 79.5 -30.5t64.5 -52.5l-19 -22q-32 38 -78 59.5t-100 21.5q-48 0 -90.5 -18.5t-74 -50t-49.5 -74t-18 -90.5t18 -90.5t49.5 -74t74 -49.5t90.5 -18q51 0 94 19.5t75 52.5l19 -24q-27 -26 -61.5 -45
t-73.5 -27v-66h-30v61q-6 0 -12 -0.5t-11 -0.5h-7v-60h-30v63zM487 111q-28 -30 -66.5 -48t-83.5 -18q-42 0 -79 16t-64 43t-43 64t-16 79t16 79t43 64.5t64 43.5t79 16q48 0 88.5 -20t68.5 -55l-22 -20q-24 30 -59 47.5t-76 17.5q-36 0 -67 -13.5t-54.5 -37t-37 -55
t-13.5 -67.5t13.5 -67t37 -54.5t54.5 -37t67 -13.5q40 0 73.5 16t57.5 44zM225 247q0 -37 21 -66t54 -40v212q-33 -11 -54 -40t-21 -66zM337 135q6 0 11.5 0.5t11.5 1.5v221q-6 1 -11.5 1.5t-11.5 0.5q-2 0 -3.5 -0.5t-3.5 -0.5v-224h7z" />
    <glyph glyph-name="sterling" unicode="&#xa3;" horiz-adv-x="592" 
d="M270 510q0 20 9 38t25 31t37.5 20.5t46.5 7.5q38 0 67.5 -12t42.5 -31l-21 -23q-9 14 -32 25t-57 11q-38 0 -63 -19t-25 -48v-90h152v-30h-152v-30h152v-30h-152v-30h152v-30h-152v-120h255v-30h-255v-30h255v-30h-255v-30h255v-30h-285v510zM45 420h105v90
q0 45 18.5 84.5t51 69t75.5 46.5t93 17q62 0 113.5 -20.5t83.5 -55.5l-21 -23q-28 31 -73.5 49.5t-102.5 18.5q-44 0 -81.5 -14.5t-66 -40t-44.5 -59t-16 -72.5v-510h-135v30h105v30h-105v30h105v30h-105v30h105v120h-105v30h105v30h-105v30h105v30h-105v30zM240 0h-30v510
q0 33 14 61.5t38 49.5t56.5 33.5t69.5 12.5q51 0 91.5 -17t63.5 -44l-22 -21q-18 23 -53 37.5t-80 14.5q-31 0 -58 -10t-47 -27t-31.5 -40t-11.5 -50v-510z" />
    <glyph glyph-name="yen" unicode="&#xa5;" horiz-adv-x="592" 
d="M350 352l17 -29l219 382h34l-164 -285h89v-30h-106l-17 -30h123v-30h-140l-25 -44v-36h165v-30h-165v-30h165v-30h-165v-160h-30v297l-233 408h33l149 -263l146 263h33l-163 -291l18 -31l181 322h36zM50 420h89l-164 285h34l251 -437v-268h-30v160h-180v30h180v30h-180
v30h180v12l-39 68h-141v30h123l-17 30h-106v30zM290 278l-245 427h36l239 -419v-286h-30v278z" />
    <glyph glyph-name="brokenbar" unicode="&#xa6;" horiz-adv-x="222" 
d="M36 330v345h30v-345h-30zM66 180v-345h-30v345h30zM96 330v345h30v-345h-30zM126 180v-345h-30v345h30zM156 330v345h30v-345h-30zM186 180v-345h-30v345h30z" />
    <glyph glyph-name="section" unicode="&#xa7;" horiz-adv-x="592" 
d="M169 62q14 -13 40.5 -25t58.5 -14q45 -2 73.5 8.5t30.5 28.5q0 10 -12 18t-31 13l-123 38q-33 10 -58.5 28t-42.5 41.5t-26 50t-8 55.5q2 35 15 64t36 52q-45 51 -43 117q1 43 21.5 77.5t53.5 58t76 35.5t89 11q60 -3 110 -27.5t80 -61.5l-23 -18q-31 33 -72 54t-95 23
q-41 1 -78 -9.5t-66 -31t-47 -49.5t-19 -65q-2 -48 29 -89t88 -58l124 -37q29 -9 44.5 -25.5t15.5 -36.5q-2 -18 -15 -31t-35 -21l28 -9l9 -4q19 11 30 26.5t13 35.5q2 29 -20 56t-60 38l-123 37q-48 14 -74 48t-24 74q1 28 16 51t39 38.5t55.5 24t66.5 7.5q46 -2 84 -21
t59 -45l-22 -17q-20 20 -50 35.5t-68 17.5q-29 1 -55.5 -5.5t-47 -18.5t-33 -29.5t-13.5 -39.5q-1 -29 20.5 -54t59.5 -37l123 -37q49 -15 74 -49t23 -75q-3 -46 -41 -75q7 -4 13 -8t12 -9q44 41 47 95q1 24 -7 47t-23 42.5t-37.5 35t-50.5 24.5l-123 38q-29 8 -45 24.5
t-16 36.5q2 32 35.5 49t80.5 15q30 -2 57.5 -14.5t44.5 -30.5l-28 -17q-8 13 -29 21.5t-46 10.5q-37 2 -61 -9.5t-24 -29.5q0 -10 12.5 -16.5t30.5 -12.5l124 -41q32 -10 57.5 -28t43 -41t26.5 -50t8 -55q-2 -34 -16 -63t-38 -51q48 -51 46 -119q-2 -42 -23 -76t-56.5 -57.5
t-81 -36t-94.5 -10.5q-71 3 -130 30.5t-92 69.5l26 20q33 -36 83 -61.5t110 -28.5q44 -2 84.5 8.5t72 30.5t50.5 48.5t21 63.5q1 47 -30 89.5t-88 60.5l-123 37q-29 8 -45 24.5t-16 36.5q1 18 13 31.5t32 21.5l-22 7q-5 1 -15 5q-16 -12 -25.5 -28t-11.5 -36q-2 -29 20 -54
t60 -37l123 -37q49 -14 74 -48.5t23 -75.5q-2 -29 -18 -51t-42.5 -37t-61.5 -23t-73 -7q-27 1 -52 8t-47.5 17t-40.5 22.5t-30 26.5l21 21q24 -28 63.5 -45.5t84.5 -19.5q33 -1 62.5 5t52.5 18t36.5 29t14.5 38q1 29 -20.5 55.5t-59.5 37.5l-123 37q-48 14 -74 48t-24 74
q2 45 38 77q-6 4 -12 7.5t-12 8.5q-41 -38 -44 -97q-2 -48 28.5 -88.5t87.5 -58.5l125 -37q29 -9 44.5 -25.5t15.5 -36.5q-2 -31 -39.5 -48t-91.5 -15q-40 2 -74.5 17t-53.5 36zM298 336q-34 0 -55.5 -11t-21.5 -28q0 -10 12.5 -16.5t29.5 -11.5l38 -13q35 2 57 11t22 25
q0 10 -12 18.5t-30 13.5z" />
    <glyph glyph-name="dieresis" unicode="&#xa8;" horiz-adv-x="289" 
d="M163 842q0 41 28 69.5t69 28.5t69.5 -28.5t28.5 -69.5t-28.5 -69t-69.5 -28t-69 28t-28 69zM193 842q0 -29 19 -48t48 -19t48.5 19t19.5 48t-19.5 48.5t-48.5 19.5t-48 -19.5t-19 -48.5zM223 841q0 16 10.5 27t26.5 11t27 -11t11 -27t-11 -26.5t-27 -10.5t-26.5 10.5
t-10.5 26.5zM248 841q0 -12 12 -12t12 12t-12 12t-12 -12zM-75 843q0 41 28 69.5t69 28.5t69.5 -28.5t28.5 -69.5t-28.5 -69t-69.5 -28t-69 28t-28 69zM-45 843q0 -29 19 -48t48 -19t48.5 19t19.5 48t-19.5 48.5t-48.5 19.5t-48 -19.5t-19 -48.5zM-15 842q0 16 10.5 27
t26.5 11t27 -11t11 -27t-11 -26.5t-27 -10.5t-26.5 10.5t-10.5 26.5zM10 842q0 -12 12 -12t12 12t-12 12t-12 -12z" />
    <glyph glyph-name="copyright" unicode="&#xa9;" horiz-adv-x="800" 
d="M35 352q0 76 29 143t78.5 117t116.5 79t143 29t143 -29t117 -79t79 -117t29 -143t-29 -143t-79 -116.5t-117 -78.5t-143 -29t-143 29t-116.5 78.5t-78.5 116.5t-29 143zM65 352q0 -70 26.5 -131.5t72 -107t107 -72t131.5 -26.5t131.5 26.5t107.5 72t72.5 107t26.5 131.5
t-26.5 131.5t-72.5 107.5t-107.5 72.5t-131.5 26.5t-131.5 -26.5t-107 -72.5t-72 -107.5t-26.5 -131.5zM95 352q0 64 24 120t65.5 98t97.5 66t120 24t120 -24t98 -66t66 -98t24 -120t-24 -120t-66 -97.5t-98 -65.5t-120 -24t-120 24t-97.5 65.5t-65.5 97.5t-24 120zM125 352
q0 -57 22 -107.5t59.5 -88t88 -59.5t107.5 -22t108 22t88.5 59.5t59.5 88t22 107.5t-22 108t-59.5 88.5t-88.5 59.5t-108 22t-107.5 -22t-88 -59.5t-59.5 -88.5t-22 -108zM561 217q-28 -34 -67 -54t-84 -20q-42 0 -78.5 16.5t-63.5 45t-42.5 66.5t-15.5 82q0 43 15.5 81.5
t42.5 67t63.5 45t78.5 16.5q44 0 81 -18.5t65 -50.5l-29 -15q-22 25 -52 39.5t-65 14.5t-66 -14t-54 -38.5t-36.5 -57.5t-13.5 -70t13.5 -70t36.5 -57.5t54 -38.5t66 -14q36 0 67.5 15.5t54.5 41.5zM507 247q-18 -20 -43 -32t-54 -12t-54.5 12t-44.5 32t-30 47.5t-11 58.5
t11 58.5t30 47.5t44.5 32t54.5 12q53 0 89 -38l-29 -15q-13 11 -28 17t-32 6q-23 0 -43 -9.5t-35 -26t-23.5 -38t-8.5 -46.5t8.5 -46.5t23.5 -38t35 -26t43 -9.5q20 0 37 7.5t31 21.5z" />
    <glyph glyph-name="ordfeminine" unicode="&#xaa;" horiz-adv-x="349" 
d="M95 480l88 225h46l88 -225h-32l-79 203l-17 -43l63 -160h-33l-47 117l-46 -117h-31zM30 480l88 225h32l-88 -225h-32z" />
    <glyph glyph-name="guillemotleft" unicode="&#xab;" horiz-adv-x="538" 
d="M26 247l165 233l24 -17l-152 -216l152 -216l-24 -17zM269 247l165 233l24 -17l-152 -216l152 -216l-24 -17zM100 248l140 197l24 -17l-127 -180l127 -182l-24 -17zM343 248l140 197l24 -17l-127 -180l127 -182l-24 -17z" />
    <glyph glyph-name="logicalnot" unicode="&#xac;" horiz-adv-x="666" 
d="M60 345h555v-195h-30v165h-30v-165h-30v165h-30v-165h-30v165h-405v30zM60 465h555v-30h-555v30zM60 405h555v-30h-555v30z" />
    <glyph glyph-name="registered" unicode="&#xae;" horiz-adv-x="800" 
d="M35 352q0 76 29 143t78.5 117t116.5 79t143 29t143 -29t117 -79t79 -117t29 -143t-29 -143t-79 -116.5t-117 -78.5t-143 -29t-143 29t-116.5 78.5t-78.5 116.5t-29 143zM65 352q0 -70 26.5 -131.5t72 -107t107 -72t131.5 -26.5t131.5 26.5t107.5 72t72.5 107t26.5 131.5
t-26.5 131.5t-72.5 107.5t-107.5 72.5t-131.5 26.5t-131.5 -26.5t-107 -72.5t-72 -107.5t-26.5 -131.5zM95 352q0 64 24 120t65.5 98t97.5 66t120 24t120 -24t98 -66t66 -98t24 -120t-24 -120t-66 -97.5t-98 -65.5t-120 -24t-120 24t-97.5 65.5t-65.5 97.5t-24 120zM125 352
q0 -57 22 -107.5t59.5 -88t88 -59.5t107.5 -22t108 22t88.5 59.5t59.5 88t22 107.5t-22 108t-59.5 88.5t-88.5 59.5t-108 22t-107.5 -22t-88 -59.5t-59.5 -88.5t-22 -108zM255 165v335h173q32 0 55 -23t23 -55q0 -16 -6 -30t-16.5 -24.5t-25 -16.5t-30.5 -6h-83v-30h83
q22 0 41.5 8.5t34.5 23t23.5 34t8.5 41.5t-8.5 41.5t-23.5 34.5t-34.5 23.5t-41.5 8.5h-173v30h173q28 0 53.5 -11t44 -29.5t29.5 -44t11 -53.5q0 -43 -24.5 -77.5t-62.5 -49.5h2l70 -130h-35l-67 122q-5 -1 -10.5 -1.5t-10.5 -0.5h-11l66 -120h-36l-65 120h-37v-120h-30
v305h-30v-305h-30zM345 470v-95h83q20 0 34 13.5t14 33.5t-14 34t-34 14h-83z" />
    <glyph glyph-name="macron" unicode="&#xaf;" horiz-adv-x="260" 
d="M-45 690h345v-30h-345v30zM-45 630h345v-30h-345v30z" />
    <glyph glyph-name="degree" unicode="&#xb0;" horiz-adv-x="400" 
d="M28 547q0 36 13.5 67.5t37 55t54.5 37t67 13.5t67.5 -13.5t55 -37t37 -55t13.5 -67.5t-13.5 -67t-37 -54.5t-55 -37t-67.5 -13.5t-67 13.5t-54.5 37t-37 54.5t-13.5 67zM58 547q0 -30 11 -55.5t30.5 -45t45 -30.5t55.5 -11t56 11t45.5 30.5t30.5 45t11 55.5t-11 56
t-30.5 45.5t-45.5 30.5t-56 11t-55.5 -11t-45 -30.5t-30.5 -45.5t-11 -56zM88 547q0 23 9 43.5t24 36t35.5 24.5t43.5 9t43.5 -9t36 -24.5t24.5 -36t9 -43.5t-9 -43.5t-24.5 -35.5t-36 -24t-43.5 -9t-43.5 9t-35.5 24t-24 35.5t-9 43.5zM118 547q0 -35 23.5 -58.5
t58.5 -23.5t59 23.5t24 58.5t-24 59t-59 24t-58.5 -24t-23.5 -59z" />
    <glyph glyph-name="plusminus" unicode="&#xb1;" horiz-adv-x="666" 
d="M60 345h555v-30h-202v-120h-30v120h-30v-120h-30v120h-30v-120h-30v120h-203v30zM60 465h203v119h30v-119h30v119h30v-119h30v119h30v-119h202v-30h-555v30zM60 105h555v-30h-555v30zM60 405h555v-30h-555v30zM60 165h555v-30h-555v30zM60 45h555v-30h-555v30z" />
    <glyph glyph-name="uni00B2" unicode="&#xb2;" horiz-adv-x="385" 
d="M90 585q0 31 30.5 53t74.5 22t74.5 -22t30.5 -53q0 -32 -32 -54l-199 -156h48l170 133q20 14 31.5 34t11.5 43q0 22 -10.5 41t-29 33t-43 22.5t-52.5 8.5t-52.5 -8.5t-43 -22.5t-29 -33t-10.5 -41h-30q0 28 13 52.5t35.5 43t52.5 29t64 10.5t64 -10.5t52.5 -29t35.5 -43
t13 -52.5q0 -30 -14.5 -56t-40.5 -45l-139 -109h194v-30h-338v30l228 180q20 13 20 30q0 19 -22 32t-53 13t-53 -13t-22 -32h-30zM22 315h338v-30h-338v30z" />
    <glyph glyph-name="uni00B3" unicode="&#xb3;" horiz-adv-x="385" 
d="M282 504l5 4q20 14 31.5 34t11.5 43q0 22 -10.5 41t-29 33t-43 22.5t-52.5 8.5t-52.5 -8.5t-43 -22.5t-29 -33t-10.5 -41h-30q0 28 13 52.5t35.5 43t52.5 29t64 10.5t64 -10.5t52.5 -29t35.5 -43t13 -52.5q0 -26 -10.5 -48t-29.5 -40q19 -18 29.5 -40.5t10.5 -47.5
q0 -28 -13 -52.5t-35.5 -43t-52.5 -29t-64 -10.5t-64 10.5t-52.5 29t-35.5 43t-13 52.5h30q0 -22 10.5 -41t29 -33.5t43 -22.5t52.5 -8t52.5 8t43 22.5t29 33.5t10.5 41q0 23 -11.5 43t-31.5 34l-5 4v14zM120 409q0 -19 22 -32t53 -13t53 13t22 32q0 17 -20 30l-58 47v24
l58 45q20 13 20 30q0 19 -22 32t-53 13t-53 -13t-22 -32h-30q0 31 30.5 53t74.5 22t74.5 -22t30.5 -53q0 -32 -32 -54l-44 -34l44 -34q32 -22 32 -54q0 -31 -30.5 -53t-74.5 -22t-74.5 22t-30.5 53h30z" />
    <glyph glyph-name="acute" unicode="&#xb4;" horiz-adv-x="260" 
d="M39 570l103 135h37l-103 -135h-37zM114 570l102 135h39l-103 -135h-38zM189 570l103 135h38l-103 -135h-38z" />
    <glyph glyph-name="paragraph" unicode="&#xb6;" horiz-adv-x="620" 
d="M19 532q0 36 17 67.5t47 55t70.5 37t87.5 13.5h374v-30h-344v-675q0 -31 -22 -53t-53 -22v30q19 0 32 13t13 32v360q-47 0 -87.5 13.5t-70.5 37t-47 54.5t-17 67zM301 645h314v-30h-84v-750h-30v750h-30v-750h-30v750h-110v-615q0 -28 -10.5 -52.5t-29 -43t-43 -29.5
t-52.5 -11v31q22 0 41 8t33 22.5t22.5 33.5t8.5 41v645z" />
    <glyph glyph-name="periodcentered" unicode="&#xb7;" 
d="M50 277q0 41 28 69.5t69 28.5t69.5 -28.5t28.5 -69.5t-28.5 -69t-69.5 -28t-69 28t-28 69zM80 277q0 -29 19 -48t48 -19t48.5 19t19.5 48t-19.5 48.5t-48.5 19.5t-48 -19.5t-19 -48.5zM110 276q0 16 10.5 27t26.5 11t27 -11t11 -27t-11 -26.5t-27 -10.5t-26.5 10.5
t-10.5 26.5zM135 276q0 -12 12 -12t12 12t-12 12t-12 -12z" />
    <glyph glyph-name="cedilla" unicode="&#xb8;" horiz-adv-x="260" 
d="M15 -81l56 81h36l-44 -64q9 2 19 3t21 1l40 60h36l-42 -62q25 -4 46.5 -13.5t37.5 -23t25 -30.5t9 -36q0 -22 -12 -41t-32 -33.5t-47.5 -22.5t-58.5 -8q-36 0 -68 6.5t-58 17.5l15 26q23 -9 51 -14.5t60 -5.5q25 0 46.5 6t38 16t26 24t9.5 29t-9.5 29t-26 24t-38 16
t-46.5 6q-34 0 -62 -11zM71 -126q13 5 36 5q15 0 30.5 -2.5t28 -7.5t21 -13.5t8.5 -20.5q0 -19 -26 -32t-64 -13q-28 0 -52.5 3.5t-41.5 9.5l14 24q13 -3 34 -5t46 -2t42.5 4.5t17.5 10.5q0 4 -5.5 8t-14 6t-18.5 3.5t-18 1.5q-14 0 -18 -1z" />
    <glyph glyph-name="uni00B9" unicode="&#xb9;" horiz-adv-x="385" 
d="M33 595l162 110h30v-420h-30v311l-102 -69l-20 22l122 82v37l-142 -96zM255 705h30v-420h-30v420z" />
    <glyph glyph-name="ordmasculine" unicode="&#xba;" horiz-adv-x="285" 
d="M22 593q0 25 9.5 46.5t26 38t38 26t46.5 9.5t46.5 -9.5t38 -26t26 -38t9.5 -46.5t-9.5 -46.5t-26 -38t-38 -26t-46.5 -9.5t-46.5 9.5t-38 26t-26 38t-9.5 46.5zM52 593q0 -38 26 -64t64 -26t64 26t26 64t-26 64t-64 26t-64 -26t-26 -64zM82 593q0 25 17.5 42.5t42.5 17.5
t42.5 -17.5t17.5 -42.5t-17.5 -42.5t-42.5 -17.5t-42.5 17.5t-17.5 42.5zM112 593q0 -13 8.5 -21.5t21.5 -8.5t21.5 8.5t8.5 21.5t-8.5 21.5t-21.5 8.5t-21.5 -8.5t-8.5 -21.5z" />
    <glyph glyph-name="guillemotright" unicode="&#xbb;" horiz-adv-x="538" 
d="M507 247l-165 -233l-24 17l152 216l-152 216l24 17zM264 247l-165 -233l-24 17l152 216l-152 216l24 17zM433 246l-140 -197l-24 17l126 180l-126 182l24 17zM190 246l-140 -197l-24 17l126 180l-126 182l24 17z" />
    <glyph glyph-name="onequarter" unicode="&#xbc;" horiz-adv-x="889" 
d="M510 165l202 255h53v-420h-30v75h-225v30h225v30h-225v30zM259 -15l401 720l26 -13l-401 -722zM207 16l401 719l26 -15l-402 -719zM9 595l162 110h30v-420h-30v311l-102 -69l-20 22l122 82v37l-142 -96zM795 420h30v-255h60v-30h-60v-30h60v-30h-60v-75h-30v420zM231 705
h30v-420h-30v420zM735 165v139l-112 -139h112zM582 165l153 187v49l-187 -236h34z" />
    <glyph glyph-name="onehalf" unicode="&#xbd;" horiz-adv-x="889" 
d="M615 300q0 31 30.5 53t74.5 22t74.5 -22t30.5 -53q0 -32 -32 -54l-199 -156h48l170 133q20 14 31.5 34t11.5 43q0 22 -10.5 41t-29 33t-43 22.5t-52.5 8.5t-52.5 -8.5t-43 -22.5t-29 -33t-10.5 -41h-30q0 28 13 52.5t35.5 43t52.5 29t64 10.5t64 -10.5t52.5 -29t35.5 -43
t13 -52.5q0 -30 -14.5 -56t-40.5 -45l-139 -109h194v-30h-338v30l228 180q20 13 20 30q0 19 -22 32t-53 13t-53 -13t-22 -32h-30zM244 -15l401 720l26 -13l-401 -722zM192 16l401 719l26 -15l-402 -719zM9 595l162 110h30v-420h-30v311l-102 -69l-20 22l122 82v37l-142 -96z
M231 705h30v-420h-30v420zM547 30h338v-30h-338v30z" />
    <glyph glyph-name="threequarters" unicode="&#xbe;" horiz-adv-x="889" 
d="M510 165l202 255h53v-420h-30v75h-225v30h225v30h-225v30zM267 504l5 4q20 14 31.5 34t11.5 43q0 22 -10.5 41t-29 33t-43 22.5t-52.5 8.5t-52.5 -8.5t-43 -22.5t-29 -33t-10.5 -41h-30q0 28 13 52.5t35.5 43t52.5 29t64 10.5t64 -10.5t52.5 -29t35.5 -43t13 -52.5
q0 -26 -10.5 -48t-29.5 -40q19 -18 29.5 -40.5t10.5 -47.5q0 -28 -13 -52.5t-35.5 -43t-52.5 -29t-64 -10.5t-64 10.5t-52.5 29t-35.5 43t-13 52.5h30q0 -22 10.5 -41t29 -33.5t43 -22.5t52.5 -8t52.5 8t43 22.5t29 33.5t10.5 41q0 23 -11.5 43t-31.5 34l-5 4v14zM274 -15
l401 720l26 -13l-401 -722zM222 16l401 719l26 -15l-402 -719zM105 409q0 -19 22 -32t53 -13t53 13t22 32q0 17 -20 30l-58 47v24l58 45q20 13 20 30q0 19 -22 32t-53 13t-53 -13t-22 -32h-30q0 31 30.5 53t74.5 22t74.5 -22t30.5 -53q0 -32 -32 -54l-44 -34l44 -34
q32 -22 32 -54q0 -31 -30.5 -53t-74.5 -22t-74.5 22t-30.5 53h30zM795 420h30v-255h60v-30h-60v-30h60v-30h-60v-75h-30v420zM735 165v139l-112 -139h112zM582 165l153 187v49l-187 -236h34z" />
    <glyph glyph-name="questiondown" unicode="&#xbf;" horiz-adv-x="556" 
d="M364 398q0 -41 -28 -69.5t-69 -28.5t-69.5 28.5t-28.5 69.5t28.5 69t69.5 28t69 -28t28 -69zM221 224l-136 -150q-17 -18 -22.5 -44t-5.5 -52q0 -39 16 -73.5t44 -60t65.5 -40t81.5 -14.5q43 0 81 14.5t66.5 40t44.5 60t16 73.5h30q0 -45 -19 -84.5t-51.5 -69.5t-76 -47
t-91.5 -17q-50 0 -93 17t-75 47t-50.5 69.5t-18.5 84.5q0 30 6 59.5t26 49.5l132 146v29h30v-38zM281 200l-143 -156q-12 -13 -16.5 -30.5t-4.5 -35.5q0 -27 11.5 -50t31 -40.5t46.5 -27.5t58 -10t58 10t47 27.5t31.5 40.5t11.5 50h30q0 -33 -14.5 -61.5t-38.5 -50
t-56.5 -34t-68.5 -12.5q-37 0 -69.5 12.5t-56.5 34t-37.5 50t-13.5 61.5q0 22 5 43.5t20 37.5l139 153v50h30v-62zM341 177l-151 -162q-11 -11 -12 -20t-1 -17q0 -29 24.5 -48.5t62.5 -19.5t63 19.5t25 48.5h30q0 -20 -9.5 -38t-26 -31.5t-37.5 -21t-45 -7.5
q-25 0 -46.5 7.5t-37 21t-24.5 31.5t-9 38q0 14 3.5 27.5t13.5 23.5l147 160v73h30v-85zM334 398q0 29 -19 48t-48 19t-48.5 -19t-19.5 -48t19.5 -48.5t48.5 -19.5t48 19.5t19 48.5zM304 399q0 -16 -10.5 -27t-26.5 -11t-27 11t-11 27t11 26.5t27 10.5t26.5 -10.5
t10.5 -26.5z" />
    <glyph glyph-name="Agrave" unicode="&#xc0;" horiz-adv-x="741" 
d="M410 705h46l247 -705h-33l-238 681l-16 -45l223 -636h-33l-206 589l-15 -43l189 -546h-32l-52 150h-244l-52 -150h-31zM345 705h32l-246 -705h-33zM281 705h32l-247 -705h-31zM299 300h139l-69 201zM257 180h223l-10 30h-203zM359 765l-103 135h39l102 -135h-38zM278 240
h181l-10 30h-161zM284 765l-103 135h38l103 -135h-38zM435 765l-103 135h37l103 -135h-37z" />
    <glyph glyph-name="Aacute" unicode="&#xc1;" horiz-adv-x="741" 
d="M410 705h46l247 -705h-33l-238 681l-16 -45l223 -636h-33l-206 589l-15 -43l189 -546h-32l-52 150h-244l-52 -150h-31zM345 705h32l-246 -705h-33zM281 705h32l-247 -705h-31zM299 300h139l-69 201zM257 180h223l-10 30h-203zM345 765l102 135h39l-103 -135h-38zM278 240
h181l-10 30h-161zM420 765l103 135h38l-103 -135h-38zM270 765l103 135h37l-103 -135h-37z" />
    <glyph glyph-name="Acircumflex" unicode="&#xc2;" horiz-adv-x="741" 
d="M410 705h46l247 -705h-33l-238 681l-16 -45l223 -636h-33l-206 589l-15 -43l189 -546h-32l-52 150h-244l-52 -150h-31zM345 705h32l-246 -705h-33zM281 705h32l-247 -705h-31zM299 300h139l-69 201zM318 908l110 -143h-31l-30 39l-29 -39h-31l45 59l-16 21l-61 -80h-33
l77 102l-15 20l-93 -122h-32l109 143h30zM257 180h223l-10 30h-203zM278 240h181l-10 30h-161zM384 908l109 -143h-33l-109 143h33zM447 908l109 -143h-32l-109 143h32z" />
    <glyph glyph-name="Atilde" unicode="&#xc3;" horiz-adv-x="741" 
d="M410 705h46l247 -705h-33l-238 681l-16 -45l223 -636h-33l-206 589l-15 -43l189 -546h-32l-52 150h-244l-52 -150h-31zM345 705h32l-246 -705h-33zM281 705h32l-247 -705h-31zM299 300h139l-69 201zM225 765l5 15q11 35 33 50.5t50 6.5l100 -32q39 -13 72.5 8.5
t48.5 69.5l10 32h31l-13 -41q-9 -29 -24.5 -50.5t-36 -35t-45.5 -17t-52 5.5l-100 32q-16 5 -27 -5.5t-19 -32.5l-2 -6h-31zM481 915h31l-7 -23q-11 -35 -33 -51t-50 -7l-100 32q-20 6 -38.5 3.5t-34.5 -12.5t-28.5 -27.5t-19.5 -40.5l-7 -24h-32l11 33q10 29 26 50.5
t37 34.5t45 16t50 -5l100 -32q15 -5 26 5.5t19 33.5zM257 180h223l-10 30h-203zM278 240h181l-10 30h-161z" />
    <glyph glyph-name="Adieresis" unicode="&#xc4;" horiz-adv-x="741" 
d="M410 705h46l247 -705h-33l-238 681l-16 -45l223 -636h-33l-206 589l-15 -43l189 -546h-32l-52 150h-244l-52 -150h-31zM392 842q0 41 28 69.5t69 28.5t69.5 -28.5t28.5 -69.5t-28.5 -69t-69.5 -28t-69 28t-28 69zM154 843q0 41 28 69.5t69 28.5t69.5 -28.5t28.5 -69.5
t-28.5 -69t-69.5 -28t-69 28t-28 69zM345 705h32l-246 -705h-33zM281 705h32l-247 -705h-31zM422 842q0 -29 19 -48t48 -19t48.5 19t19.5 48t-19.5 48.5t-48.5 19.5t-48 -19.5t-19 -48.5zM184 843q0 -29 19 -48t48 -19t48.5 19t19.5 48t-19.5 48.5t-48.5 19.5t-48 -19.5
t-19 -48.5zM299 300h139l-69 201zM257 180h223l-10 30h-203zM278 240h181l-10 30h-161zM452 841q0 16 10.5 27t26.5 11t27 -11t11 -27t-11 -26.5t-27 -10.5t-26.5 10.5t-10.5 26.5zM214 842q0 16 10.5 27t26.5 11t27 -11t11 -27t-11 -26.5t-27 -10.5t-26.5 10.5t-10.5 26.5z
M239 842q0 -12 12 -12t12 12t-12 12t-12 -12zM477 841q0 -12 12 -12t12 12t-12 12t-12 -12z" />
    <glyph glyph-name="Aring" unicode="&#xc5;" horiz-adv-x="741" 
d="M410 705h46l247 -705h-33l-238 681l-16 -45l223 -636h-33l-206 589l-15 -43l189 -546h-32l-52 150h-244l-52 -150h-31zM258 858q0 23 9 43.5t24 36t35.5 24.5t43.5 9t43.5 -9t36 -24.5t24.5 -36t9 -43.5t-9 -43.5t-24.5 -35.5t-36 -24t-43.5 -9t-43.5 9t-35.5 24
t-24 35.5t-9 43.5zM345 705h32l-246 -705h-33zM281 705h32l-247 -705h-31zM288 858q0 -35 23.5 -58.5t58.5 -23.5t59 23.5t24 58.5t-24 59t-59 24t-58.5 -24t-23.5 -59zM299 300h139l-69 201zM257 180h223l-10 30h-203zM278 240h181l-10 30h-161z" />
    <glyph glyph-name="AE" unicode="&#xc6;" horiz-adv-x="992" 
d="M441 150h-186l-91 -150h-31l427 705h370v-30h-339v-30h339v-30h-339v-30h339v-30h-339v-120h324v-30h-324v-30h324v-30h-324v-30h324v-30h-324v-135h354v-30h-354v-30h354v-30h-354v-30h354v-30h-384v655l-30 -49v-606h-30v556l-32 -52h2v-504h-30v150zM495 705h32
l-426 -705h-33zM431 705h32l-427 -705h-31zM441 300v158l-96 -158h96zM273 180h168v30h-150zM309 240h132v30h-114z" />
    <glyph glyph-name="Ccedilla" unicode="&#xc7;" horiz-adv-x="685" 
d="M285 -81l51 74q-63 13 -116 46t-92 80.5t-61 107t-22 125.5q0 76 29 143t78.5 117t116.5 79t143 29q72 0 134 -25t112 -70l-22 -19q-45 40 -102 62t-122 22q-70 0 -131.5 -26.5t-107 -72.5t-72 -107.5t-26.5 -131.5t26.5 -131.5t72 -107t107 -72t131.5 -26.5q73 0 136 28
t110 77l22 -19q-46 -49 -107.5 -79t-132.5 -35l-33 -49q25 -4 46.5 -13.5t37.5 -23t25 -30.5t9 -36q0 -22 -12 -41t-32 -33.5t-47.5 -22.5t-58.5 -8q-36 0 -68 6.5t-58 17.5l15 26q23 -9 51 -14.5t60 -5.5q25 0 46.5 6t38 16t26 24t9.5 29t-9.5 29t-26 24t-38 16t-46.5 6
q-34 0 -62 -11zM631 136q-42 -42 -98 -66.5t-121 -24.5q-64 0 -120 24t-97.5 65.5t-65.5 97.5t-24 120t24 120t65.5 98t97.5 66t120 24q57 0 108 -19.5t92 -54.5l-25 -19q-36 29 -80.5 46t-94.5 17q-57 0 -107.5 -22t-88 -59.5t-59.5 -88.5t-22 -108t22 -107.5t59.5 -88
t88 -59.5t107.5 -22t106.5 21t87.5 57zM581 171q-33 -31 -76 -48.5t-93 -17.5q-51 0 -96 19.5t-78.5 53t-53 78.5t-19.5 96t19.5 96.5t53 79t78.5 53t96 19.5q43 0 81.5 -13.5t70.5 -37.5l-25 -20q-27 20 -59.5 30.5t-68.5 10.5q-45 0 -84.5 -17t-69 -47t-46.5 -69.5
t-17 -84.5t17 -84.5t46.5 -69t69 -46.5t84.5 -17q42 0 78.5 14t65.5 40zM341 -126q13 5 36 5q15 0 30.5 -2.5t28 -7.5t21 -13.5t8.5 -20.5q0 -19 -26 -32t-64 -13q-28 0 -52.5 3.5t-41.5 9.5l14 24q13 -3 34 -5t46 -2t42.5 4.5t17.5 10.5q0 4 -5.5 8t-14 6t-18.5 3.5
t-18 1.5q-14 0 -18 -1zM403 -14h-17.5t-17.5 2l-35 -52q9 2 19 3t21 1z" />
    <glyph glyph-name="Egrave" unicode="&#xc8;" horiz-adv-x="630" 
d="M195 555h-30v-555h-30v555h-30v-555h-30v585h480v-30h-330v-120h315v-30h-315v-30h315v-30h-315v-30h315v-30h-315v-135h345v-30h-345v-30h345v-30h-345v-30h345v-30h-375v555zM75 705h480v-30h-480v30zM75 645h480v-30h-480v30zM304 765l-103 135h39l102 -135h-38z
M229 765l-103 135h38l103 -135h-38zM380 765l-103 135h37l103 -135h-37z" />
    <glyph glyph-name="Eacute" unicode="&#xc9;" horiz-adv-x="630" 
d="M195 555h-30v-555h-30v555h-30v-555h-30v585h480v-30h-330v-120h315v-30h-315v-30h315v-30h-315v-30h315v-30h-315v-135h345v-30h-345v-30h345v-30h-345v-30h345v-30h-375v555zM75 705h480v-30h-480v30zM75 645h480v-30h-480v30zM293 765l102 135h39l-103 -135h-38z
M368 765l103 135h38l-103 -135h-38zM218 765l103 135h37l-103 -135h-37z" />
    <glyph glyph-name="Ecircumflex" unicode="&#xca;" horiz-adv-x="630" 
d="M195 555h-30v-555h-30v555h-30v-555h-30v585h480v-30h-330v-120h315v-30h-315v-30h315v-30h-315v-30h315v-30h-315v-135h345v-30h-345v-30h345v-30h-345v-30h345v-30h-375v555zM75 705h480v-30h-480v30zM75 645h480v-30h-480v30zM263 908l110 -143h-31l-30 39l-29 -39
h-31l45 59l-16 21l-61 -80h-33l77 102l-15 20l-93 -122h-32l109 143h30zM329 908l109 -143h-33l-109 143h33zM392 908l109 -143h-32l-109 143h32z" />
    <glyph glyph-name="Edieresis" unicode="&#xcb;" horiz-adv-x="630" 
d="M195 555h-30v-555h-30v555h-30v-555h-30v585h480v-30h-330v-120h315v-30h-315v-30h315v-30h-315v-30h315v-30h-315v-135h345v-30h-345v-30h345v-30h-345v-30h345v-30h-375v555zM337 842q0 41 28 69.5t69 28.5t69.5 -28.5t28.5 -69.5t-28.5 -69t-69.5 -28t-69 28t-28 69z
M99 843q0 41 28 69.5t69 28.5t69.5 -28.5t28.5 -69.5t-28.5 -69t-69.5 -28t-69 28t-28 69zM367 842q0 -29 19 -48t48 -19t48.5 19t19.5 48t-19.5 48.5t-48.5 19.5t-48 -19.5t-19 -48.5zM129 843q0 -29 19 -48t48 -19t48.5 19t19.5 48t-19.5 48.5t-48.5 19.5t-48 -19.5
t-19 -48.5zM75 705h480v-30h-480v30zM75 645h480v-30h-480v30zM397 841q0 16 10.5 27t26.5 11t27 -11t11 -27t-11 -26.5t-27 -10.5t-26.5 10.5t-10.5 26.5zM159 842q0 16 10.5 27t26.5 11t27 -11t11 -27t-11 -26.5t-27 -10.5t-26.5 10.5t-10.5 26.5zM184 842q0 -12 12 -12
t12 12t-12 12t-12 -12zM422 841q0 -12 12 -12t12 12t-12 12t-12 -12z" />
    <glyph glyph-name="Igrave" unicode="&#xcc;" 
d="M135 705h30v-705h-30v705zM195 705h30v-705h-30v705zM75 705h30v-705h-30v705zM214 765l-103 135h37l103 -135h-37zM138 765l-103 135h39l102 -135h-38zM63 765l-103 135h38l103 -135h-38z" />
    <glyph glyph-name="Iacute" unicode="&#xcd;" 
d="M135 705h30v-705h-30v705zM195 705h30v-705h-30v705zM75 705h30v-705h-30v705zM50 765l103 135h37l-103 -135h-37zM125 765l102 135h39l-103 -135h-38zM200 765l103 135h38l-103 -135h-38z" />
    <glyph glyph-name="Icircumflex" unicode="&#xce;" 
d="M135 705h30v-705h-30v705zM195 705h30v-705h-30v705zM75 705h30v-705h-30v705zM97 908l110 -143h-31l-30 39l-29 -39h-31l45 59l-16 21l-61 -80h-33l77 102l-15 20l-93 -122h-32l109 143h30zM163 908l109 -143h-33l-109 143h33zM226 908l109 -143h-32l-109 143h32z" />
    <glyph glyph-name="Idieresis" unicode="&#xcf;" 
d="M135 705h30v-705h-30v705zM195 705h30v-705h-30v705zM75 705h30v-705h-30v705zM168 842q0 41 28 69.5t69 28.5t69.5 -28.5t28.5 -69.5t-28.5 -69t-69.5 -28t-69 28t-28 69zM198 842q0 -29 19 -48t48 -19t48.5 19t19.5 48t-19.5 48.5t-48.5 19.5t-48 -19.5t-19 -48.5z
M228 841q0 16 10.5 27t26.5 11t27 -11t11 -27t-11 -26.5t-27 -10.5t-26.5 10.5t-10.5 26.5zM253 841q0 -12 12 -12t12 12t-12 12t-12 -12zM-70 843q0 41 28 69.5t69 28.5t69.5 -28.5t28.5 -69.5t-28.5 -69t-69.5 -28t-69 28t-28 69zM-40 843q0 -29 19 -48t48 -19t48.5 19
t19.5 48t-19.5 48.5t-48.5 19.5t-48 -19.5t-19 -48.5zM-10 842q0 16 10.5 27t26.5 11t27 -11t11 -27t-11 -26.5t-27 -10.5t-26.5 10.5t-10.5 26.5zM15 842q0 -12 12 -12t12 12t-12 12t-12 -12z" />
    <glyph glyph-name="Eth" unicode="&#xd0;" horiz-adv-x="759" 
d="M195 555h-30v-555h-30v555h-30v-555h-30v285h-30v30h30v30h-30v30h30v30h-30v30h30v150h282q51 0 96.5 -18t79 -49.5t53 -74t19.5 -91.5t-19.5 -91.5t-53 -73.5t-79 -49t-96.5 -18h-132v-30h132q57 0 108 20.5t88.5 55.5t59.5 83t22 103t-22 103t-59.5 83.5t-88.5 56
t-108 20.5h-282v30h282q64 0 120 -22.5t98 -62.5t66 -93.5t24 -114.5q0 -62 -24 -115t-66 -92.5t-98 -62t-120 -22.5h-132v-30h132q70 0 131.5 25t107.5 68.5t72.5 102t26.5 126.5t-26.5 127t-72.5 102.5t-107.5 68.5t-131.5 25h-282v30h282q76 0 143 -27.5t117 -75t79 -112
t29 -138.5t-29 -138t-79 -111.5t-117 -75t-143 -27.5h-162v555zM225 555v-120h140v-30h-140v-30h140v-30h-140v-30h140v-30h-140v-135h131q45 0 84.5 15.5t69.5 42.5t47 64t17 80t-17 80t-47 64.5t-69.5 43t-84.5 15.5h-131z" />
    <glyph glyph-name="Ntilde" unicode="&#xd1;" horiz-adv-x="815" 
d="M225 542v-542h-30v705h37l353 -643v58l-316 585h33l283 -523v523h30v-705h-30l-360 651v-51l329 -600h-35zM135 705h30v-705h-30v705zM75 705h30v-705h-30v705zM645 705h30v-705h-30v705zM705 705h30v-705h-30v705zM255 765l5 15q11 35 33 50.5t50 6.5l100 -32
q39 -13 72.5 8.5t48.5 69.5l10 32h31l-13 -41q-9 -29 -24.5 -50.5t-36 -35t-45.5 -17t-52 5.5l-100 32q-16 5 -27 -5.5t-19 -32.5l-2 -6h-31zM511 915h31l-7 -23q-11 -35 -33 -51t-50 -7l-100 32q-20 6 -38.5 3.5t-34.5 -12.5t-28.5 -27.5t-19.5 -40.5l-7 -24h-32l11 33
q10 29 26 50.5t37 34.5t45 16t50 -5l100 -32q15 -5 26 5.5t19 33.5z" />
    <glyph glyph-name="Ograve" unicode="&#xd2;" horiz-adv-x="832" 
d="M45 352q0 76 29 143t78.5 117t116.5 79t143 29t143 -29t117 -79t79 -117t29 -143t-29 -143t-79 -116.5t-117 -78.5t-143 -29t-143 29t-116.5 78.5t-78.5 116.5t-29 143zM75 352q0 -70 26.5 -131.5t72 -107t107 -72t131.5 -26.5t131.5 26.5t107.5 72t72.5 107t26.5 131.5
t-26.5 131.5t-72.5 107.5t-107.5 72.5t-131.5 26.5t-131.5 -26.5t-107 -72.5t-72 -107.5t-26.5 -131.5zM105 352q0 64 24 120t65.5 98t97.5 66t120 24t120 -24t98 -66t66 -98t24 -120t-24 -120t-66 -97.5t-98 -65.5t-120 -24t-120 24t-97.5 65.5t-65.5 97.5t-24 120z
M135 352q0 -57 22 -107.5t59.5 -88t88 -59.5t107.5 -22t108 22t88.5 59.5t59.5 88t22 107.5t-22 108t-59.5 88.5t-88.5 59.5t-108 22t-107.5 -22t-88 -59.5t-59.5 -88.5t-22 -108zM165 352q0 51 19.5 96.5t53 79t78.5 53t96 19.5t96.5 -19.5t79 -53t53 -79t19.5 -96.5
t-19.5 -96t-53 -78.5t-79 -53t-96.5 -19.5t-96 19.5t-78.5 53t-53 78.5t-19.5 96zM194 352q0 -45 17 -84.5t46.5 -69t69 -46.5t84.5 -17t84.5 17t69.5 46.5t47 69t17 84.5t-17 84.5t-47 69.5t-69.5 47t-84.5 17t-84.5 -17t-69 -47t-46.5 -69.5t-17 -84.5zM481 765l-103 135
h37l103 -135h-37zM405 765l-103 135h39l102 -135h-38zM330 765l-103 135h38l103 -135h-38z" />
    <glyph glyph-name="Oacute" unicode="&#xd3;" horiz-adv-x="832" 
d="M45 352q0 76 29 143t78.5 117t116.5 79t143 29t143 -29t117 -79t79 -117t29 -143t-29 -143t-79 -116.5t-117 -78.5t-143 -29t-143 29t-116.5 78.5t-78.5 116.5t-29 143zM75 352q0 -70 26.5 -131.5t72 -107t107 -72t131.5 -26.5t131.5 26.5t107.5 72t72.5 107t26.5 131.5
t-26.5 131.5t-72.5 107.5t-107.5 72.5t-131.5 26.5t-131.5 -26.5t-107 -72.5t-72 -107.5t-26.5 -131.5zM105 352q0 64 24 120t65.5 98t97.5 66t120 24t120 -24t98 -66t66 -98t24 -120t-24 -120t-66 -97.5t-98 -65.5t-120 -24t-120 24t-97.5 65.5t-65.5 97.5t-24 120z
M135 352q0 -57 22 -107.5t59.5 -88t88 -59.5t107.5 -22t108 22t88.5 59.5t59.5 88t22 107.5t-22 108t-59.5 88.5t-88.5 59.5t-108 22t-107.5 -22t-88 -59.5t-59.5 -88.5t-22 -108zM165 352q0 51 19.5 96.5t53 79t78.5 53t96 19.5t96.5 -19.5t79 -53t53 -79t19.5 -96.5
t-19.5 -96t-53 -78.5t-79 -53t-96.5 -19.5t-96 19.5t-78.5 53t-53 78.5t-19.5 96zM194 352q0 -45 17 -84.5t46.5 -69t69 -46.5t84.5 -17t84.5 17t69.5 46.5t47 69t17 84.5t-17 84.5t-47 69.5t-69.5 47t-84.5 17t-84.5 -17t-69 -47t-46.5 -69.5t-17 -84.5zM315 765l103 135
h37l-103 -135h-37zM390 765l102 135h39l-103 -135h-38zM465 765l103 135h38l-103 -135h-38z" />
    <glyph glyph-name="Ocircumflex" unicode="&#xd4;" horiz-adv-x="832" 
d="M45 352q0 76 29 143t78.5 117t116.5 79t143 29t143 -29t117 -79t79 -117t29 -143t-29 -143t-79 -116.5t-117 -78.5t-143 -29t-143 29t-116.5 78.5t-78.5 116.5t-29 143zM75 352q0 -70 26.5 -131.5t72 -107t107 -72t131.5 -26.5t131.5 26.5t107.5 72t72.5 107t26.5 131.5
t-26.5 131.5t-72.5 107.5t-107.5 72.5t-131.5 26.5t-131.5 -26.5t-107 -72.5t-72 -107.5t-26.5 -131.5zM105 352q0 64 24 120t65.5 98t97.5 66t120 24t120 -24t98 -66t66 -98t24 -120t-24 -120t-66 -97.5t-98 -65.5t-120 -24t-120 24t-97.5 65.5t-65.5 97.5t-24 120z
M135 352q0 -57 22 -107.5t59.5 -88t88 -59.5t107.5 -22t108 22t88.5 59.5t59.5 88t22 107.5t-22 108t-59.5 88.5t-88.5 59.5t-108 22t-107.5 -22t-88 -59.5t-59.5 -88.5t-22 -108zM165 352q0 51 19.5 96.5t53 79t78.5 53t96 19.5t96.5 -19.5t79 -53t53 -79t19.5 -96.5
t-19.5 -96t-53 -78.5t-79 -53t-96.5 -19.5t-96 19.5t-78.5 53t-53 78.5t-19.5 96zM194 352q0 -45 17 -84.5t46.5 -69t69 -46.5t84.5 -17t84.5 17t69.5 46.5t47 69t17 84.5t-17 84.5t-47 69.5t-69.5 47t-84.5 17t-84.5 -17t-69 -47t-46.5 -69.5t-17 -84.5zM365 908l110 -143
h-31l-30 39l-29 -39h-31l45 59l-16 21l-61 -80h-33l77 102l-15 20l-93 -122h-32l109 143h30zM431 908l109 -143h-33l-109 143h33zM494 908l109 -143h-32l-109 143h32z" />
    <glyph glyph-name="Otilde" unicode="&#xd5;" horiz-adv-x="832" 
d="M45 352q0 76 29 143t78.5 117t116.5 79t143 29t143 -29t117 -79t79 -117t29 -143t-29 -143t-79 -116.5t-117 -78.5t-143 -29t-143 29t-116.5 78.5t-78.5 116.5t-29 143zM75 352q0 -70 26.5 -131.5t72 -107t107 -72t131.5 -26.5t131.5 26.5t107.5 72t72.5 107t26.5 131.5
t-26.5 131.5t-72.5 107.5t-107.5 72.5t-131.5 26.5t-131.5 -26.5t-107 -72.5t-72 -107.5t-26.5 -131.5zM105 352q0 64 24 120t65.5 98t97.5 66t120 24t120 -24t98 -66t66 -98t24 -120t-24 -120t-66 -97.5t-98 -65.5t-120 -24t-120 24t-97.5 65.5t-65.5 97.5t-24 120z
M135 352q0 -57 22 -107.5t59.5 -88t88 -59.5t107.5 -22t108 22t88.5 59.5t59.5 88t22 107.5t-22 108t-59.5 88.5t-88.5 59.5t-108 22t-107.5 -22t-88 -59.5t-59.5 -88.5t-22 -108zM165 352q0 51 19.5 96.5t53 79t78.5 53t96 19.5t96.5 -19.5t79 -53t53 -79t19.5 -96.5
t-19.5 -96t-53 -78.5t-79 -53t-96.5 -19.5t-96 19.5t-78.5 53t-53 78.5t-19.5 96zM194 352q0 -45 17 -84.5t46.5 -69t69 -46.5t84.5 -17t84.5 17t69.5 46.5t47 69t17 84.5t-17 84.5t-47 69.5t-69.5 47t-84.5 17t-84.5 -17t-69 -47t-46.5 -69.5t-17 -84.5zM255 765l5 15
q11 35 33 50.5t50 6.5l100 -32q39 -13 72.5 8.5t48.5 69.5l10 32h31l-13 -41q-9 -29 -24.5 -50.5t-36 -35t-45.5 -17t-52 5.5l-100 32q-16 5 -27 -5.5t-19 -32.5l-2 -6h-31zM511 915h31l-7 -23q-11 -35 -33 -51t-50 -7l-100 32q-20 6 -38.5 3.5t-34.5 -12.5t-28.5 -27.5
t-19.5 -40.5l-7 -24h-32l11 33q10 29 26 50.5t37 34.5t45 16t50 -5l100 -32q15 -5 26 5.5t19 33.5z" />
    <glyph glyph-name="Odieresis" unicode="&#xd6;" horiz-adv-x="832" 
d="M437 842q0 41 28 69.5t69 28.5t69.5 -28.5t28.5 -69.5t-28.5 -69t-69.5 -28t-69 28t-28 69zM467 842q0 -29 19 -48t48 -19t48.5 19t19.5 48t-19.5 48.5t-48.5 19.5t-48 -19.5t-19 -48.5zM497 841q0 16 10.5 27t26.5 11t27 -11t11 -27t-11 -26.5t-27 -10.5t-26.5 10.5
t-10.5 26.5zM522 841q0 -12 12 -12t12 12t-12 12t-12 -12zM199 843q0 41 28 69.5t69 28.5t69.5 -28.5t28.5 -69.5t-28.5 -69t-69.5 -28t-69 28t-28 69zM229 843q0 -29 19 -48t48 -19t48.5 19t19.5 48t-19.5 48.5t-48.5 19.5t-48 -19.5t-19 -48.5zM259 842q0 16 10.5 27
t26.5 11t27 -11t11 -27t-11 -26.5t-27 -10.5t-26.5 10.5t-10.5 26.5zM284 842q0 -12 12 -12t12 12t-12 12t-12 -12zM45 352q0 76 29 143t78.5 117t116.5 79t143 29t143 -29t117 -79t79 -117t29 -143t-29 -143t-79 -116.5t-117 -78.5t-143 -29t-143 29t-116.5 78.5
t-78.5 116.5t-29 143zM75 352q0 -70 26.5 -131.5t72 -107t107 -72t131.5 -26.5t131.5 26.5t107.5 72t72.5 107t26.5 131.5t-26.5 131.5t-72.5 107.5t-107.5 72.5t-131.5 26.5t-131.5 -26.5t-107 -72.5t-72 -107.5t-26.5 -131.5zM105 352q0 64 24 120t65.5 98t97.5 66t120 24
t120 -24t98 -66t66 -98t24 -120t-24 -120t-66 -97.5t-98 -65.5t-120 -24t-120 24t-97.5 65.5t-65.5 97.5t-24 120zM135 352q0 -57 22 -107.5t59.5 -88t88 -59.5t107.5 -22t108 22t88.5 59.5t59.5 88t22 107.5t-22 108t-59.5 88.5t-88.5 59.5t-108 22t-107.5 -22t-88 -59.5
t-59.5 -88.5t-22 -108zM165 352q0 51 19.5 96.5t53 79t78.5 53t96 19.5t96.5 -19.5t79 -53t53 -79t19.5 -96.5t-19.5 -96t-53 -78.5t-79 -53t-96.5 -19.5t-96 19.5t-78.5 53t-53 78.5t-19.5 96zM194 352q0 -45 17 -84.5t46.5 -69t69 -46.5t84.5 -17t84.5 17t69.5 46.5t47 69
t17 84.5t-17 84.5t-47 69.5t-69.5 47t-84.5 17t-84.5 -17t-69 -47t-46.5 -69.5t-17 -84.5z" />
    <glyph glyph-name="multiply" unicode="&#xd7;" horiz-adv-x="666" 
d="M88 157l143 143l-137 137l21 22l137 -138l21 21l-136 138l21 21l137 -137l21 21l-137 137l21 21l137 -137l143 143l22 -21l-393 -393zM173 72l392 392l21 -21l-143 -143l138 -138l-21 -21l-138 138l-21 -21l138 -138l-21 -21l-139 137l-21 -21l139 -138l-22 -21l-138 138
l-143 -143zM130 114l393 393l21 -22l-392 -392z" />
    <glyph glyph-name="Oslash" unicode="&#xd8;" horiz-adv-x="832" 
d="M45 352q0 76 29 143t78.5 117t116.5 79t143 29q63 0 120 -20.5t104 -56.5l99 107l22 -21l-97 -105l21 -21l97 106l23 -19l-101 -110q38 -48 59 -105.5t21 -122.5q0 -76 -29 -143t-79 -116.5t-117 -78.5t-143 -29q-57 0 -108 15.5t-95 44.5l-104 -113l-21 21l101 110
q-12 9 -24 21l-100 -109l-21 20l100 109q-45 49 -70 112.5t-25 135.5zM75 352q0 -70 26.5 -131.5t72 -107t107 -72t131.5 -26.5t131.5 26.5t107.5 72t72.5 107t26.5 131.5t-26.5 131.5t-72.5 107.5t-107.5 72.5t-131.5 26.5t-131.5 -26.5t-107 -72.5t-72 -107.5
t-26.5 -131.5zM105 352q0 64 24 120t65.5 98t97.5 66t120 24t120 -24t98 -66t66 -98t24 -120t-24 -120t-66 -97.5t-98 -65.5t-120 -24t-120 24t-97.5 65.5t-65.5 97.5t-24 120zM135 352q0 -57 22 -107.5t59.5 -88t88 -59.5t107.5 -22t108 22t88.5 59.5t59.5 88t22 107.5
t-22 108t-59.5 88.5t-88.5 59.5t-108 22t-107.5 -22t-88 -59.5t-59.5 -88.5t-22 -108zM165 352q0 51 19.5 96.5t53 79t78.5 53t96 19.5t96.5 -19.5t79 -53t53 -79t19.5 -96.5t-19.5 -96t-53 -78.5t-79 -53t-96.5 -19.5t-96 19.5t-78.5 53t-53 78.5t-19.5 96zM194 352
q0 -39 12.5 -74t35.5 -63l291 317q-26 18 -57 28t-65 10q-45 0 -84.5 -17t-69 -47t-46.5 -69.5t-17 -84.5zM629 352q0 32 -8.5 60.5t-24.5 53.5l-283 -308q44 -23 98 -23q45 0 84.5 17t69.5 46.5t47 69t17 84.5zM557 513l-295 -320q11 -10 25 -19l291 317z" />
    <glyph glyph-name="Ugrave" unicode="&#xd9;" horiz-adv-x="741" 
d="M645 705h30v-420q0 -62 -23.5 -117t-64 -95.5t-95.5 -64t-117 -23.5t-117 23.5t-95.5 64t-64 95.5t-23.5 117v420h30v-420q0 -56 21 -105t58 -86t86 -58t105 -21t105 21t86 58t58 86t21 105v420zM585 705h30v-420q0 -50 -19 -93.5t-51.5 -76t-76.5 -51.5t-93 -19
q-50 0 -93.5 19t-76 51.5t-51.5 76t-19 93.5v420h30v-420q0 -44 16.5 -82t45 -66.5t66.5 -45t82 -16.5q43 0 81.5 16.5t67 45t45 66.5t16.5 82v420zM525 705h30v-420q0 -37 -14 -70t-38.5 -57.5t-57.5 -38.5t-70 -14t-70 14t-57.5 38.5t-38.5 57.5t-14 70v420h30v-420
q0 -31 12 -58.5t32 -47.5t47.5 -32t58.5 -12t58.5 12t47.5 32t32 47.5t12 58.5v420zM360 765l-103 135h39l102 -135h-38zM285 765l-103 135h38l103 -135h-38zM436 765l-103 135h37l103 -135h-37z" />
    <glyph glyph-name="Uacute" unicode="&#xda;" horiz-adv-x="741" 
d="M645 705h30v-420q0 -62 -23.5 -117t-64 -95.5t-95.5 -64t-117 -23.5t-117 23.5t-95.5 64t-64 95.5t-23.5 117v420h30v-420q0 -56 21 -105t58 -86t86 -58t105 -21t105 21t86 58t58 86t21 105v420zM585 705h30v-420q0 -50 -19 -93.5t-51.5 -76t-76.5 -51.5t-93 -19
q-50 0 -93.5 19t-76 51.5t-51.5 76t-19 93.5v420h30v-420q0 -44 16.5 -82t45 -66.5t66.5 -45t82 -16.5q43 0 81.5 16.5t67 45t45 66.5t16.5 82v420zM525 705h30v-420q0 -37 -14 -70t-38.5 -57.5t-57.5 -38.5t-70 -14t-70 14t-57.5 38.5t-38.5 57.5t-14 70v420h30v-420
q0 -31 12 -58.5t32 -47.5t47.5 -32t58.5 -12t58.5 12t47.5 32t32 47.5t12 58.5v420zM349 765l102 135h39l-103 -135h-38zM424 765l103 135h38l-103 -135h-38zM274 765l103 135h37l-103 -135h-37z" />
    <glyph glyph-name="Ucircumflex" unicode="&#xdb;" horiz-adv-x="741" 
d="M645 705h30v-420q0 -62 -23.5 -117t-64 -95.5t-95.5 -64t-117 -23.5t-117 23.5t-95.5 64t-64 95.5t-23.5 117v420h30v-420q0 -56 21 -105t58 -86t86 -58t105 -21t105 21t86 58t58 86t21 105v420zM585 705h30v-420q0 -50 -19 -93.5t-51.5 -76t-76.5 -51.5t-93 -19
q-50 0 -93.5 19t-76 51.5t-51.5 76t-19 93.5v420h30v-420q0 -44 16.5 -82t45 -66.5t66.5 -45t82 -16.5q43 0 81.5 16.5t67 45t45 66.5t16.5 82v420zM525 705h30v-420q0 -37 -14 -70t-38.5 -57.5t-57.5 -38.5t-70 -14t-70 14t-57.5 38.5t-38.5 57.5t-14 70v420h30v-420
q0 -31 12 -58.5t32 -47.5t47.5 -32t58.5 -12t58.5 12t47.5 32t32 47.5t12 58.5v420zM319 908l110 -143h-31l-30 39l-29 -39h-31l45 59l-16 21l-61 -80h-33l77 102l-15 20l-93 -122h-32l109 143h30zM385 908l109 -143h-33l-109 143h33zM448 908l109 -143h-32l-109 143h32z
" />
    <glyph glyph-name="Udieresis" unicode="&#xdc;" horiz-adv-x="741" 
d="M645 705h30v-420q0 -62 -23.5 -117t-64 -95.5t-95.5 -64t-117 -23.5t-117 23.5t-95.5 64t-64 95.5t-23.5 117v420h30v-420q0 -56 21 -105t58 -86t86 -58t105 -21t105 21t86 58t58 86t21 105v420zM585 705h30v-420q0 -50 -19 -93.5t-51.5 -76t-76.5 -51.5t-93 -19
q-50 0 -93.5 19t-76 51.5t-51.5 76t-19 93.5v420h30v-420q0 -44 16.5 -82t45 -66.5t66.5 -45t82 -16.5q43 0 81.5 16.5t67 45t45 66.5t16.5 82v420zM195 705h30v-420q0 -31 12 -58.5t32 -47.5t47.5 -32t58.5 -12t58.5 12t47.5 32t32 47.5t12 58.5v420h30v-420q0 -37 -14 -70
t-38.5 -57.5t-57.5 -38.5t-70 -14t-70 14t-57.5 38.5t-38.5 57.5t-14 70v420zM159 843q0 41 28 69.5t69 28.5t69.5 -28.5t28.5 -69.5t-28.5 -69t-69.5 -28t-69 28t-28 69zM397 842q0 41 28 69.5t69 28.5t69.5 -28.5t28.5 -69.5t-28.5 -69t-69.5 -28t-69 28t-28 69zM427 842
q0 -29 19 -48t48 -19t48.5 19t19.5 48t-19.5 48.5t-48.5 19.5t-48 -19.5t-19 -48.5zM189 843q0 -29 19 -48t48 -19t48.5 19t19.5 48t-19.5 48.5t-48.5 19.5t-48 -19.5t-19 -48.5zM219 842q0 16 10.5 27t26.5 11t27 -11t11 -27t-11 -26.5t-27 -10.5t-26.5 10.5t-10.5 26.5z
M457 841q0 16 10.5 27t26.5 11t27 -11t11 -27t-11 -26.5t-27 -10.5t-26.5 10.5t-10.5 26.5zM244 842q0 -12 12 -12t12 12t-12 12t-12 -12zM482 841q0 -12 12 -12t12 12t-12 12t-12 -12z" />
    <glyph glyph-name="Yacute" unicode="&#xdd;" horiz-adv-x="648" 
d="M375 351l17 -29l234 383h34l-255 -419v-286h-30v296l-248 409h33l162 -268l163 268h33l-179 -295l18 -30l197 325h36zM315 277l-260 428h36l254 -419v-286h-30v277zM255 261l-270 444h34l266 -437v-268h-30v261zM300 765l102 135h39l-103 -135h-38zM375 765l103 135h38
l-103 -135h-38zM225 765l103 135h37l-103 -135h-37z" />
    <glyph glyph-name="Thorn" unicode="&#xde;" horiz-adv-x="630" 
d="M195 705h30v-120h158q45 0 84.5 -17t69.5 -47t47 -69.5t17 -84.5t-17 -84.5t-47 -69t-69.5 -46.5t-84.5 -17h-158v-150h-30v705zM225 435v-135h158q29 0 48.5 19t19.5 48t-19.5 48.5t-48.5 19.5h-158zM225 555v-30h158q33 0 61.5 -12.5t50 -34t34 -50t12.5 -61.5
t-12.5 -61.5t-34 -49.5t-50 -33.5t-61.5 -12.5h-158v-30h158q39 0 73 14.5t59.5 40t40.5 59.5t15 73t-15 73t-40.5 59.5t-59.5 40.5t-73 15h-158zM135 705h30v-705h-30v705zM75 705h30v-705h-30v705zM225 495v-30h158q41 0 69.5 -28.5t28.5 -69.5t-28.5 -69t-69.5 -28h-158
v-30h158q27 0 50 10t40.5 27t27.5 40t10 50t-10 50t-27.5 40.5t-40.5 27.5t-50 10h-158z" />
    <glyph glyph-name="germandbls" unicode="&#xdf;" horiz-adv-x="630" 
d="M120 542q0 45 17.5 84.5t47 69.5t69 47t84.5 17t84.5 -18t69 -49.5t46.5 -73t17 -87.5q0 -39 -9.5 -75.5t-26.5 -65.5q35 -32 55.5 -74.5t20.5 -90.5q0 -49 -18.5 -93t-50.5 -77t-75.5 -52t-92.5 -19v30q43 0 81 17t66 45.5t44 67t16 81.5q0 41 -16 76.5t-44 62.5
t-65 42.5t-80 16.5h-3v30h2q19 1 32.5 23.5t13.5 54.5q0 33 -19 55.5t-48 22.5t-48.5 -19.5t-19.5 -48.5v-542h-30v542q0 20 8 38t21.5 31.5t31 21t37.5 7.5t38 -8.5t31 -23.5t20.5 -34.5t7.5 -41.5q0 -51 -29 -83q8 -2 16.5 -4.5t16.5 -5.5q12 19 19 42.5t7 50.5
q0 29 -10 54t-27 44t-40 29.5t-50 10.5t-50 -10t-40.5 -27.5t-27.5 -40.5t-10 -50v-542h-30v542q0 33 12.5 61.5t34 50t50.5 34t61 12.5q33 0 61.5 -13.5t49.5 -36.5t33.5 -53.5t12.5 -64.5q0 -30 -7 -57.5t-19 -48.5q7 -4 13.5 -7.5t12.5 -8.5q14 26 22 56.5t8 65.5
q0 41 -14.5 77t-40 63t-59.5 42.5t-73 15.5t-73.5 -15t-60 -40.5t-40 -59.5t-14.5 -73v-542h-30v542zM535 226q0 -37 -13.5 -70t-37.5 -57.5t-56.5 -39t-69.5 -14.5v30q31 0 58 12t46.5 32.5t31 48t11.5 58.5q0 29 -11.5 54t-31.5 44t-47 29.5t-58 10.5v30q36 0 68.5 -13.5
t56.5 -36.5t38.5 -53.5t14.5 -64.5zM475 226q0 -24 -9 -46t-25 -38.5t-37 -26.5t-46 -10v30q38 0 62.5 27t24.5 64q0 33 -25 55.5t-63 22.5v30q24 0 45 -8.5t37.5 -23.5t26 -34.5t9.5 -41.5z" />
    <glyph glyph-name="agrave" unicode="&#xe0;" horiz-adv-x="649" 
d="M174 420q0 37 12 70t32 57.5t47.5 38.5t58.5 14t58 -14t47.5 -38.5t32.5 -57.5t12 -70v-420h-30v150h-240v-150h-30v420zM204 300h240v120q0 31 -9.5 58.5t-26 47.5t-38 32t-46.5 12t-46.5 -12t-38 -32t-26 -47.5t-9.5 -58.5v-120zM564 420q0 56 -19 105t-51.5 86
t-76.5 58t-93 21q-50 0 -93.5 -21t-76 -58t-51.5 -86t-19 -105v-420h-30v420q0 62 21 117t58 95.5t86 64t105 23.5q55 0 104.5 -23.5t86 -64t58 -95.5t21.5 -117v-420h-30v420zM144 0h-30v420q0 49 16.5 93t45 76.5t66.5 51.5t82 19q43 0 81.5 -19t67 -51.5t45 -76.5
t16.5 -93v-420h-30v420q0 43 -14 81.5t-38.5 67t-57.5 45t-70 16.5t-70 -16.5t-57.5 -45t-38.5 -67t-14 -81.5v-420zM204 180h240v30h-240v-30zM204 240h240v30h-240v-30zM302 765l-103 135h39l102 -135h-38zM227 765l-103 135h38l103 -135h-38zM378 765l-103 135h37
l103 -135h-37z" />
    <glyph glyph-name="aacute" unicode="&#xe1;" horiz-adv-x="649" 
d="M174 420q0 37 12 70t32 57.5t47.5 38.5t58.5 14t58 -14t47.5 -38.5t32.5 -57.5t12 -70v-420h-30v150h-240v-150h-30v420zM204 300h240v120q0 31 -9.5 58.5t-26 47.5t-38 32t-46.5 12t-46.5 -12t-38 -32t-26 -47.5t-9.5 -58.5v-120zM564 420q0 56 -19 105t-51.5 86
t-76.5 58t-93 21q-50 0 -93.5 -21t-76 -58t-51.5 -86t-19 -105v-420h-30v420q0 62 21 117t58 95.5t86 64t105 23.5q55 0 104.5 -23.5t86 -64t58 -95.5t21.5 -117v-420h-30v420zM144 0h-30v420q0 49 16.5 93t45 76.5t66.5 51.5t82 19q43 0 81.5 -19t67 -51.5t45 -76.5
t16.5 -93v-420h-30v420q0 43 -14 81.5t-38.5 67t-57.5 45t-70 16.5t-70 -16.5t-57.5 -45t-38.5 -67t-14 -81.5v-420zM204 180h240v30h-240v-30zM204 240h240v30h-240v-30zM300 765l102 135h39l-103 -135h-38zM375 765l103 135h38l-103 -135h-38zM225 765l103 135h37
l-103 -135h-37z" />
    <glyph glyph-name="acircumflex" unicode="&#xe2;" horiz-adv-x="649" 
d="M174 420q0 37 12 70t32 57.5t47.5 38.5t58.5 14t58 -14t47.5 -38.5t32.5 -57.5t12 -70v-420h-30v150h-240v-150h-30v420zM444 420q0 31 -9.5 58.5t-26 47.5t-38 32t-46.5 12t-46.5 -12t-38 -32t-26 -47.5t-9.5 -58.5v-120h240v120zM84 0h-30v420q0 62 21 117t58 95.5
t86 64t105 23.5q55 0 104.5 -23.5t86 -64t58 -95.5t21.5 -117v-420h-30v420q0 56 -19 105t-51.5 86t-76.5 58t-93 21q-50 0 -93.5 -21t-76 -58t-51.5 -86t-19 -105v-420zM504 420q0 43 -14 81.5t-38.5 67t-57.5 45t-70 16.5t-70 -16.5t-57.5 -45t-38.5 -67t-14 -81.5v-420
h-30v420q0 49 16.5 93t45 76.5t66.5 51.5t82 19q43 0 81.5 -19t67 -51.5t45 -76.5t16.5 -93v-420h-30v420zM276 908l110 -143h-31l-30 39l-29 -39h-31l45 59l-16 21l-61 -80h-33l77 102l-15 20l-93 -122h-32l109 143h30zM204 240h240v30h-240v-30zM204 180h240v30h-240v-30z
M342 908l109 -143h-33l-109 143h33zM405 908l109 -143h-32l-109 143h32z" />
    <glyph glyph-name="atilde" unicode="&#xe3;" horiz-adv-x="649" 
d="M174 420q0 37 12 70t32 57.5t47.5 38.5t58.5 14t58 -14t47.5 -38.5t32.5 -57.5t12 -70v-420h-30v150h-240v-150h-30v420zM204 300h240v120q0 31 -9.5 58.5t-26 47.5t-38 32t-46.5 12t-46.5 -12t-38 -32t-26 -47.5t-9.5 -58.5v-120zM564 420q0 56 -19 105t-51.5 86
t-76.5 58t-93 21q-50 0 -93.5 -21t-76 -58t-51.5 -86t-19 -105v-420h-30v420q0 62 21 117t58 95.5t86 64t105 23.5q55 0 104.5 -23.5t86 -64t58 -95.5t21.5 -117v-420h-30v420zM144 0h-30v420q0 49 16.5 93t45 76.5t66.5 51.5t82 19q43 0 81.5 -19t67 -51.5t45 -76.5
t16.5 -93v-420h-30v420q0 43 -14 81.5t-38.5 67t-57.5 45t-70 16.5t-70 -16.5t-57.5 -45t-38.5 -67t-14 -81.5v-420zM185 765l5 15q11 35 33 50.5t50 6.5l100 -32q39 -13 72.5 8.5t48.5 69.5l10 32h31l-13 -41q-9 -29 -24.5 -50.5t-36 -35t-45.5 -17t-52 5.5l-100 32
q-16 5 -27 -5.5t-19 -32.5l-2 -6h-31zM441 915h31l-7 -23q-11 -35 -33 -51t-50 -7l-100 32q-20 6 -38.5 3.5t-34.5 -12.5t-28.5 -27.5t-19.5 -40.5l-7 -24h-32l11 33q10 29 26 50.5t37 34.5t45 16t50 -5l100 -32q15 -5 26 5.5t19 33.5zM204 240h240v30h-240v-30zM204 180
h240v30h-240v-30z" />
    <glyph glyph-name="adieresis" unicode="&#xe4;" horiz-adv-x="649" 
d="M174 420q0 37 12 70t32 57.5t47.5 38.5t58.5 14t58 -14t47.5 -38.5t32.5 -57.5t12 -70v-420h-30v150h-240v-150h-30v420zM444 420q0 31 -9.5 58.5t-26 47.5t-38 32t-46.5 12t-46.5 -12t-38 -32t-26 -47.5t-9.5 -58.5v-120h240v120zM84 0h-30v420q0 62 21 117t58 95.5
t86 64t105 23.5q55 0 104.5 -23.5t86 -64t58 -95.5t21.5 -117v-420h-30v420q0 56 -19 105t-51.5 86t-76.5 58t-93 21q-50 0 -93.5 -21t-76 -58t-51.5 -86t-19 -105v-420zM144 0h-30v420q0 49 16.5 93t45 76.5t66.5 51.5t82 19q43 0 81.5 -19t67 -51.5t45 -76.5t16.5 -93
v-420h-30v420q0 43 -14 81.5t-38.5 67t-57.5 45t-70 16.5t-70 -16.5t-57.5 -45t-38.5 -67t-14 -81.5v-420zM109 843q0 41 28 69.5t69 28.5t69.5 -28.5t28.5 -69.5t-28.5 -69t-69.5 -28t-69 28t-28 69zM347 842q0 41 28 69.5t69 28.5t69.5 -28.5t28.5 -69.5t-28.5 -69
t-69.5 -28t-69 28t-28 69zM139 843q0 -29 19 -48t48 -19t48.5 19t19.5 48t-19.5 48.5t-48.5 19.5t-48 -19.5t-19 -48.5zM377 842q0 -29 19 -48t48 -19t48.5 19t19.5 48t-19.5 48.5t-48.5 19.5t-48 -19.5t-19 -48.5zM204 180h240v30h-240v-30zM204 240h240v30h-240v-30z
M169 842q0 16 10.5 27t26.5 11t27 -11t11 -27t-11 -26.5t-27 -10.5t-26.5 10.5t-10.5 26.5zM407 841q0 16 10.5 27t26.5 11t27 -11t11 -27t-11 -26.5t-27 -10.5t-26.5 10.5t-10.5 26.5zM194 842q0 -12 12 -12t12 12t-12 12t-12 -12zM432 841q0 -12 12 -12t12 12t-12 12
t-12 -12z" />
    <glyph glyph-name="aring" unicode="&#xe5;" horiz-adv-x="649" 
d="M174 420q0 37 12 70t32 57.5t47.5 38.5t58.5 14t58 -14t47.5 -38.5t32.5 -57.5t12 -70v-420h-30v150h-240v-150h-30v420zM204 300h240v120q0 31 -9.5 58.5t-26 47.5t-38 32t-46.5 12t-46.5 -12t-38 -32t-26 -47.5t-9.5 -58.5v-120zM564 420q0 56 -19 105t-51.5 86
t-76.5 58t-93 21q-50 0 -93.5 -21t-76 -58t-51.5 -86t-19 -105v-420h-30v420q0 62 21 117t58 95.5t86 64t105 23.5q55 0 104.5 -23.5t86 -64t58 -95.5t21.5 -117v-420h-30v420zM504 420q0 43 -14 81.5t-38.5 67t-57.5 45t-70 16.5t-70 -16.5t-57.5 -45t-38.5 -67t-14 -81.5
v-420h-30v420q0 49 16.5 93t45 76.5t66.5 51.5t82 19q43 0 81.5 -19t67 -51.5t45 -76.5t16.5 -93v-420h-30v420zM211 858q0 23 9 43.5t24 36t35.5 24.5t43.5 9t43.5 -9t36 -24.5t24.5 -36t9 -43.5t-9 -43.5t-24.5 -35.5t-36 -24t-43.5 -9t-43.5 9t-35.5 24t-24 35.5t-9 43.5
zM241 858q0 -35 23.5 -58.5t58.5 -23.5t59 23.5t24 58.5t-24 59t-59 24t-58.5 -24t-23.5 -59zM204 240h240v30h-240v-30zM204 180h240v30h-240v-30z" />
    <glyph glyph-name="ae" unicode="&#xe6;" horiz-adv-x="992" 
d="M441 150h-186l-91 -150h-31l427 705h370v-30h-339v-30h339v-30h-339v-30h339v-30h-339v-120h324v-30h-324v-30h324v-30h-324v-30h324v-30h-324v-135h354v-30h-354v-30h354v-30h-354v-30h354v-30h-384v655l-30 -49v-606h-30v556l-32 -52h2v-504h-30v150zM495 705h32
l-426 -705h-33zM431 705h32l-427 -705h-31zM441 300v158l-96 -158h96zM273 180h168v30h-150zM309 240h132v30h-114z" />
    <glyph glyph-name="ccedilla" unicode="&#xe7;" horiz-adv-x="685" 
d="M285 -81l51 74q-63 13 -116 46t-92 80.5t-61 107t-22 125.5q0 76 29 143t78.5 117t116.5 79t143 29q72 0 134 -25t112 -70l-22 -19q-45 40 -102 62t-122 22q-70 0 -131.5 -26.5t-107 -72.5t-72 -107.5t-26.5 -131.5t26.5 -131.5t72 -107t107 -72t131.5 -26.5q73 0 136 28
t110 77l22 -19q-46 -49 -107.5 -79t-132.5 -35l-33 -49q25 -4 46.5 -13.5t37.5 -23t25 -30.5t9 -36q0 -22 -12 -41t-32 -33.5t-47.5 -22.5t-58.5 -8q-36 0 -68 6.5t-58 17.5l15 26q23 -9 51 -14.5t60 -5.5q25 0 46.5 6t38 16t26 24t9.5 29t-9.5 29t-26 24t-38 16t-46.5 6
q-34 0 -62 -11zM631 136q-42 -42 -98 -66.5t-121 -24.5q-64 0 -120 24t-97.5 65.5t-65.5 97.5t-24 120t24 120t65.5 98t97.5 66t120 24q57 0 108 -19.5t92 -54.5l-25 -19q-36 29 -80.5 46t-94.5 17q-57 0 -107.5 -22t-88 -59.5t-59.5 -88.5t-22 -108t22 -107.5t59.5 -88
t88 -59.5t107.5 -22t106.5 21t87.5 57zM581 171q-33 -31 -76 -48.5t-93 -17.5q-51 0 -96 19.5t-78.5 53t-53 78.5t-19.5 96t19.5 96.5t53 79t78.5 53t96 19.5q43 0 81.5 -13.5t70.5 -37.5l-25 -20q-27 20 -59.5 30.5t-68.5 10.5q-45 0 -84.5 -17t-69 -47t-46.5 -69.5
t-17 -84.5t17 -84.5t46.5 -69t69 -46.5t84.5 -17q42 0 78.5 14t65.5 40zM341 -126q13 5 36 5q15 0 30.5 -2.5t28 -7.5t21 -13.5t8.5 -20.5q0 -19 -26 -32t-64 -13q-28 0 -52.5 3.5t-41.5 9.5l14 24q13 -3 34 -5t46 -2t42.5 4.5t17.5 10.5q0 4 -5.5 8t-14 6t-18.5 3.5
t-18 1.5q-14 0 -18 -1zM403 -14h-17.5t-17.5 2l-35 -52q9 2 19 3t21 1z" />
    <glyph glyph-name="egrave" unicode="&#xe8;" horiz-adv-x="630" 
d="M195 555h-30v-555h-30v555h-30v-555h-30v585h480v-30h-330v-120h315v-30h-315v-30h315v-30h-315v-30h315v-30h-315v-135h345v-30h-345v-30h345v-30h-345v-30h345v-30h-375v555zM75 705h480v-30h-480v30zM75 645h480v-30h-480v30zM304 765l-103 135h39l102 -135h-38z
M229 765l-103 135h38l103 -135h-38zM380 765l-103 135h37l103 -135h-37z" />
    <glyph glyph-name="eacute" unicode="&#xe9;" horiz-adv-x="630" 
d="M195 555h-30v-555h-30v555h-30v-555h-30v585h480v-30h-330v-120h315v-30h-315v-30h315v-30h-315v-30h315v-30h-315v-135h345v-30h-345v-30h345v-30h-345v-30h345v-30h-375v555zM75 705h480v-30h-480v30zM75 645h480v-30h-480v30zM293 765l102 135h39l-103 -135h-38z
M368 765l103 135h38l-103 -135h-38zM218 765l103 135h37l-103 -135h-37z" />
    <glyph glyph-name="ecircumflex" unicode="&#xea;" horiz-adv-x="630" 
d="M195 555h-30v-555h-30v555h-30v-555h-30v585h480v-30h-330v-120h315v-30h-315v-30h315v-30h-315v-30h315v-30h-315v-135h345v-30h-345v-30h345v-30h-345v-30h345v-30h-375v555zM75 705h480v-30h-480v30zM75 645h480v-30h-480v30zM263 908l110 -143h-31l-30 39l-29 -39
h-31l45 59l-16 21l-61 -80h-33l77 102l-15 20l-93 -122h-32l109 143h30zM329 908l109 -143h-33l-109 143h33zM392 908l109 -143h-32l-109 143h32z" />
    <glyph glyph-name="edieresis" unicode="&#xeb;" horiz-adv-x="630" 
d="M195 555h-30v-555h-30v555h-30v-555h-30v585h480v-30h-330v-120h315v-30h-315v-30h315v-30h-315v-30h315v-30h-315v-135h345v-30h-345v-30h345v-30h-345v-30h345v-30h-375v555zM337 842q0 41 28 69.5t69 28.5t69.5 -28.5t28.5 -69.5t-28.5 -69t-69.5 -28t-69 28t-28 69z
M99 843q0 41 28 69.5t69 28.5t69.5 -28.5t28.5 -69.5t-28.5 -69t-69.5 -28t-69 28t-28 69zM367 842q0 -29 19 -48t48 -19t48.5 19t19.5 48t-19.5 48.5t-48.5 19.5t-48 -19.5t-19 -48.5zM129 843q0 -29 19 -48t48 -19t48.5 19t19.5 48t-19.5 48.5t-48.5 19.5t-48 -19.5
t-19 -48.5zM75 705h480v-30h-480v30zM75 645h480v-30h-480v30zM397 841q0 16 10.5 27t26.5 11t27 -11t11 -27t-11 -26.5t-27 -10.5t-26.5 10.5t-10.5 26.5zM159 842q0 16 10.5 27t26.5 11t27 -11t11 -27t-11 -26.5t-27 -10.5t-26.5 10.5t-10.5 26.5zM184 842q0 -12 12 -12
t12 12t-12 12t-12 -12zM422 841q0 -12 12 -12t12 12t-12 12t-12 -12z" />
    <glyph glyph-name="igrave" unicode="&#xec;" 
d="M135 705h30v-705h-30v705zM195 705h30v-705h-30v705zM75 705h30v-705h-30v705zM214 765l-103 135h37l103 -135h-37zM138 765l-103 135h39l102 -135h-38zM63 765l-103 135h38l103 -135h-38z" />
    <glyph glyph-name="iacute" unicode="&#xed;" 
d="M135 705h30v-705h-30v705zM195 705h30v-705h-30v705zM75 705h30v-705h-30v705zM50 765l103 135h37l-103 -135h-37zM125 765l102 135h39l-103 -135h-38zM200 765l103 135h38l-103 -135h-38z" />
    <glyph glyph-name="icircumflex" unicode="&#xee;" 
d="M135 705h30v-705h-30v705zM195 705h30v-705h-30v705zM75 705h30v-705h-30v705zM97 908l110 -143h-31l-30 39l-29 -39h-31l45 59l-16 21l-61 -80h-33l77 102l-15 20l-93 -122h-32l109 143h30zM163 908l109 -143h-33l-109 143h33zM226 908l109 -143h-32l-109 143h32z" />
    <glyph glyph-name="idieresis" unicode="&#xef;" 
d="M135 705h30v-705h-30v705zM195 705h30v-705h-30v705zM75 705h30v-705h-30v705zM168 842q0 41 28 69.5t69 28.5t69.5 -28.5t28.5 -69.5t-28.5 -69t-69.5 -28t-69 28t-28 69zM198 842q0 -29 19 -48t48 -19t48.5 19t19.5 48t-19.5 48.5t-48.5 19.5t-48 -19.5t-19 -48.5z
M228 841q0 16 10.5 27t26.5 11t27 -11t11 -27t-11 -26.5t-27 -10.5t-26.5 10.5t-10.5 26.5zM253 841q0 -12 12 -12t12 12t-12 12t-12 -12zM-70 843q0 41 28 69.5t69 28.5t69.5 -28.5t28.5 -69.5t-28.5 -69t-69.5 -28t-69 28t-28 69zM-40 843q0 -29 19 -48t48 -19t48.5 19
t19.5 48t-19.5 48.5t-48.5 19.5t-48 -19.5t-19 -48.5zM-10 842q0 16 10.5 27t26.5 11t27 -11t11 -27t-11 -26.5t-27 -10.5t-26.5 10.5t-10.5 26.5zM15 842q0 -12 12 -12t12 12t-12 12t-12 -12z" />
    <glyph glyph-name="eth" unicode="&#xf0;" horiz-adv-x="759" 
d="M195 555h-30v-555h-30v555h-30v-555h-30v285h-30v30h30v30h-30v30h30v30h-30v30h30v150h282q51 0 96.5 -18t79 -49.5t53 -74t19.5 -91.5t-19.5 -91.5t-53 -73.5t-79 -49t-96.5 -18h-132v-30h132q57 0 108 20.5t88.5 55.5t59.5 83t22 103t-22 103t-59.5 83.5t-88.5 56
t-108 20.5h-282v30h282q64 0 120 -22.5t98 -62.5t66 -93.5t24 -114.5q0 -62 -24 -115t-66 -92.5t-98 -62t-120 -22.5h-132v-30h132q70 0 131.5 25t107.5 68.5t72.5 102t26.5 126.5t-26.5 127t-72.5 102.5t-107.5 68.5t-131.5 25h-282v30h282q76 0 143 -27.5t117 -75t79 -112
t29 -138.5t-29 -138t-79 -111.5t-117 -75t-143 -27.5h-162v555zM225 555v-120h140v-30h-140v-30h140v-30h-140v-30h140v-30h-140v-135h131q45 0 84.5 15.5t69.5 42.5t47 64t17 80t-17 80t-47 64.5t-69.5 43t-84.5 15.5h-131z" />
    <glyph glyph-name="ntilde" unicode="&#xf1;" horiz-adv-x="815" 
d="M225 542v-542h-30v705h37l353 -643v58l-316 585h33l283 -523v523h30v-705h-30l-360 651v-51l329 -600h-35zM135 705h30v-705h-30v705zM75 705h30v-705h-30v705zM645 705h30v-705h-30v705zM705 705h30v-705h-30v705zM255 765l5 15q11 35 33 50.5t50 6.5l100 -32
q39 -13 72.5 8.5t48.5 69.5l10 32h31l-13 -41q-9 -29 -24.5 -50.5t-36 -35t-45.5 -17t-52 5.5l-100 32q-16 5 -27 -5.5t-19 -32.5l-2 -6h-31zM511 915h31l-7 -23q-11 -35 -33 -51t-50 -7l-100 32q-20 6 -38.5 3.5t-34.5 -12.5t-28.5 -27.5t-19.5 -40.5l-7 -24h-32l11 33
q10 29 26 50.5t37 34.5t45 16t50 -5l100 -32q15 -5 26 5.5t19 33.5z" />
    <glyph glyph-name="ograve" unicode="&#xf2;" horiz-adv-x="832" 
d="M45 352q0 76 29 143t78.5 117t116.5 79t143 29t143 -29t117 -79t79 -117t29 -143t-29 -143t-79 -116.5t-117 -78.5t-143 -29t-143 29t-116.5 78.5t-78.5 116.5t-29 143zM75 352q0 -70 26.5 -131.5t72 -107t107 -72t131.5 -26.5t131.5 26.5t107.5 72t72.5 107t26.5 131.5
t-26.5 131.5t-72.5 107.5t-107.5 72.5t-131.5 26.5t-131.5 -26.5t-107 -72.5t-72 -107.5t-26.5 -131.5zM105 352q0 64 24 120t65.5 98t97.5 66t120 24t120 -24t98 -66t66 -98t24 -120t-24 -120t-66 -97.5t-98 -65.5t-120 -24t-120 24t-97.5 65.5t-65.5 97.5t-24 120z
M135 352q0 -57 22 -107.5t59.5 -88t88 -59.5t107.5 -22t108 22t88.5 59.5t59.5 88t22 107.5t-22 108t-59.5 88.5t-88.5 59.5t-108 22t-107.5 -22t-88 -59.5t-59.5 -88.5t-22 -108zM165 352q0 51 19.5 96.5t53 79t78.5 53t96 19.5t96.5 -19.5t79 -53t53 -79t19.5 -96.5
t-19.5 -96t-53 -78.5t-79 -53t-96.5 -19.5t-96 19.5t-78.5 53t-53 78.5t-19.5 96zM194 352q0 -45 17 -84.5t46.5 -69t69 -46.5t84.5 -17t84.5 17t69.5 46.5t47 69t17 84.5t-17 84.5t-47 69.5t-69.5 47t-84.5 17t-84.5 -17t-69 -47t-46.5 -69.5t-17 -84.5zM481 765l-103 135
h37l103 -135h-37zM405 765l-103 135h39l102 -135h-38zM330 765l-103 135h38l103 -135h-38z" />
    <glyph glyph-name="oacute" unicode="&#xf3;" horiz-adv-x="832" 
d="M45 352q0 76 29 143t78.5 117t116.5 79t143 29t143 -29t117 -79t79 -117t29 -143t-29 -143t-79 -116.5t-117 -78.5t-143 -29t-143 29t-116.5 78.5t-78.5 116.5t-29 143zM75 352q0 -70 26.5 -131.5t72 -107t107 -72t131.5 -26.5t131.5 26.5t107.5 72t72.5 107t26.5 131.5
t-26.5 131.5t-72.5 107.5t-107.5 72.5t-131.5 26.5t-131.5 -26.5t-107 -72.5t-72 -107.5t-26.5 -131.5zM105 352q0 64 24 120t65.5 98t97.5 66t120 24t120 -24t98 -66t66 -98t24 -120t-24 -120t-66 -97.5t-98 -65.5t-120 -24t-120 24t-97.5 65.5t-65.5 97.5t-24 120z
M135 352q0 -57 22 -107.5t59.5 -88t88 -59.5t107.5 -22t108 22t88.5 59.5t59.5 88t22 107.5t-22 108t-59.5 88.5t-88.5 59.5t-108 22t-107.5 -22t-88 -59.5t-59.5 -88.5t-22 -108zM165 352q0 51 19.5 96.5t53 79t78.5 53t96 19.5t96.5 -19.5t79 -53t53 -79t19.5 -96.5
t-19.5 -96t-53 -78.5t-79 -53t-96.5 -19.5t-96 19.5t-78.5 53t-53 78.5t-19.5 96zM194 352q0 -45 17 -84.5t46.5 -69t69 -46.5t84.5 -17t84.5 17t69.5 46.5t47 69t17 84.5t-17 84.5t-47 69.5t-69.5 47t-84.5 17t-84.5 -17t-69 -47t-46.5 -69.5t-17 -84.5zM315 765l103 135
h37l-103 -135h-37zM390 765l102 135h39l-103 -135h-38zM465 765l103 135h38l-103 -135h-38z" />
    <glyph glyph-name="ocircumflex" unicode="&#xf4;" horiz-adv-x="832" 
d="M45 352q0 76 29 143t78.5 117t116.5 79t143 29t143 -29t117 -79t79 -117t29 -143t-29 -143t-79 -116.5t-117 -78.5t-143 -29t-143 29t-116.5 78.5t-78.5 116.5t-29 143zM75 352q0 -70 26.5 -131.5t72 -107t107 -72t131.5 -26.5t131.5 26.5t107.5 72t72.5 107t26.5 131.5
t-26.5 131.5t-72.5 107.5t-107.5 72.5t-131.5 26.5t-131.5 -26.5t-107 -72.5t-72 -107.5t-26.5 -131.5zM105 352q0 64 24 120t65.5 98t97.5 66t120 24t120 -24t98 -66t66 -98t24 -120t-24 -120t-66 -97.5t-98 -65.5t-120 -24t-120 24t-97.5 65.5t-65.5 97.5t-24 120z
M135 352q0 -57 22 -107.5t59.5 -88t88 -59.5t107.5 -22t108 22t88.5 59.5t59.5 88t22 107.5t-22 108t-59.5 88.5t-88.5 59.5t-108 22t-107.5 -22t-88 -59.5t-59.5 -88.5t-22 -108zM165 352q0 51 19.5 96.5t53 79t78.5 53t96 19.5t96.5 -19.5t79 -53t53 -79t19.5 -96.5
t-19.5 -96t-53 -78.5t-79 -53t-96.5 -19.5t-96 19.5t-78.5 53t-53 78.5t-19.5 96zM194 352q0 -45 17 -84.5t46.5 -69t69 -46.5t84.5 -17t84.5 17t69.5 46.5t47 69t17 84.5t-17 84.5t-47 69.5t-69.5 47t-84.5 17t-84.5 -17t-69 -47t-46.5 -69.5t-17 -84.5zM365 908l110 -143
h-31l-30 39l-29 -39h-31l45 59l-16 21l-61 -80h-33l77 102l-15 20l-93 -122h-32l109 143h30zM431 908l109 -143h-33l-109 143h33zM494 908l109 -143h-32l-109 143h32z" />
    <glyph glyph-name="otilde" unicode="&#xf5;" horiz-adv-x="832" 
d="M45 352q0 76 29 143t78.5 117t116.5 79t143 29t143 -29t117 -79t79 -117t29 -143t-29 -143t-79 -116.5t-117 -78.5t-143 -29t-143 29t-116.5 78.5t-78.5 116.5t-29 143zM75 352q0 -70 26.5 -131.5t72 -107t107 -72t131.5 -26.5t131.5 26.5t107.5 72t72.5 107t26.5 131.5
t-26.5 131.5t-72.5 107.5t-107.5 72.5t-131.5 26.5t-131.5 -26.5t-107 -72.5t-72 -107.5t-26.5 -131.5zM105 352q0 64 24 120t65.5 98t97.5 66t120 24t120 -24t98 -66t66 -98t24 -120t-24 -120t-66 -97.5t-98 -65.5t-120 -24t-120 24t-97.5 65.5t-65.5 97.5t-24 120z
M135 352q0 -57 22 -107.5t59.5 -88t88 -59.5t107.5 -22t108 22t88.5 59.5t59.5 88t22 107.5t-22 108t-59.5 88.5t-88.5 59.5t-108 22t-107.5 -22t-88 -59.5t-59.5 -88.5t-22 -108zM165 352q0 51 19.5 96.5t53 79t78.5 53t96 19.5t96.5 -19.5t79 -53t53 -79t19.5 -96.5
t-19.5 -96t-53 -78.5t-79 -53t-96.5 -19.5t-96 19.5t-78.5 53t-53 78.5t-19.5 96zM194 352q0 -45 17 -84.5t46.5 -69t69 -46.5t84.5 -17t84.5 17t69.5 46.5t47 69t17 84.5t-17 84.5t-47 69.5t-69.5 47t-84.5 17t-84.5 -17t-69 -47t-46.5 -69.5t-17 -84.5zM255 765l5 15
q11 35 33 50.5t50 6.5l100 -32q39 -13 72.5 8.5t48.5 69.5l10 32h31l-13 -41q-9 -29 -24.5 -50.5t-36 -35t-45.5 -17t-52 5.5l-100 32q-16 5 -27 -5.5t-19 -32.5l-2 -6h-31zM511 915h31l-7 -23q-11 -35 -33 -51t-50 -7l-100 32q-20 6 -38.5 3.5t-34.5 -12.5t-28.5 -27.5
t-19.5 -40.5l-7 -24h-32l11 33q10 29 26 50.5t37 34.5t45 16t50 -5l100 -32q15 -5 26 5.5t19 33.5z" />
    <glyph glyph-name="odieresis" unicode="&#xf6;" horiz-adv-x="832" 
d="M437 842q0 41 28 69.5t69 28.5t69.5 -28.5t28.5 -69.5t-28.5 -69t-69.5 -28t-69 28t-28 69zM467 842q0 -29 19 -48t48 -19t48.5 19t19.5 48t-19.5 48.5t-48.5 19.5t-48 -19.5t-19 -48.5zM497 841q0 16 10.5 27t26.5 11t27 -11t11 -27t-11 -26.5t-27 -10.5t-26.5 10.5
t-10.5 26.5zM522 841q0 -12 12 -12t12 12t-12 12t-12 -12zM199 843q0 41 28 69.5t69 28.5t69.5 -28.5t28.5 -69.5t-28.5 -69t-69.5 -28t-69 28t-28 69zM229 843q0 -29 19 -48t48 -19t48.5 19t19.5 48t-19.5 48.5t-48.5 19.5t-48 -19.5t-19 -48.5zM259 842q0 16 10.5 27
t26.5 11t27 -11t11 -27t-11 -26.5t-27 -10.5t-26.5 10.5t-10.5 26.5zM284 842q0 -12 12 -12t12 12t-12 12t-12 -12zM45 352q0 76 29 143t78.5 117t116.5 79t143 29t143 -29t117 -79t79 -117t29 -143t-29 -143t-79 -116.5t-117 -78.5t-143 -29t-143 29t-116.5 78.5
t-78.5 116.5t-29 143zM75 352q0 -70 26.5 -131.5t72 -107t107 -72t131.5 -26.5t131.5 26.5t107.5 72t72.5 107t26.5 131.5t-26.5 131.5t-72.5 107.5t-107.5 72.5t-131.5 26.5t-131.5 -26.5t-107 -72.5t-72 -107.5t-26.5 -131.5zM105 352q0 64 24 120t65.5 98t97.5 66t120 24
t120 -24t98 -66t66 -98t24 -120t-24 -120t-66 -97.5t-98 -65.5t-120 -24t-120 24t-97.5 65.5t-65.5 97.5t-24 120zM135 352q0 -57 22 -107.5t59.5 -88t88 -59.5t107.5 -22t108 22t88.5 59.5t59.5 88t22 107.5t-22 108t-59.5 88.5t-88.5 59.5t-108 22t-107.5 -22t-88 -59.5
t-59.5 -88.5t-22 -108zM165 352q0 51 19.5 96.5t53 79t78.5 53t96 19.5t96.5 -19.5t79 -53t53 -79t19.5 -96.5t-19.5 -96t-53 -78.5t-79 -53t-96.5 -19.5t-96 19.5t-78.5 53t-53 78.5t-19.5 96zM194 352q0 -45 17 -84.5t46.5 -69t69 -46.5t84.5 -17t84.5 17t69.5 46.5t47 69
t17 84.5t-17 84.5t-47 69.5t-69.5 47t-84.5 17t-84.5 -17t-69 -47t-46.5 -69.5t-17 -84.5z" />
    <glyph glyph-name="divide" unicode="&#xf7;" horiz-adv-x="666" 
d="M615 345h-555v30h555v-30zM615 285h-555v30h555v-30zM615 225h-555v30h555v-30zM435 97q0 -41 -28 -69t-69 -28t-69.5 28t-28.5 69t28.5 69.5t69.5 28.5t69 -28.5t28 -69.5zM405 97q0 29 -19 48.5t-48 19.5t-48.5 -19.5t-19.5 -48.5t19.5 -48t48.5 -19t48 19t19 48z
M375 96q0 -16 -10.5 -26.5t-26.5 -10.5t-27 10.5t-11 26.5t11 27t27 11t26.5 -11t10.5 -27zM350 96q0 12 -12 12t-12 -12t12 -12t12 12zM435 502q0 -41 -28 -69t-69 -28t-69.5 28t-28.5 69t28.5 69.5t69.5 28.5t69 -28.5t28 -69.5zM405 502q0 29 -19 48.5t-48 19.5
t-48.5 -19.5t-19.5 -48.5t19.5 -48t48.5 -19t48 19t19 48zM375 501q0 -16 -10.5 -26.5t-26.5 -10.5t-27 10.5t-11 26.5t11 27t27 11t26.5 -11t10.5 -27zM350 501q0 12 -12 12t-12 -12t12 -12t12 12z" />
    <glyph glyph-name="oslash" unicode="&#xf8;" horiz-adv-x="832" 
d="M45 352q0 76 29 143t78.5 117t116.5 79t143 29q63 0 120 -20.5t104 -56.5l99 107l22 -21l-97 -105l21 -21l97 106l23 -19l-101 -110q38 -48 59 -105.5t21 -122.5q0 -76 -29 -143t-79 -116.5t-117 -78.5t-143 -29q-57 0 -108 15.5t-95 44.5l-104 -113l-21 21l101 110
q-12 9 -24 21l-100 -109l-21 20l100 109q-45 49 -70 112.5t-25 135.5zM75 352q0 -70 26.5 -131.5t72 -107t107 -72t131.5 -26.5t131.5 26.5t107.5 72t72.5 107t26.5 131.5t-26.5 131.5t-72.5 107.5t-107.5 72.5t-131.5 26.5t-131.5 -26.5t-107 -72.5t-72 -107.5
t-26.5 -131.5zM105 352q0 64 24 120t65.5 98t97.5 66t120 24t120 -24t98 -66t66 -98t24 -120t-24 -120t-66 -97.5t-98 -65.5t-120 -24t-120 24t-97.5 65.5t-65.5 97.5t-24 120zM135 352q0 -57 22 -107.5t59.5 -88t88 -59.5t107.5 -22t108 22t88.5 59.5t59.5 88t22 107.5
t-22 108t-59.5 88.5t-88.5 59.5t-108 22t-107.5 -22t-88 -59.5t-59.5 -88.5t-22 -108zM165 352q0 51 19.5 96.5t53 79t78.5 53t96 19.5t96.5 -19.5t79 -53t53 -79t19.5 -96.5t-19.5 -96t-53 -78.5t-79 -53t-96.5 -19.5t-96 19.5t-78.5 53t-53 78.5t-19.5 96zM194 352
q0 -39 12.5 -74t35.5 -63l291 317q-26 18 -57 28t-65 10q-45 0 -84.5 -17t-69 -47t-46.5 -69.5t-17 -84.5zM629 352q0 32 -8.5 60.5t-24.5 53.5l-283 -308q44 -23 98 -23q45 0 84.5 17t69.5 46.5t47 69t17 84.5zM557 513l-295 -320q11 -10 25 -19l291 317z" />
    <glyph glyph-name="ugrave" unicode="&#xf9;" horiz-adv-x="741" 
d="M645 705h30v-420q0 -62 -23.5 -117t-64 -95.5t-95.5 -64t-117 -23.5t-117 23.5t-95.5 64t-64 95.5t-23.5 117v420h30v-420q0 -56 21 -105t58 -86t86 -58t105 -21t105 21t86 58t58 86t21 105v420zM585 705h30v-420q0 -50 -19 -93.5t-51.5 -76t-76.5 -51.5t-93 -19
q-50 0 -93.5 19t-76 51.5t-51.5 76t-19 93.5v420h30v-420q0 -44 16.5 -82t45 -66.5t66.5 -45t82 -16.5q43 0 81.5 16.5t67 45t45 66.5t16.5 82v420zM525 705h30v-420q0 -37 -14 -70t-38.5 -57.5t-57.5 -38.5t-70 -14t-70 14t-57.5 38.5t-38.5 57.5t-14 70v420h30v-420
q0 -31 12 -58.5t32 -47.5t47.5 -32t58.5 -12t58.5 12t47.5 32t32 47.5t12 58.5v420zM360 765l-103 135h39l102 -135h-38zM285 765l-103 135h38l103 -135h-38zM436 765l-103 135h37l103 -135h-37z" />
    <glyph glyph-name="uacute" unicode="&#xfa;" horiz-adv-x="741" 
d="M645 705h30v-420q0 -62 -23.5 -117t-64 -95.5t-95.5 -64t-117 -23.5t-117 23.5t-95.5 64t-64 95.5t-23.5 117v420h30v-420q0 -56 21 -105t58 -86t86 -58t105 -21t105 21t86 58t58 86t21 105v420zM585 705h30v-420q0 -50 -19 -93.5t-51.5 -76t-76.5 -51.5t-93 -19
q-50 0 -93.5 19t-76 51.5t-51.5 76t-19 93.5v420h30v-420q0 -44 16.5 -82t45 -66.5t66.5 -45t82 -16.5q43 0 81.5 16.5t67 45t45 66.5t16.5 82v420zM525 705h30v-420q0 -37 -14 -70t-38.5 -57.5t-57.5 -38.5t-70 -14t-70 14t-57.5 38.5t-38.5 57.5t-14 70v420h30v-420
q0 -31 12 -58.5t32 -47.5t47.5 -32t58.5 -12t58.5 12t47.5 32t32 47.5t12 58.5v420zM349 765l102 135h39l-103 -135h-38zM424 765l103 135h38l-103 -135h-38zM274 765l103 135h37l-103 -135h-37z" />
    <glyph glyph-name="ucircumflex" unicode="&#xfb;" horiz-adv-x="741" 
d="M645 705h30v-420q0 -62 -23.5 -117t-64 -95.5t-95.5 -64t-117 -23.5t-117 23.5t-95.5 64t-64 95.5t-23.5 117v420h30v-420q0 -56 21 -105t58 -86t86 -58t105 -21t105 21t86 58t58 86t21 105v420zM585 705h30v-420q0 -50 -19 -93.5t-51.5 -76t-76.5 -51.5t-93 -19
q-50 0 -93.5 19t-76 51.5t-51.5 76t-19 93.5v420h30v-420q0 -44 16.5 -82t45 -66.5t66.5 -45t82 -16.5q43 0 81.5 16.5t67 45t45 66.5t16.5 82v420zM525 705h30v-420q0 -37 -14 -70t-38.5 -57.5t-57.5 -38.5t-70 -14t-70 14t-57.5 38.5t-38.5 57.5t-14 70v420h30v-420
q0 -31 12 -58.5t32 -47.5t47.5 -32t58.5 -12t58.5 12t47.5 32t32 47.5t12 58.5v420zM319 908l110 -143h-31l-30 39l-29 -39h-31l45 59l-16 21l-61 -80h-33l77 102l-15 20l-93 -122h-32l109 143h30zM385 908l109 -143h-33l-109 143h33zM448 908l109 -143h-32l-109 143h32z
" />
    <glyph glyph-name="udieresis" unicode="&#xfc;" horiz-adv-x="741" 
d="M645 705h30v-420q0 -62 -23.5 -117t-64 -95.5t-95.5 -64t-117 -23.5t-117 23.5t-95.5 64t-64 95.5t-23.5 117v420h30v-420q0 -56 21 -105t58 -86t86 -58t105 -21t105 21t86 58t58 86t21 105v420zM585 705h30v-420q0 -50 -19 -93.5t-51.5 -76t-76.5 -51.5t-93 -19
q-50 0 -93.5 19t-76 51.5t-51.5 76t-19 93.5v420h30v-420q0 -44 16.5 -82t45 -66.5t66.5 -45t82 -16.5q43 0 81.5 16.5t67 45t45 66.5t16.5 82v420zM195 705h30v-420q0 -31 12 -58.5t32 -47.5t47.5 -32t58.5 -12t58.5 12t47.5 32t32 47.5t12 58.5v420h30v-420q0 -37 -14 -70
t-38.5 -57.5t-57.5 -38.5t-70 -14t-70 14t-57.5 38.5t-38.5 57.5t-14 70v420zM159 843q0 41 28 69.5t69 28.5t69.5 -28.5t28.5 -69.5t-28.5 -69t-69.5 -28t-69 28t-28 69zM397 842q0 41 28 69.5t69 28.5t69.5 -28.5t28.5 -69.5t-28.5 -69t-69.5 -28t-69 28t-28 69zM427 842
q0 -29 19 -48t48 -19t48.5 19t19.5 48t-19.5 48.5t-48.5 19.5t-48 -19.5t-19 -48.5zM189 843q0 -29 19 -48t48 -19t48.5 19t19.5 48t-19.5 48.5t-48.5 19.5t-48 -19.5t-19 -48.5zM219 842q0 16 10.5 27t26.5 11t27 -11t11 -27t-11 -26.5t-27 -10.5t-26.5 10.5t-10.5 26.5z
M457 841q0 16 10.5 27t26.5 11t27 -11t11 -27t-11 -26.5t-27 -10.5t-26.5 10.5t-10.5 26.5zM244 842q0 -12 12 -12t12 12t-12 12t-12 -12zM482 841q0 -12 12 -12t12 12t-12 12t-12 -12z" />
    <glyph glyph-name="yacute" unicode="&#xfd;" horiz-adv-x="648" 
d="M375 259q-8 -2 -15 -2.5t-15 -1.5v-255h-30v255q-8 1 -15 1.5t-15 2.5v-259h-30v266q-44 13 -81.5 40.5t-65 65.5t-43 84.5t-15.5 98.5v150h30v-150q0 -56 19.5 -105t53.5 -86t79.5 -58t97.5 -21q51 0 96.5 21t79.5 58t54 86t20 105v150h30v-150q0 -52 -15.5 -98.5
t-43 -84.5t-65 -65.5t-81.5 -40.5v-266h-30v259zM110 705h30v-150q0 -44 15 -82t40.5 -66.5t60.5 -45t74 -16.5t73.5 16.5t60.5 45t41 66.5t15 82v150h30v-150q0 -50 -17.5 -93.5t-47.5 -76t-70 -51.5t-85 -19t-85 19t-70 51.5t-47.5 76t-17.5 93.5v150zM460 705h30v-150
q0 -37 -12.5 -70t-34.5 -57.5t-51 -38.5t-62 -14t-62 14t-51 38.5t-34.5 57.5t-12.5 70v150h30v-150q0 -31 10 -58.5t28 -47.5t41.5 -32t50.5 -12t50.5 12t41 32t28 47.5t10.5 58.5v150zM300 765l102 135h39l-103 -135h-38zM375 765l103 135h38l-103 -135h-38zM225 765
l103 135h37l-103 -135h-37z" />
    <glyph glyph-name="thorn" unicode="&#xfe;" horiz-adv-x="630" 
d="M195 705h30v-120h158q45 0 84.5 -17t69.5 -47t47 -69.5t17 -84.5t-17 -84.5t-47 -69t-69.5 -46.5t-84.5 -17h-158v-150h-30v705zM225 435v-135h158q29 0 48.5 19t19.5 48t-19.5 48.5t-48.5 19.5h-158zM225 555v-30h158q33 0 61.5 -12.5t50 -34t34 -50t12.5 -61.5
t-12.5 -61.5t-34 -49.5t-50 -33.5t-61.5 -12.5h-158v-30h158q39 0 73 14.5t59.5 40t40.5 59.5t15 73t-15 73t-40.5 59.5t-59.5 40.5t-73 15h-158zM135 705h30v-705h-30v705zM75 705h30v-705h-30v705zM225 495v-30h158q41 0 69.5 -28.5t28.5 -69.5t-28.5 -69t-69.5 -28h-158
v-30h158q27 0 50 10t40.5 27t27.5 40t10 50t-10 50t-27.5 40.5t-40.5 27.5t-50 10h-158z" />
    <glyph glyph-name="ydieresis" unicode="&#xff;" horiz-adv-x="648" 
d="M375 259q-8 -2 -15 -2.5t-15 -1.5v-255h-30v255q-8 1 -15 1.5t-15 2.5v-259h-30v266q-44 13 -81.5 40.5t-65 65.5t-43 84.5t-15.5 98.5v150h30v-150q0 -56 19.5 -105t53.5 -86t79.5 -58t97.5 -21q51 0 96.5 21t79.5 58t54 86t20 105v150h30v-150q0 -52 -15.5 -98.5
t-43 -84.5t-65 -65.5t-81.5 -40.5v-266h-30v259zM112 843q0 41 28 69.5t69 28.5t69.5 -28.5t28.5 -69.5t-28.5 -69t-69.5 -28t-69 28t-28 69zM350 842q0 41 28 69.5t69 28.5t69.5 -28.5t28.5 -69.5t-28.5 -69t-69.5 -28t-69 28t-28 69zM110 705h30v-150q0 -44 15 -82
t40.5 -66.5t60.5 -45t74 -16.5t73.5 16.5t60.5 45t41 66.5t15 82v150h30v-150q0 -50 -17.5 -93.5t-47.5 -76t-70 -51.5t-85 -19t-85 19t-70 51.5t-47.5 76t-17.5 93.5v150zM460 705h30v-150q0 -37 -12.5 -70t-34.5 -57.5t-51 -38.5t-62 -14t-62 14t-51 38.5t-34.5 57.5
t-12.5 70v150h30v-150q0 -31 10 -58.5t28 -47.5t41.5 -32t50.5 -12t50.5 12t41 32t28 47.5t10.5 58.5v150zM380 842q0 -29 19 -48t48 -19t48.5 19t19.5 48t-19.5 48.5t-48.5 19.5t-48 -19.5t-19 -48.5zM142 843q0 -29 19 -48t48 -19t48.5 19t19.5 48t-19.5 48.5t-48.5 19.5
t-48 -19.5t-19 -48.5zM410 841q0 16 10.5 27t26.5 11t27 -11t11 -27t-11 -26.5t-27 -10.5t-26.5 10.5t-10.5 26.5zM172 842q0 16 10.5 27t26.5 11t27 -11t11 -27t-11 -26.5t-27 -10.5t-26.5 10.5t-10.5 26.5zM197 842q0 -12 12 -12t12 12t-12 12t-12 -12zM435 841
q0 -12 12 -12t12 12t-12 12t-12 -12z" />
    <glyph glyph-name="dotlessi" unicode="&#x131;" 
d="M135 705h30v-705h-30v705zM195 705h30v-705h-30v705zM75 705h30v-705h-30v705z" />
    <glyph glyph-name="Lslash" unicode="&#x141;" horiz-adv-x="537" 
d="M195 705h30v-217l104 51l15 -25l-119 -58v-35l135 66l15 -25l-150 -74v-34l166 81l14 -25l-180 -89v-171h300v-30h-300v-30h300v-30h-300v-30h300v-30h-330v705zM75 247l-46 -22l-13 27l59 28v34l-72 -35l-13 27l85 41v35l-99 -48l-12 26l111 54v291h30v-705h-30v247z
M135 705h30v-705h-30v705z" />
    <glyph glyph-name="lslash" unicode="&#x142;" horiz-adv-x="537" 
d="M195 705h30v-217l104 51l15 -25l-119 -58v-35l135 66l15 -25l-150 -74v-34l166 81l14 -25l-180 -89v-171h300v-30h-300v-30h300v-30h-300v-30h300v-30h-330v705zM75 247l-46 -22l-13 27l59 28v34l-72 -35l-13 27l85 41v35l-99 -48l-12 26l111 54v291h30v-705h-30v247z
M135 705h30v-705h-30v705z" />
    <glyph glyph-name="OE" unicode="&#x152;" horiz-adv-x="1018" 
d="M397 0q-76 0 -143 27.5t-116.5 75t-78.5 111.5t-29 138t29 138.5t78.5 112t116.5 75t143 27.5h143v-705h-143zM396 555q-45 0 -84.5 -15.5t-69 -43t-46.5 -64.5t-17 -80t17 -80t46.5 -64t69 -42.5t84.5 -15.5h114v405h-114zM630 705h315v-30h-285v-30h285v-30h-285v-30
h285v-30h-285v-120h270v-30h-270v-30h270v-30h-270v-30h270v-30h-270v-135h300v-30h-300v-30h300v-30h-300v-30h300v-30h-330v705zM397 675q-70 0 -131.5 -25t-107 -68.5t-72 -102.5t-26.5 -127t26.5 -126.5t72 -102t107 -68.5t131.5 -25h113v30h-113q-64 0 -120 22.5
t-97.5 62t-65.5 92.5t-24 115q0 61 24 114.5t65.5 93.5t97.5 62.5t120 22.5h113v30h-113zM397 615q-57 0 -107.5 -20.5t-88 -56t-59.5 -83.5t-22 -103t22 -103t59.5 -83t88 -55.5t107.5 -20.5h113v30h-113q-51 0 -96 18t-78.5 49t-53 73.5t-19.5 91.5t19.5 91.5t53 74
t78.5 49.5t96 18h113v30h-113zM570 705h30v-705h-30v705z" />
    <glyph glyph-name="oe" unicode="&#x153;" horiz-adv-x="1018" 
d="M397 0q-76 0 -143 27.5t-116.5 75t-78.5 111.5t-29 138t29 138.5t78.5 112t116.5 75t143 27.5h143v-705h-143zM396 555q-45 0 -84.5 -15.5t-69 -43t-46.5 -64.5t-17 -80t17 -80t46.5 -64t69 -42.5t84.5 -15.5h114v405h-114zM630 705h315v-30h-285v-30h285v-30h-285v-30
h285v-30h-285v-120h270v-30h-270v-30h270v-30h-270v-30h270v-30h-270v-135h300v-30h-300v-30h300v-30h-300v-30h300v-30h-330v705zM397 675q-70 0 -131.5 -25t-107 -68.5t-72 -102.5t-26.5 -127t26.5 -126.5t72 -102t107 -68.5t131.5 -25h113v30h-113q-64 0 -120 22.5
t-97.5 62t-65.5 92.5t-24 115q0 61 24 114.5t65.5 93.5t97.5 62.5t120 22.5h113v30h-113zM397 615q-57 0 -107.5 -20.5t-88 -56t-59.5 -83.5t-22 -103t22 -103t59.5 -83t88 -55.5t107.5 -20.5h113v30h-113q-51 0 -96 18t-78.5 49t-53 73.5t-19.5 91.5t19.5 91.5t53 74
t78.5 49.5t96 18h113v30h-113zM570 705h30v-705h-30v705z" />
    <glyph glyph-name="Scaron" unicode="&#x160;" horiz-adv-x="574" 
d="M63 98q35 -35 86 -58.5t111 -23.5q44 0 84.5 13.5t71 38.5t48.5 60t18 77q0 28 -8.5 55.5t-24 51t-38.5 41t-51 26.5l-125 33q-30 8 -46.5 34t-16.5 55q0 22 9 40.5t24.5 31t36.5 19.5t44 7q30 0 57.5 -11.5t44.5 -29.5l-26 -17q-10 11 -31 19.5t-46 8.5q-37 0 -60 -19.5
t-23 -51.5q0 -20 11.5 -37t31.5 -21l126 -36q34 -8 60 -28t44 -47t27.5 -59.5t9.5 -65.5q0 -49 -20.5 -89.5t-54.5 -69t-79.5 -44t-94.5 -15.5q-71 0 -130 25.5t-94 66.5zM158 171q14 -13 41.5 -24t59.5 -11q45 0 73.5 18.5t28.5 50.5q0 20 -11.5 37t-31.5 22l-125 36
q-34 8 -60 28t-44 47t-27.5 59t-9.5 65q0 50 19.5 90.5t51.5 69.5t74.5 44.5t88.5 15.5q60 0 110 -23t82 -58l-23 -20q-31 32 -73 51.5t-96 19.5q-41 0 -77.5 -14t-65 -39t-45 -60t-16.5 -78q0 -29 8 -56.5t24 -50.5t38 -40.5t51 -25.5l126 -33q30 -8 46 -34.5t16 -55.5
q0 -22 -10 -40t-27.5 -30.5t-41 -19.5t-50.5 -7q-40 0 -75 13.5t-55 33.5zM109 135q24 -26 64.5 -42.5t85.5 -16.5q33 0 62 9t51.5 25t35.5 39t13 52q0 19 -5.5 38t-16 35.5t-26 29t-34.5 17.5l-125 33q-24 6 -43 21t-32 35t-20 44t-7 48q0 35 14 64t38 49.5t55 32t66 11.5
q46 0 84 -17.5t61 -42.5l-22 -19q-20 20 -51 34.5t-69 14.5q-29 0 -55 -9t-46 -25.5t-32 -40t-12 -52.5q0 -38 21.5 -73t60.5 -46l125 -33q50 -14 75.5 -57t25.5 -93q0 -35 -15.5 -63.5t-42 -48.5t-61 -31t-72.5 -11q-54 0 -100 20.5t-72 47.5zM339 765l-110 143h31l30 -39
l29 39h31l-45 -59l16 -21l61 80h33l-77 -102l15 -20l93 122h32l-109 -143h-30zM273 765l-109 143h33l109 -143h-33zM210 765l-109 143h32l109 -143h-32z" />
    <glyph glyph-name="scaron" unicode="&#x161;" horiz-adv-x="574" 
d="M63 98q35 -35 86 -58.5t111 -23.5q44 0 84.5 13.5t71 38.5t48.5 60t18 77q0 28 -8.5 55.5t-24 51t-38.5 41t-51 26.5l-125 33q-30 8 -46.5 34t-16.5 55q0 22 9 40.5t24.5 31t36.5 19.5t44 7q30 0 57.5 -11.5t44.5 -29.5l-26 -17q-10 11 -31 19.5t-46 8.5q-37 0 -60 -19.5
t-23 -51.5q0 -20 11.5 -37t31.5 -21l126 -36q34 -8 60 -28t44 -47t27.5 -59.5t9.5 -65.5q0 -49 -20.5 -89.5t-54.5 -69t-79.5 -44t-94.5 -15.5q-71 0 -130 25.5t-94 66.5zM158 171q14 -13 41.5 -24t59.5 -11q45 0 73.5 18.5t28.5 50.5q0 20 -11.5 37t-31.5 22l-125 36
q-34 8 -60 28t-44 47t-27.5 59t-9.5 65q0 50 19.5 90.5t51.5 69.5t74.5 44.5t88.5 15.5q60 0 110 -23t82 -58l-23 -20q-31 32 -73 51.5t-96 19.5q-41 0 -77.5 -14t-65 -39t-45 -60t-16.5 -78q0 -29 8 -56.5t24 -50.5t38 -40.5t51 -25.5l126 -33q30 -8 46 -34.5t16 -55.5
q0 -22 -10 -40t-27.5 -30.5t-41 -19.5t-50.5 -7q-40 0 -75 13.5t-55 33.5zM109 135q24 -26 64.5 -42.5t85.5 -16.5q33 0 62 9t51.5 25t35.5 39t13 52q0 19 -5.5 38t-16 35.5t-26 29t-34.5 17.5l-125 33q-24 6 -43 21t-32 35t-20 44t-7 48q0 35 14 64t38 49.5t55 32t66 11.5
q46 0 84 -17.5t61 -42.5l-22 -19q-20 20 -51 34.5t-69 14.5q-29 0 -55 -9t-46 -25.5t-32 -40t-12 -52.5q0 -38 21.5 -73t60.5 -46l125 -33q50 -14 75.5 -57t25.5 -93q0 -35 -15.5 -63.5t-42 -48.5t-61 -31t-72.5 -11q-54 0 -100 20.5t-72 47.5zM339 765l-110 143h31l30 -39
l29 39h31l-45 -59l16 -21l61 80h33l-77 -102l15 -20l93 122h32l-109 -143h-30zM273 765l-109 143h33l109 -143h-33zM210 765l-109 143h32l109 -143h-32z" />
    <glyph glyph-name="Ydieresis" unicode="&#x178;" horiz-adv-x="648" 
d="M375 351l17 -29l234 383h34l-255 -419v-286h-30v296l-248 409h33l162 -268l163 268h33l-179 -295l18 -30l197 325h36zM344 842q0 41 28 69.5t69 28.5t69.5 -28.5t28.5 -69.5t-28.5 -69t-69.5 -28t-69 28t-28 69zM106 843q0 41 28 69.5t69 28.5t69.5 -28.5t28.5 -69.5
t-28.5 -69t-69.5 -28t-69 28t-28 69zM315 277l-260 428h36l254 -419v-286h-30v277zM255 261l-270 444h34l266 -437v-268h-30v261zM374 842q0 -29 19 -48t48 -19t48.5 19t19.5 48t-19.5 48.5t-48.5 19.5t-48 -19.5t-19 -48.5zM136 843q0 -29 19 -48t48 -19t48.5 19t19.5 48
t-19.5 48.5t-48.5 19.5t-48 -19.5t-19 -48.5zM404 841q0 16 10.5 27t26.5 11t27 -11t11 -27t-11 -26.5t-27 -10.5t-26.5 10.5t-10.5 26.5zM166 842q0 16 10.5 27t26.5 11t27 -11t11 -27t-11 -26.5t-27 -10.5t-26.5 10.5t-10.5 26.5zM429 841q0 -12 12 -12t12 12t-12 12
t-12 -12zM191 842q0 -12 12 -12t12 12t-12 12t-12 -12z" />
    <glyph glyph-name="Zcaron" unicode="&#x17d;" horiz-adv-x="630" 
d="M45 585h540v-15l-358 -420h373v-30h-570v30l344 405h-329v30zM30 90h570v-30h-570v30zM30 30h570v-30h-570v30zM45 645h540v-30h-540v30zM45 705h540v-30h-540v30zM188 150l344 405h-39l-345 -405h40zM108 150l345 405h-39l-345 -405h39zM354 765l-110 143h31l30 -39
l29 39h31l-45 -59l16 -21l61 80h33l-77 -102l15 -20l93 122h32l-109 -143h-30zM288 765l-109 143h33l109 -143h-33zM225 765l-109 143h32l109 -143h-32z" />
    <glyph glyph-name="zcaron" unicode="&#x17e;" horiz-adv-x="630" 
d="M45 585h540v-15l-358 -420h373v-30h-570v30l344 405h-329v30zM30 90h570v-30h-570v30zM30 30h570v-30h-570v30zM45 645h540v-30h-540v30zM45 705h540v-30h-540v30zM188 150l344 405h-39l-345 -405h40zM108 150l345 405h-39l-345 -405h39zM354 765l-110 143h31l30 -39
l29 39h31l-45 -59l16 -21l61 80h33l-77 -102l15 -20l93 122h32l-109 -143h-30zM288 765l-109 143h33l109 -143h-33zM225 765l-109 143h32l109 -143h-32z" />
    <glyph glyph-name="florin" unicode="&#x192;" horiz-adv-x="592" 
d="M501 540q-9 8 -22 12t-24 4q-27 0 -48 -17.5t-26 -44.5l-11 -59h125v-30h-130l-5 -30h135v-30h-141l-49 -280q-7 -41 -27.5 -75t-50 -59t-66.5 -38.5t-77 -13.5q-25 0 -50 6t-46 16l11 27q19 -10 41 -14.5t43 -4.5q35 0 67 12t58 33t44 50.5t24 65.5l75 429q7 38 36.5 62
t67.5 24q15 0 30.5 -4.5t28.5 -12.5zM90 435h128l15 85q7 41 27.5 75t50 58.5t66 38t77.5 13.5q31 0 58.5 -7.5t53.5 -21.5l-13 -26q-22 12 -47.5 19t-50.5 7q-35 0 -67 -12t-58 -33t-44 -50.5t-24 -65.5l-75 -429q-7 -38 -37 -62t-67 -24q-12 0 -25 2.5t-23 8.5l13 27
q13 -9 35 -9q27 0 48 17.5t26 44.5l45 254h-112v30h117l6 30h-123v30zM23 -17q27 -14 60 -14q24 0 46 8t40 23t30 35.5t17 45.5l76 428q5 30 20 55t37 43t49 28t56 10q23 0 45.5 -6t41.5 -18l-14 -26q-17 10 -34.5 15.5t-38.5 5.5q-49 0 -86 -31t-46 -81l-76 -428
q-5 -30 -20 -55t-37 -43.5t-49 -28.5t-56 -10q-39 0 -73 17z" />
    <glyph glyph-name="circumflex" unicode="&#x2c6;" horiz-adv-x="260" 
d="M81 705l110 -143h-31l-30 39l-29 -39h-31l45 59l-16 21l-61 -80h-33l77 102l-15 20l-93 -122h-32l109 143h30zM147 705l109 -143h-33l-109 143h33zM210 705l109 -143h-32l-109 143h32z" />
    <glyph glyph-name="caron" unicode="&#x2c7;" horiz-adv-x="260" 
d="M180 562l-110 143h31l30 -39l29 39h31l-45 -59l16 -21l61 80h33l-77 -102l15 -20l93 122h32l-109 -143h-30zM114 562l-109 143h33l109 -143h-33zM51 562l-109 143h32l109 -143h-32z" />
    <glyph glyph-name="breve" unicode="&#x2d8;" horiz-adv-x="260" 
d="M131 548q-33 0 -63.5 11.5t-56 32.5t-45 50t-30.5 63h33q20 -56 63.5 -91.5t98.5 -35.5t98.5 35.5t63.5 91.5h33q-11 -34 -30.5 -63t-45 -50t-56 -32.5t-63.5 -11.5zM131 608q-42 0 -75 26t-54 71h33q16 -31 40.5 -49t55.5 -18t55.5 18t40.5 49h33q-21 -45 -54 -71
t-75 -26z" />
    <glyph glyph-name="dotaccent" unicode="&#x2d9;" horiz-adv-x="400" 
d="M103 622q0 41 28 69.5t69 28.5t69.5 -28.5t28.5 -69.5t-28.5 -69t-69.5 -28t-69 28t-28 69zM133 622q0 -29 19 -48t48 -19t48.5 19t19.5 48t-19.5 48.5t-48.5 19.5t-48 -19.5t-19 -48.5zM163 621q0 16 10.5 27t26.5 11t27 -11t11 -27t-11 -26.5t-27 -10.5t-26.5 10.5
t-10.5 26.5zM188 621q0 -12 12 -12t12 12t-12 12t-12 -12z" />
    <glyph glyph-name="ring" unicode="&#x2da;" horiz-adv-x="400" 
d="M88 607q0 23 9 43.5t24 36t35.5 24.5t43.5 9t43.5 -9t36 -24.5t24.5 -36t9 -43.5t-9 -43.5t-24.5 -35.5t-36 -24t-43.5 -9t-43.5 9t-35.5 24t-24 35.5t-9 43.5zM118 607q0 -35 23.5 -58.5t58.5 -23.5t59 23.5t24 58.5t-24 59t-59 24t-58.5 -24t-23.5 -59z" />
    <glyph glyph-name="ogonek" unicode="&#x2db;" horiz-adv-x="260" 
d="M212 -101q-28 11 -62 11q-25 0 -46.5 -6t-38 -16t-26 -24t-9.5 -29t9.5 -29t26 -24t38 -16t46.5 -6q32 0 60 5.5t51 14.5l15 -26q-26 -11 -58 -17.5t-68 -6.5q-31 0 -58.5 8t-47.5 22.5t-32 33.5t-12 41q0 19 9 36t24.5 30.5t37 23t47.5 13.5l-42 62h36l40 -60
q23 0 40 -4l-44 64h36l56 -81zM164 -147q-4 1 -18 1q-8 0 -18 -1.5t-18.5 -3.5t-14 -6t-5.5 -8q0 -6 17.5 -10.5t42.5 -4.5t46 2t34 5l14 -24q-17 -6 -41.5 -9.5t-52.5 -3.5q-38 0 -64 13t-26 32q0 12 8.5 20.5t21 13.5t28 7.5t30.5 2.5q23 0 36 -5z" />
    <glyph glyph-name="tilde" unicode="&#x2dc;" horiz-adv-x="260" 
d="M-13 570l5 15q11 35 33 50.5t50 6.5l100 -32q39 -13 72.5 8.5t48.5 69.5l10 32h31l-13 -41q-9 -29 -24.5 -50.5t-36 -35t-45.5 -17t-52 5.5l-100 32q-16 5 -27 -5.5t-19 -32.5l-2 -6h-31zM243 720h31l-7 -23q-11 -35 -33 -51t-50 -7l-100 32q-20 6 -38.5 3.5t-34.5 -12.5
t-28.5 -27.5t-19.5 -40.5l-7 -24h-32l11 33q10 29 26 50.5t37 34.5t45 16t50 -5l100 -32q15 -5 26 5.5t19 33.5z" />
    <glyph glyph-name="hungarumlaut" unicode="&#x2dd;" horiz-adv-x="520" 
d="M26 435l89 270h31l-89 -270h-31zM88 435l89 270h31l-89 -270h-31zM150 435l89 270h31l-89 -270h-31zM241 435l89 270h31l-89 -270h-31zM303 435l89 270h31l-89 -270h-31zM365 435l89 270h31l-89 -270h-31z" />
    <glyph glyph-name="endash" unicode="&#x2013;" horiz-adv-x="500" 
d="M0 330h500v-30h-500v30zM0 270h500v-30h-500v30zM0 210h500v-30h-500v30z" />
    <glyph glyph-name="emdash" unicode="&#x2014;" horiz-adv-x="1000" 
d="M0 330h1000v-30h-1000v30zM0 270h1000v-30h-1000v30zM0 210h1000v-30h-1000v30z" />
    <glyph glyph-name="quoteleft" unicode="&#x2018;" 
d="M41 420l74 285h31l-74 -285h-31zM103 420l74 285h31l-74 -285h-31zM165 420l74 285h31l-74 -285h-31z" />
    <glyph glyph-name="quoteright" unicode="&#x2019;" 
d="M41 420l74 285h31l-74 -285h-31zM103 420l74 285h31l-74 -285h-31zM165 420l74 285h31l-74 -285h-31z" />
    <glyph glyph-name="quotesinglbase" unicode="&#x201a;" 
d="M17 -120l74 285h31l-74 -285h-31zM79 -120l74 285h31l-74 -285h-31zM141 -120l74 285h31l-74 -285h-31z" />
    <glyph glyph-name="quotedblleft" unicode="&#x201c;" horiz-adv-x="520" 
d="M41 420l74 285h31l-74 -285h-31zM103 420l74 285h31l-74 -285h-31zM165 420l74 285h31l-74 -285h-31zM256 420l74 285h31l-74 -285h-31zM318 420l74 285h31l-74 -285h-31zM380 420l74 285h31l-74 -285h-31z" />
    <glyph glyph-name="quotedblright" unicode="&#x201d;" horiz-adv-x="520" 
d="M41 420l74 285h31l-74 -285h-31zM103 420l74 285h31l-74 -285h-31zM165 420l74 285h31l-74 -285h-31zM256 420l74 285h31l-74 -285h-31zM318 420l74 285h31l-74 -285h-31zM380 420l74 285h31l-74 -285h-31z" />
    <glyph glyph-name="quotedblbase" unicode="&#x201e;" horiz-adv-x="520" 
d="M41 -135l74 285h31l-74 -285h-31zM103 -135l74 285h31l-74 -285h-31zM165 -135l74 285h31l-74 -285h-31zM256 -135l74 285h31l-74 -285h-31zM318 -135l74 285h31l-74 -285h-31zM380 -135l74 285h31l-74 -285h-31z" />
    <glyph glyph-name="dagger" unicode="&#x2020;" horiz-adv-x="592" 
d="M30 495h188v210h30v-840h-30v480h-188v30h188v30h-188v30h188v30h-188v30zM338 705h30v-210h187v-30h-187v-30h187v-30h-187v-30h187v-30h-187v-480h-30v840zM278 705h30v-840h-30v840z" />
    <glyph glyph-name="daggerdbl" unicode="&#x2021;" horiz-adv-x="592" 
d="M30 525h188v180h30v-840h-30v165h-188v30h188v30h-188v30h188v30h-188v30h188v195h-188v30h188v30h-188v30h188v30h-188v30zM338 705h30v-180h187v-30h-187v-30h187v-30h-187v-30h187v-30h-187v-195h187v-30h-187v-30h187v-30h-187v-30h187v-30h-187v-165h-30v840z
M278 705h30v-840h-30v840z" />
    <glyph glyph-name="bullet" unicode="&#x2022;" horiz-adv-x="500" 
d="M75 352q0 36 13.5 67.5t37 55t54.5 37t67 13.5t67.5 -13.5t55 -37t37 -55t13.5 -67.5t-13.5 -67t-37 -54.5t-55 -37t-67.5 -13.5t-67 13.5t-54.5 37t-37 54.5t-13.5 67zM105 352q0 -30 11 -55.5t30.5 -45t45 -30.5t55.5 -11t56 11t45.5 30.5t30.5 45t11 55.5t-11 56
t-30.5 45.5t-45.5 30.5t-56 11t-55.5 -11t-45 -30.5t-30.5 -45.5t-11 -56zM135 352q0 23 9 43.5t24 36t35.5 24.5t43.5 9t43.5 -9t36 -24.5t24.5 -36t9 -43.5t-9 -43.5t-24.5 -35.5t-36 -24t-43.5 -9t-43.5 9t-35.5 24t-24 35.5t-9 43.5zM165 352q0 -35 23.5 -58.5
t58.5 -23.5t59 23.5t24 58.5t-24 59t-59 24t-58.5 -24t-23.5 -59zM195 352q0 22 15 37.5t37 15.5t37.5 -15.5t15.5 -37.5t-15.5 -37t-37.5 -15t-37 15t-15 37z" />
    <glyph glyph-name="ellipsis" unicode="&#x2026;" horiz-adv-x="1000" 
d="M73 82q0 41 28 69.5t69 28.5t69.5 -28.5t28.5 -69.5t-28.5 -69t-69.5 -28t-69 28t-28 69zM103 82q0 -29 19 -48t48 -19t48.5 19t19.5 48t-19.5 48.5t-48.5 19.5t-48 -19.5t-19 -48.5zM133 81q0 16 10.5 27t26.5 11t27 -11t11 -27t-11 -26.5t-27 -10.5t-26.5 10.5
t-10.5 26.5zM158 81q0 -12 12 -12t12 12t-12 12t-12 -12zM407 82q0 41 28 69.5t69 28.5t69.5 -28.5t28.5 -69.5t-28.5 -69t-69.5 -28t-69 28t-28 69zM437 82q0 -29 19 -48t48 -19t48.5 19t19.5 48t-19.5 48.5t-48.5 19.5t-48 -19.5t-19 -48.5zM467 81q0 16 10.5 27t26.5 11
t27 -11t11 -27t-11 -26.5t-27 -10.5t-26.5 10.5t-10.5 26.5zM492 81q0 -12 12 -12t12 12t-12 12t-12 -12zM740 82q0 41 28 69.5t69 28.5t69.5 -28.5t28.5 -69.5t-28.5 -69t-69.5 -28t-69 28t-28 69zM770 82q0 -29 19 -48t48 -19t48.5 19t19.5 48t-19.5 48.5t-48.5 19.5
t-48 -19.5t-19 -48.5zM800 81q0 16 10.5 27t26.5 11t27 -11t11 -27t-11 -26.5t-27 -10.5t-26.5 10.5t-10.5 26.5zM825 81q0 -12 12 -12t12 12t-12 12t-12 -12z" />
    <glyph glyph-name="perthousand" unicode="&#x2030;" horiz-adv-x="1167" 
d="M154 16l401 719l26 -15l-402 -719zM206 -15l401 720l26 -13l-401 -722zM28 540q0 37 14 70t38.5 57.5t57.5 38.5t70 14t70 -14t57.5 -38.5t38.5 -57.5t14 -70t-14 -70t-38.5 -57.5t-57.5 -38.5t-70 -14t-70 14t-57.5 38.5t-38.5 57.5t-14 70zM58 540q0 -31 12 -58.5
t32 -47.5t47.5 -32t58.5 -12t58.5 12t47.5 32t32 47.5t12 58.5t-12 58.5t-32 47.5t-47.5 32t-58.5 12t-58.5 -12t-47.5 -32t-32 -47.5t-12 -58.5zM88 540q0 25 9.5 46.5t26 38t38 26t46.5 9.5t46.5 -9.5t38 -26t26 -38t9.5 -46.5t-9.5 -46.5t-26 -38t-38 -26t-46.5 -9.5
t-46.5 9.5t-38 26t-26 38t-9.5 46.5zM118 540q0 -38 26 -64t64 -26t64 26t26 64t-26 64t-64 26t-64 -26t-26 -64zM395 165q0 37 14 70t38.5 57.5t57.5 38.5t70 14t70 -14t57.5 -38.5t38.5 -57.5t14 -70t-14 -70t-38.5 -57.5t-57.5 -38.5t-70 -14t-70 14t-57.5 38.5
t-38.5 57.5t-14 70zM425 165q0 -31 12 -58.5t32 -47.5t47.5 -32t58.5 -12t58.5 12t47.5 32t32 47.5t12 58.5t-12 58.5t-32 47.5t-47.5 32t-58.5 12t-58.5 -12t-47.5 -32t-32 -47.5t-12 -58.5zM455 165q0 25 9.5 46.5t26 38t38 26t46.5 9.5t46.5 -9.5t38 -26t26 -38
t9.5 -46.5t-9.5 -46.5t-26 -38t-38 -26t-46.5 -9.5t-46.5 9.5t-38 26t-26 38t-9.5 46.5zM485 165q0 -38 26 -64t64 -26t64 26t26 64t-26 64t-64 26t-64 -26t-26 -64zM774 165q0 37 14 70t38.5 57.5t57.5 38.5t70 14t70 -14t57.5 -38.5t38.5 -57.5t14 -70t-14 -70
t-38.5 -57.5t-57.5 -38.5t-70 -14t-70 14t-57.5 38.5t-38.5 57.5t-14 70zM804 165q0 -31 12 -58.5t32 -47.5t47.5 -32t58.5 -12t58.5 12t47.5 32t32 47.5t12 58.5t-12 58.5t-32 47.5t-47.5 32t-58.5 12t-58.5 -12t-47.5 -32t-32 -47.5t-12 -58.5zM834 165q0 25 9.5 46.5
t26 38t38 26t46.5 9.5t46.5 -9.5t38 -26t26 -38t9.5 -46.5t-9.5 -46.5t-26 -38t-38 -26t-46.5 -9.5t-46.5 9.5t-38 26t-26 38t-9.5 46.5zM864 165q0 -38 26 -64t64 -26t64 26t26 64t-26 64t-64 26t-64 -26t-26 -64z" />
    <glyph glyph-name="guilsinglleft" unicode="&#x2039;" 
d="M26 247l165 233l24 -17l-152 -216l152 -216l-24 -17zM100 248l140 197l24 -17l-127 -180l127 -182l-24 -17z" />
    <glyph glyph-name="guilsinglright" unicode="&#x203a;" 
d="M267 247l-165 -233l-24 17l152 216l-152 216l24 17zM193 246l-140 -197l-24 17l126 180l-126 182l24 17z" />
    <glyph glyph-name="fraction" unicode="&#x2044;" horiz-adv-x="889" 
d="M192 16l401 719l26 -15l-402 -719zM244 -15l401 720l26 -13l-401 -722z" />
    <glyph glyph-name="Euro" unicode="&#x20ac;" horiz-adv-x="592" 
d="M529 134q-26 -14 -55.5 -21.5t-61.5 -7.5q-51 0 -96 19.5t-78.5 53t-53 78.5t-19.5 96t19.5 96.5t53 79t78.5 53t96 19.5q57 0 106 -23l-10 -29q-46 22 -97 22q-50 0 -92 -20.5t-72 -54.5h244l-11 -30h-255q-5 -8 -8 -15t-7 -15h261l-10 -30h-261q-6 -26 -6 -53
q0 -19 3 -37h240l-10 -30h-223l12 -30h202l-10 -30h-173q29 -42 75 -66t101 -24q26 0 50.5 6t46.5 17zM45 495h29q21 49 54.5 90.5t77.5 71.5t96.5 46.5t109.5 16.5q39 0 75.5 -8t70.5 -22l-9 -28q-65 28 -137 28q-70 0 -131.5 -26.5t-107 -72.5t-72 -107.5t-26.5 -131.5
t26.5 -131.5t72 -107t107 -72t131.5 -26.5q49 0 93.5 13t83.5 36l21 -21q-43 -28 -93 -43t-105 -15q-60 0 -114 18t-99 49.5t-79 75.5t-53 97h-56l9 30h38q-2 7 -3.5 14.5t-3.5 15.5h-21l9 30h7q-1 9 -1 18v19q0 14 1 26.5t3 26.5h-34l11 30h28l8 30h-26zM569 88
q-35 -20 -74.5 -31.5t-82.5 -11.5q-64 0 -120 24t-97.5 65.5t-65.5 97.5t-24 120t24 120t65.5 98t97.5 66t120 24q34 0 65.5 -7t60.5 -20l-11 -29q-26 12 -55 19t-60 7q-57 0 -107.5 -22t-88 -59.5t-59.5 -88.5t-22 -108t22 -107.5t59.5 -88t88 -59.5t107.5 -22q37 0 71.5 9
t64.5 26z" />
    <glyph glyph-name="trademark" unicode="&#x2122;" horiz-adv-x="901" 
d="M830 705l-144 -405h-32l-114 320v-320h-30v405h31l128 -362l16 45l-112 317h33l95 -271l96 271h33zM45 645h330v-30h-120v-315h-30v315h-30v-315h-30v315h-120v30zM718 300l144 405h31v-405h-30v320l-114 -320h-31zM450 705h30v-405h-30v405zM953 300h-30v405h30v-405z
M45 705h330v-30h-330v30z" />
    <glyph glyph-name="minus" unicode="&#x2212;" horiz-adv-x="666" 
d="M60 375h555v-30h-555v30zM60 315h555v-30h-555v30zM60 255h555v-30h-555v30z" />
    </font>
</defs>
</svg>
